<svg width="40" height="40" viewBox="0 0 40 40" fill="none" xmlns="http://www.w3.org/2000/svg">
<circle cx="20" cy="20" r="20" fill="#4E4E57"/>
<path d="M18.9999 10C23.9679 10 27.9999 14.032 27.9999 19C27.9999 23.968 23.9679 28 18.9999 28C14.0319 28 9.99988 23.968 9.99988 19C9.99988 14.032 14.0319 10 18.9999 10ZM18.9999 26C22.8674 26 25.9999 22.8675 25.9999 19C25.9999 15.1325 22.8674 12 18.9999 12C15.1324 12 11.9999 15.1325 11.9999 19C11.9999 22.8675 15.1324 26 18.9999 26ZM27.4852 26.0711L30.3136 28.8995L28.8994 30.3137L26.071 27.4853L27.4852 26.0711Z" fill="currentColor"/>
</svg>
