<svg width="40" height="40" viewBox="0 0 40 40" fill="none" xmlns="http://www.w3.org/2000/svg">
<circle cx="20" cy="20" r="20" fill="#4E4E57"/>
<path fill="currentColor" d="M12.0048 24V12H10.0048V10H13.0048C13.5571 10 14.0048 10.4477 14.0048 11V23H26.4432L28.4432 15H16.0048V13H29.724C30.2763 13 30.724 13.4477 30.724 14C30.724 14.0818 30.714 14.1632 30.6941 14.2425L28.1941 24.2425C28.0829 24.6877 27.6829 25 27.224 25H13.0048C12.4525 25 12.0048 24.5523 12.0048 24ZM14.0048 31C12.9002 31 12.0048 30.1046 12.0048 29C12.0048 27.8954 12.9002 27 14.0048 27C15.1093 27 16.0048 27.8954 16.0048 29C16.0048 30.1046 15.1093 31 14.0048 31ZM26.0048 31C24.9002 31 24.0048 30.1046 24.0048 29C24.0048 27.8954 24.9002 27 26.0048 27C27.1094 27 28.0048 27.8954 28.0048 29C28.0048 30.1046 27.1094 31 26.0048 31Z" />
</svg>
