<svg width="16" height="15" viewBox="0 0 16 15" fill="none" xmlns="http://www.w3.org/2000/svg">
<g clip-path="url(#clip0_262_3198)">
<path d="M8 7.5C8.79113 7.5 9.56448 7.28007 10.2223 6.86801C10.8801 6.45596 11.3928 5.87029 11.6955 5.18506C11.9983 4.49984 12.0775 3.74584 11.9231 3.01841C11.7688 2.29098 11.3878 1.6228 10.8284 1.09835C10.269 0.573904 9.55629 0.216751 8.78036 0.0720569C8.00444 -0.0726377 7.20017 0.00162482 6.46927 0.285453C5.73836 0.569282 5.11365 1.04993 4.67412 1.66661C4.2346 2.2833 4 3.00832 4 3.75C4.00106 4.74426 4.42283 5.69751 5.17274 6.40056C5.92266 7.1036 6.93946 7.49901 8 7.5ZM8 1.25C8.52742 1.25 9.04299 1.39662 9.48152 1.67133C9.92005 1.94603 10.2618 2.33648 10.4637 2.79329C10.6655 3.25011 10.7183 3.75277 10.6154 4.23773C10.5125 4.72268 10.2586 5.16814 9.88562 5.51777C9.51268 5.8674 9.03752 6.1055 8.52024 6.20197C8.00296 6.29843 7.46678 6.24892 6.97951 6.0597C6.49224 5.87048 6.07577 5.55005 5.78275 5.13893C5.48973 4.7278 5.33333 4.24445 5.33333 3.75C5.33333 3.08696 5.61428 2.45108 6.11438 1.98223C6.61448 1.51339 7.29276 1.25 8 1.25Z" fill="currentColor"/>
<path d="M8 8.75C6.40924 8.75165 4.88414 9.34482 3.75931 10.3994C2.63447 11.4539 2.00176 12.8837 2 14.375C2 14.5408 2.07024 14.6997 2.19526 14.8169C2.32029 14.9342 2.48986 15 2.66667 15C2.84348 15 3.01305 14.9342 3.13807 14.8169C3.2631 14.6997 3.33333 14.5408 3.33333 14.375C3.33333 13.2147 3.825 12.1019 4.70017 11.2814C5.57534 10.4609 6.76232 10 8 10C9.23768 10 10.4247 10.4609 11.2998 11.2814C12.175 12.1019 12.6667 13.2147 12.6667 14.375C12.6667 14.5408 12.7369 14.6997 12.8619 14.8169C12.987 14.9342 13.1565 15 13.3333 15C13.5101 15 13.6797 14.9342 13.8047 14.8169C13.9298 14.6997 14 14.5408 14 14.375C13.9982 12.8837 13.3655 11.4539 12.2407 10.3994C11.1159 9.34482 9.59076 8.75165 8 8.75Z" fill="currentColor"/>
</g>
<defs>
<clipPath id="clip0_262_3198">
<rect width="16" height="15" fill="white"/>
</clipPath>
</defs>
</svg>
