<svg width="86" height="56" viewBox="0 0 86 56" fill="none" xmlns="http://www.w3.org/2000/svg">
<path d="M77.2812 0H8C3.58172 0 0 3.58172 0 8V47.8479C0 52.2662 3.58172 55.8479 8 55.8479H77.2812C81.6995 55.8479 85.2812 52.2662 85.2812 47.8479V8C85.2812 3.58172 81.6995 0 77.2812 0Z" fill="#2557D6"/>
<path d="M0.0297342 26.3252C0.0298041 26.3253 0.0298999 26.3253 0.0299998 26.3253H2.94015C3.65746 26.3253 4.30519 25.8963 4.58495 25.2357L4.64369 25.0971C4.88785 24.5206 5.45314 24.1462 6.07915 24.1462C6.70569 24.1462 7.27135 24.5213 7.51517 25.0984L7.57319 25.2357C7.85217 25.8961 8.49941 26.3253 9.21632 26.3253H15.8037C15.9607 26.3253 16.088 26.1981 16.088 26.0411C16.088 25.7321 16.5115 25.6449 16.6334 25.9288L16.7211 26.1329C16.7732 26.2541 16.8924 26.3326 17.0243 26.3326H20.7697C20.9022 26.3326 21.0218 26.2533 21.0735 26.1313L21.1592 25.9289C21.2804 25.6425 21.7072 25.7292 21.7072 26.0401C21.7072 26.1977 21.835 26.3254 21.9926 26.3254H39.9357C40.9227 26.3254 41.7222 25.5239 41.7196 24.5369L41.716 23.1355C41.7154 22.9218 41.8885 22.7483 42.1022 22.7483C42.3733 22.7576 42.4526 22.782 42.4526 23.2203C42.4526 24.9352 43.8428 26.3254 45.5577 26.3254H52.4915C52.6649 26.3254 52.8054 26.1849 52.8054 26.0116C52.8054 25.7757 53.0572 25.6216 53.2751 25.7122C54.0975 26.0543 55.2321 26.3254 56.6483 26.3254H59.8187C60.5375 26.3254 61.1871 25.8968 61.4698 25.2359L61.5313 25.0921C61.7767 24.5184 62.3405 24.1463 62.9645 24.1463C63.5931 24.1463 64.1601 24.5237 64.4027 25.1036L64.458 25.2359C64.7341 25.8958 65.3795 26.3254 66.0948 26.3254H72.8509C73.1027 26.3254 73.3069 26.1213 73.3069 25.8695C73.3069 25.4094 73.9107 25.2388 74.1514 25.6308L74.4045 26.0429C74.5123 26.2185 74.7035 26.3254 74.9095 26.3254H76.9907C79.3727 26.3254 81.3037 24.3945 81.3037 22.0125V15.9698C81.3037 14.1317 79.8137 12.6416 77.9756 12.6416H74.9886C74.8002 12.6416 74.6474 12.7944 74.6474 12.9828C74.6474 13.332 74.1851 13.4557 74.0107 13.1532L73.8404 12.858C73.7632 12.7241 73.6204 12.6416 73.4659 12.6416H67.207C67.0294 12.6416 66.8854 12.7856 66.8854 12.9632C66.8854 13.2985 66.4365 13.4101 66.2796 13.1137L66.1409 12.8519C66.0724 12.7225 65.938 12.6416 65.7916 12.6416H56.8039C55.465 12.6416 54.2664 12.8002 53.2566 13.2257C53.0482 13.3135 52.8056 13.1669 52.8056 12.9407C52.8056 12.7755 52.6717 12.6416 52.5064 12.6416H46.6894C46.5512 12.6416 46.4391 12.7536 46.4391 12.8918C46.4391 13.1064 46.1781 13.2307 45.9914 13.1249C45.3568 12.7651 44.5791 12.6416 43.7331 12.6416H21.3454C20.8152 12.6416 20.335 12.9545 20.1208 13.4395C19.6536 14.4976 18.1482 14.4904 17.6705 13.437C17.452 12.9553 16.97 12.6416 16.441 12.6416H10.2916C10.1216 12.6416 9.9838 12.7794 9.9838 12.9494C9.9838 13.2744 9.54544 13.3775 9.40053 13.0866L9.28121 12.847C9.21851 12.7212 9.08999 12.6416 8.94936 12.6416H6.12846C4.1836 12.6416 2.42069 13.7856 1.62849 15.5618L0.54248 17.9968C0.204149 18.7554 0.0292969 19.5767 0.0292969 20.4073V26.3249C0.0292969 26.325 0.0294003 26.3251 0.0295278 26.3251C0.0295899 26.3251 0.0296494 26.3251 0.0296928 26.3252L0.0297342 26.3252ZM25.87 23.1229C25.8701 23.8015 25.3199 24.3517 24.6413 24.3517C23.9632 24.3517 23.4133 23.8024 23.4125 23.1244L23.4123 22.9872C23.4106 21.5173 21.4069 21.0867 20.8014 22.4259L20.3561 23.4108C20.0972 23.9835 19.5269 24.3516 18.8984 24.3516H18.859C18.2307 24.3516 17.6607 23.9839 17.4015 23.4117L16.9535 22.4226C16.3472 21.0839 14.344 21.5163 14.344 22.986C14.344 23.7402 13.7326 24.3516 12.9784 24.3516H10.658C9.9387 24.3516 9.28952 23.9204 9.01061 23.2574C8.7317 22.5944 8.08253 22.1632 7.36326 22.1632H4.75055C4.02972 22.1632 3.37865 22.594 3.09674 23.2574L2.9392 23.6281C2.75282 24.0668 2.32235 24.3516 1.84576 24.3516C0.989071 24.3516 0.41398 23.4724 0.757229 22.6875L3.60633 16.1724C4.03981 15.1811 5.01906 14.5405 6.10096 14.5405H6.6576C7.40016 14.5405 8.07243 14.9797 8.37073 15.6598L8.86984 16.7976C9.5702 18.3941 11.9546 17.8941 11.9546 16.1507C11.9546 15.2614 12.6755 14.5405 13.5647 14.5405H14.3473C15.2738 14.5405 16.117 15.0754 16.5119 15.9135L16.6171 16.137C17.544 18.1043 20.358 18.0595 21.2217 16.0637L21.2528 15.9919C21.634 15.1109 22.5023 14.5405 23.4623 14.5405C24.792 14.5405 25.87 15.6185 25.87 16.9481L25.87 23.1229ZM6.09438 20.127C6.87231 20.127 7.39923 19.3347 7.09845 18.6173C6.72475 17.726 5.46141 17.7272 5.08948 18.6193C4.79046 19.3365 5.31737 20.127 6.09438 20.127ZM35.6445 23.3369C35.6446 23.8972 35.1903 24.3515 34.63 24.3515H31.6427C29.4326 24.3515 27.641 22.5598 27.641 20.3497V18.5423C27.641 16.3321 29.4326 14.5404 31.6428 14.5404H34.6231C35.1873 14.5404 35.6446 14.9978 35.6446 15.5619C35.6446 16.1261 35.1873 16.5835 34.6231 16.5835H30.9212C30.4328 16.5835 30.0369 16.9793 30.0369 17.4677C30.0369 17.956 30.4328 18.3519 30.9212 18.3519H34.5047C35.06 18.3519 35.5102 18.8021 35.5102 19.3575C35.5102 19.9128 35.06 20.363 34.5047 20.363H31.0165C30.4754 20.363 30.0368 20.8016 30.0368 21.3427C30.0368 21.8838 30.4754 22.3224 31.0165 22.3224H34.63C35.1903 22.3224 35.6445 22.7766 35.6445 23.3369ZM46.9236 17.1828C46.9236 17.9185 46.6877 18.4869 46.3731 18.9079C46.0666 19.3182 46.1147 20.2135 46.4208 20.6241C46.759 21.1121 46.8174 21.5479 46.8174 22.4241V23.1386C46.8174 23.8085 46.2744 24.3515 45.6046 24.3515C44.9383 24.3515 44.3967 23.8139 44.3919 23.1475L44.3916 23.1142C44.3916 22.5239 44.4493 21.6749 44.0135 21.2029C43.6634 20.8577 43.1298 20.7829 42.2671 20.7829H41.4796C40.4941 20.7829 39.6952 21.5818 39.6952 22.5672V23.1536C39.6952 23.8152 39.1589 24.3516 38.4973 24.3516C37.8356 24.3516 37.2993 23.8152 37.2993 23.1536V19.446C37.2993 16.7367 39.4956 14.5404 42.2048 14.5404H42.8099C44.0343 14.5404 44.9365 14.572 45.7111 15.0103C46.4691 15.4486 46.9236 16.0884 46.9236 17.1828ZM43.8951 18.6396C43.5657 18.8352 43.1765 18.8417 42.7098 18.8417H40.8889C40.2872 18.8417 39.7993 18.3539 39.7993 17.7521C39.7993 17.1504 40.2872 16.6625 40.8889 16.6625H42.7494C43.1668 16.6625 43.6027 16.6809 43.8857 16.8395C44.1964 16.9824 44.3888 17.2866 44.3888 17.7068C44.3888 18.1357 44.2057 18.4807 43.8951 18.6396ZM50.7662 23.1292C50.7662 23.8042 50.2189 24.3515 49.5439 24.3515C48.8689 24.3515 48.3217 23.8042 48.3217 23.1292V15.7627C48.3217 15.0877 48.8689 14.5404 49.5439 14.5404C50.2189 14.5404 50.7662 15.0877 50.7662 15.7627V23.1292ZM79.1451 22.1725C79.1451 23.3759 78.1696 24.3515 76.9662 24.3515H76.9321C76.1974 24.3515 75.5151 23.9706 75.1294 23.3452L74.2201 21.8708C73.3596 20.4753 71.2087 21.0852 71.2087 22.7247C71.2087 23.6231 70.4804 24.3515 69.582 24.3515H67.5187C66.7974 24.3515 66.1459 23.9208 65.8632 23.2573C65.5805 22.5937 64.9289 22.1631 64.2077 22.1631H61.6039C60.8874 22.1631 60.2415 22.5951 59.9678 23.2573C59.6942 23.9195 59.0483 24.3515 58.3318 24.3515H56.7115C55.5472 24.3515 54.0723 24.0994 53.2376 23.2663C52.3956 22.4333 51.9575 21.3049 51.9575 19.5208C51.9575 18.0658 52.2193 16.7356 53.2489 15.6844C54.0236 14.9014 55.2367 14.5404 56.8876 14.5404H58.156C58.7365 14.5404 59.2071 15.011 59.2071 15.5915C59.2071 16.1721 58.7365 16.6427 58.156 16.6427H56.9362C56.0618 16.6427 55.5679 16.77 55.0925 17.2238C54.6842 17.637 54.404 18.4178 54.404 19.4462C54.404 20.4973 54.6173 21.2552 55.0625 21.7503C55.4313 22.1385 56.1018 22.2563 56.7322 22.2563C57.3859 22.2563 57.9777 21.8693 58.2397 21.2705L60.4655 16.1848C60.9026 15.1861 61.8894 14.5408 62.9796 14.5408H63.5567C64.2968 14.5408 64.9666 14.979 65.263 15.6571L65.7573 16.7878C66.4535 18.3804 68.8316 17.8834 68.8316 16.1452C68.8316 15.2591 69.5499 14.5409 70.4359 14.5409H71.383C72.0646 14.5409 72.6974 14.8942 73.055 15.4744L73.8977 16.8415C74.6957 18.1363 76.6911 17.5707 76.6911 16.0498V15.7679C76.6911 15.0902 77.2405 14.5409 77.9181 14.5409C78.5958 14.5409 79.1451 15.0902 79.1451 15.7679V22.1725ZM62.9265 20.1271C63.7116 20.1271 64.2421 19.326 63.9357 18.6031C63.5575 17.7111 62.2928 17.7123 61.9164 18.6051C61.6118 19.3277 62.1423 20.1271 62.9265 20.1271ZM85.25 40.0177C85.2502 40.0178 85.2503 40.0181 85.2501 40.0183C84.6682 40.8509 83.5343 41.2731 81.9992 41.2731H78.4244C77.8433 41.2731 77.3723 40.8021 77.3723 40.221C77.3723 39.6399 77.8433 39.1688 78.4244 39.1688H81.9804C82.4375 39.1688 82.7573 39.1099 82.95 38.9258C83.132 38.7612 83.2348 38.5289 83.2333 38.2859C83.2333 37.9999 83.117 37.7729 82.9406 37.6369C82.7667 37.487 82.5137 37.4191 82.0963 37.4191C79.8468 37.3442 77.0402 37.487 77.0402 34.3816C77.0402 32.9584 77.9633 31.4601 80.4776 31.4601H84.2738C84.8129 31.4601 85.25 31.0231 85.25 30.4839C85.25 29.9448 84.8129 29.5078 84.2738 29.5078H80.8157C79.7476 29.5078 78.9125 29.7078 78.2689 30.0365C78.0715 30.1373 77.8172 30.0026 77.8172 29.7809C77.8172 29.63 77.6948 29.5077 77.544 29.5077H71.2587C70.4366 29.5077 69.5027 29.664 68.857 29.9948C68.6683 30.0915 68.3964 29.9617 68.3964 29.7497C68.3964 29.616 68.2881 29.5077 68.1544 29.5077H56.958C56.8069 29.5077 56.6845 29.6301 56.6845 29.7812C56.6845 30.0029 56.428 30.1409 56.2273 30.0466C55.3001 29.6112 54.071 29.5077 53.4537 29.5077H45.9695C45.8364 29.5077 45.7286 29.6156 45.7286 29.7486C45.7286 29.9602 45.4564 30.0896 45.2673 29.9946C44.4374 29.5774 43.1766 29.5077 42.3516 29.5077H34.5203C34.0004 29.5077 33.5035 29.7219 33.1467 30.1L33.0877 30.1624C32.3572 30.9364 31.1198 30.9163 30.4148 30.1189C30.0711 29.7302 29.5772 29.5077 29.0584 29.5077H23.805C20.0238 29.5077 16.9586 32.5729 16.9586 36.3541C16.9586 40.1352 20.0238 43.2004 23.805 43.2004H28.7931C29.328 43.2004 29.8397 42.9819 30.2097 42.5956L30.2656 42.5372C31.0236 41.7456 32.2944 41.7645 33.0285 42.5783C33.3858 42.9744 33.894 43.2007 34.4274 43.2012L39.7895 43.2059C40.6792 43.2066 41.4008 42.4857 41.4008 41.596V40.7538C41.4008 40.3299 41.7444 39.9862 42.1684 39.9862C42.5407 39.9918 42.937 39.9901 43.342 39.9645C44.3944 39.8978 45.5056 40.6725 45.5056 41.727C45.5056 42.5405 46.1651 43.2 46.9786 43.2H50.1641C51.1496 43.2 51.9485 42.4011 51.9485 41.4155V39.9418C51.9485 39.7702 52.0876 39.6311 52.2592 39.6311C52.6559 39.6311 52.6949 39.6472 52.6949 40.0349C52.6949 41.7827 54.1118 43.1996 55.8596 43.1996H72.267C73.2592 43.1996 74.2874 43.0011 75.0277 42.6334C75.2419 42.527 75.5278 42.6738 75.5278 42.9129C75.5278 43.0712 75.6561 43.1996 75.8144 43.1996H81.7358C82.7383 43.1996 83.7226 43.0928 84.5618 42.833C84.9918 42.6998 85.2492 42.2815 85.2493 41.8315L85.2494 40.0181C85.2494 40.0178 85.2497 40.0176 85.25 40.0177ZM46.4431 34.7509C46.4431 37.4769 44.3652 38.0398 42.271 38.0398H40.9272C40.0183 38.0398 39.2814 38.7766 39.2814 39.6855C39.2814 40.5945 38.5446 41.3313 37.6356 41.3313H35.9004C35.088 41.3313 34.3133 40.9884 33.7671 40.3869C32.6384 39.144 30.6903 39.1253 29.538 40.3464L29.4833 40.4043C28.9249 40.996 28.1474 41.3313 27.3339 41.3313H24.0247C21.3148 41.3313 19.118 39.1345 19.118 36.4246C19.118 33.7147 21.3148 31.5179 24.0247 31.5179H27.4855C28.2939 31.5179 29.0652 31.8572 29.6113 32.4532C30.7413 33.6863 32.6799 33.7024 33.8303 32.4883L33.8777 32.4382C34.4344 31.8506 35.2081 31.5179 36.0175 31.5179H42.4054C44.3067 31.5179 46.4431 32.0331 46.4431 34.7509ZM28.2567 38.3603C27.7063 38.9394 26.9424 39.2672 26.1436 39.2672H22.4802C21.9411 39.2672 21.504 38.8301 21.504 38.291C21.504 37.7518 21.9411 37.3147 22.4802 37.3147H25.763C26.3159 37.3147 26.7641 36.8665 26.7641 36.3136C26.7641 35.7607 26.3159 35.3125 25.763 35.3125H22.3961C21.9034 35.3125 21.504 34.9131 21.504 34.4204C21.504 33.9277 21.9034 33.5283 22.3961 33.5283H26.2679C27.0598 33.5283 27.8154 33.8607 28.3504 34.4446C29.3533 35.539 29.3379 37.2229 28.3152 38.2988L28.2567 38.3603ZM36.8861 36.4105C36.8861 37.8251 35.1488 38.5028 34.1909 37.4619C33.6375 36.8605 33.645 35.9332 34.208 35.3409C35.1741 34.3244 36.8861 35.0081 36.8861 36.4105ZM42.3263 36.0273H40.4797C39.7896 36.0273 39.2301 35.4679 39.2301 34.7778C39.2301 34.0877 39.7896 33.5283 40.4797 33.5283H42.354C43.2191 33.5283 43.8196 33.8734 43.8196 34.7315C43.8196 35.5802 43.2469 36.0273 42.3263 36.0273ZM58.5471 35.5161C58.5472 33.3079 60.3373 31.5179 62.5454 31.5179H65.529C66.0894 31.5179 66.5437 31.9722 66.5437 32.5326C66.5437 33.093 66.0894 33.5474 65.529 33.5474H61.8253C61.3326 33.5474 60.9332 33.9468 60.9332 34.4394C60.9332 34.9321 61.3326 35.3315 61.8253 35.3315H65.4056C65.9585 35.3315 66.4067 35.7797 66.4067 36.3326C66.4067 36.8855 65.9585 37.3337 65.4056 37.3337H61.9102C61.3706 37.3337 60.9332 37.7712 60.9332 38.3107C60.9332 38.8497 61.3697 39.2869 61.9087 39.2877L65.5263 39.2935C66.0884 39.2944 66.5436 39.7503 66.5436 40.3124C66.5436 40.8751 66.0874 41.3313 65.5247 41.3313H62.5454C60.3371 41.3313 58.547 39.5412 58.5471 37.333L58.5471 35.5161ZM56.6103 35.8948C56.3055 36.2953 56.3537 37.1851 56.6464 37.5945C56.9848 38.0738 57.0337 38.521 57.0434 39.3858V40.1285C57.0434 40.7928 56.5049 41.3313 55.8406 41.3313C55.1763 41.3313 54.6378 40.7928 54.6378 40.1285V40.1036C54.6378 39.5131 54.6959 38.639 54.2506 38.1826C53.9006 37.8311 53.3668 37.7471 52.4929 37.7471H51.7244C50.7346 37.7471 49.9323 38.5495 49.9323 39.5393V40.1277C49.9323 40.7925 49.3933 41.3314 48.7285 41.3314C48.0637 41.3314 47.5247 40.7925 47.5247 40.1277V36.4247C47.5247 33.7148 49.7215 31.518 52.4315 31.518H53.0564C54.2693 31.518 55.1527 31.5705 55.9391 31.9811C56.6952 32.4283 57.1709 33.0407 57.1709 34.1603C57.1708 34.9037 56.9304 35.4743 56.6103 35.8948ZM54.1187 35.5302C53.7981 35.7164 53.4019 35.7325 52.9359 35.7325H51.1272C50.5186 35.7325 50.0252 35.2391 50.0252 34.6305C50.0252 34.0219 50.5186 33.5285 51.1272 33.5285H52.9753C53.4019 33.5285 53.8289 33.5374 54.1187 33.7057C54.4292 33.8647 54.6149 34.1688 54.6149 34.5885C54.6149 35.0082 54.4291 35.3464 54.1187 35.5302ZM75.7473 36.1553C76.2142 36.6277 76.4639 37.2244 76.4639 38.2343C76.4639 40.3454 75.1167 41.3309 72.7001 41.3309H69.0858C68.5047 41.3309 68.0336 40.8598 68.0336 40.2787C68.0336 39.6976 68.5047 39.2265 69.0858 39.2265H72.6815C73.136 39.2265 73.4582 39.1679 73.66 38.9836C73.8249 38.8319 73.9431 38.6113 73.9431 38.3437C73.9431 38.0576 73.8152 37.8308 73.6506 37.6946C73.4675 37.545 73.2148 37.4769 72.7975 37.4769C70.5569 37.4021 67.7509 37.545 67.7509 34.4397C67.7509 33.0163 68.6644 31.518 71.1764 31.518H74.9353C75.5121 31.518 75.9797 31.9855 75.9797 32.5623C75.9797 33.1391 75.5121 33.6067 74.9353 33.6067H71.5846C71.149 33.6067 70.8658 33.6229 70.6248 33.7839C70.3624 33.9428 70.2651 34.1787 70.2651 34.4897C70.2651 34.8599 70.4878 35.1119 70.7893 35.2209C71.042 35.3069 71.3136 35.332 71.7215 35.332L73.0113 35.3662C74.3119 35.397 75.2047 35.6173 75.7473 36.1553ZM85.2546 33.5283H80.8879C80.4521 33.5283 80.1622 33.5443 79.9185 33.7055C79.6657 33.8645 79.5684 34.1003 79.5684 34.4117C79.5684 34.7818 79.7817 35.0336 80.0922 35.1426C80.345 35.2287 80.6165 35.2539 81.0154 35.2539L82.3141 35.2878C83.6243 35.3195 84.4988 35.54 85.0322 36.0777C85.1187 36.1442 85.2544 36.0995 85.2544 35.9903V33.5284C85.2544 33.5283 85.2545 33.5283 85.2546 33.5283Z" fill="white"/>
</svg>
