<svg width="86" height="56" viewBox="0 0 86 56" fill="none" xmlns="http://www.w3.org/2000/svg">
<path d="M77.2812 0H8C3.58172 0 0 3.58172 0 8V47.8479C0 52.2662 3.58172 55.8479 8 55.8479H77.2812C81.6995 55.8479 85.2812 52.2662 85.2812 47.8479V8C85.2812 3.58172 81.6995 0 77.2812 0Z" fill="#0E4595"/>
<path d="M35.4514 38.9512C33.674 38.9512 32.322 37.3551 32.6145 35.6019L35.3023 19.4894C35.5337 18.1023 36.7339 17.0857 38.1402 17.0857C39.9183 17.0857 41.2708 18.6826 40.978 20.4365L38.2883 36.5487C38.0568 37.9352 36.8571 38.9512 35.4514 38.9512ZM58.6639 19.3568C58.8386 18.3095 58.2537 17.2683 57.2193 17.0292C56.2419 16.8034 55.0667 16.6387 53.7355 16.6387C47.9709 16.6387 43.9102 19.6042 43.8757 23.8546C43.843 26.9966 46.7746 28.7493 48.9873 29.7952C51.2583 30.8669 52.0216 31.5504 52.0109 32.5075C51.9966 33.9731 50.1975 34.6427 48.5207 34.6427C46.1856 34.6427 44.9451 34.3113 43.0291 33.4949C42.6506 33.32 42.2095 33.5531 42.1407 33.9643L41.7622 36.227C41.5833 37.2963 42.152 38.356 43.2038 38.619C44.5422 38.9538 46.2287 39.1907 47.9572 39.2088C54.0898 39.2088 58.0707 36.2772 58.1161 31.7384C58.1379 29.251 56.5837 27.3581 53.2178 25.7975C51.1787 24.7861 49.9299 24.111 49.9431 23.0869C49.9431 22.178 51.0002 21.206 53.2841 21.206C55.1919 21.1759 56.574 21.6009 57.6507 22.0437C57.912 22.1699 58.2212 22.0098 58.269 21.7236L58.6639 19.3568ZM73.9769 17.0853C73.9769 17.0853 73.9769 17.0853 73.9769 17.0853H69.4688C68.0723 17.0853 67.0272 17.4748 66.4139 18.8986L59.4187 35.0769C58.6299 36.9013 59.9674 38.9368 61.955 38.9368H62.1127C63.1727 38.9368 64.0391 38.497 64.4094 37.5038C64.7765 36.5192 65.7962 35.6516 66.847 35.653C68.0752 35.6547 69.6928 35.657 70.9124 35.6586C71.8859 35.6599 72.7878 36.6181 72.9925 37.5699C73.1996 38.5324 73.9891 38.9368 74.9737 38.9368H76.0857C77.4298 38.9368 78.4308 37.6964 78.1469 36.3826L73.977 17.0853C73.977 17.0852 73.9769 17.0852 73.9769 17.0853ZM67.5532 31.2048C67.2017 31.2048 66.9586 30.8539 67.0838 30.5254C67.4719 29.5072 68.085 27.8938 68.5425 26.6893C68.6065 26.5208 69.6265 23.8092 69.6895 23.6402C69.7413 23.5009 69.9987 23.3706 70.0291 23.5162L70.3162 24.8896C70.3164 24.8904 70.3163 24.8901 70.3165 24.891C70.3204 24.9091 70.8055 27.1752 71.2021 29.0292C71.4418 30.1495 70.5877 31.2048 69.4421 31.2048H67.5532ZM27.1031 17.0853L22.497 29.1104C22.1761 29.9482 20.9594 29.846 20.7828 28.9664C19.3851 24.3748 14.7357 27.2366 16.0002 31.8666L17.0549 35.7283C17.5689 37.6103 19.2796 38.9149 21.2306 38.9127C22.9686 38.9107 24.5364 37.8682 25.2106 36.2663L30.8857 22.781C32.0241 20.076 30.0378 17.0851 27.1031 17.0851" fill="white"/>
<path d="M16.0638 17.0854H6.87746C6.75004 17.0854 6.64138 17.1777 6.6208 17.3035C6.5989 17.4373 6.6846 17.5656 6.8159 17.5993C9.79438 18.3636 12.3561 19.5558 14.4766 21.0599C15.3237 21.6608 18.9156 19.9487 18.7084 18.931C18.3552 17.5465 17.3311 17.1333 16.064 17.085" fill="#F2AE14"/>
</svg>
