<svg width="40" height="40" viewBox="0 0 40 40" fill="none" xmlns="http://www.w3.org/2000/svg">
<circle cx="20" cy="20" r="20" fill="#4E4E57"/>
<path d="M11.9999 30C11.9999 25.5817 15.5816 22 19.9999 22C24.4182 22 27.9999 25.5817 27.9999 30H25.9999C25.9999 26.6863 23.3136 24 19.9999 24C16.6862 24 13.9999 26.6863 13.9999 30H11.9999ZM19.9999 21C16.6849 21 13.9999 18.315 13.9999 15C13.9999 11.685 16.6849 9 19.9999 9C23.3149 9 25.9999 11.685 25.9999 15C25.9999 18.315 23.3149 21 19.9999 21ZM19.9999 19C22.2099 19 23.9999 17.21 23.9999 15C23.9999 12.79 22.2099 11 19.9999 11C17.7899 11 15.9999 12.79 15.9999 15C15.9999 17.21 17.7899 19 19.9999 19Z" fill="currentColor"/>
</svg>
