<svg width="16" height="16" viewBox="0 0 16 16" fill="none" xmlns="http://www.w3.org/2000/svg">
<g clip-path="url(#clip0_569_105164)">
<path d="M8 0C6.41775 0 4.87104 0.469192 3.55544 1.34824C2.23985 2.22729 1.21447 3.47672 0.608967 4.93853C0.00346629 6.40034 -0.15496 8.00887 0.153721 9.56072C0.462403 11.1126 1.22433 12.538 2.34315 13.6569C3.46197 14.7757 4.88743 15.5376 6.43928 15.8463C7.99113 16.155 9.59966 15.9965 11.0615 15.391C12.5233 14.7855 13.7727 13.7602 14.6518 12.4446C15.5308 11.129 16 9.58225 16 8C15.9977 5.87897 15.1541 3.84547 13.6543 2.34568C12.1545 0.845886 10.121 0.00229405 8 0ZM8 14.6667C6.68146 14.6667 5.39253 14.2757 4.2962 13.5431C3.19987 12.8106 2.34539 11.7694 1.84081 10.5512C1.33622 9.33305 1.2042 7.99261 1.46144 6.6994C1.71867 5.40619 2.35361 4.21831 3.28596 3.28596C4.21831 2.35361 5.4062 1.71867 6.6994 1.46143C7.99261 1.2042 9.33305 1.33622 10.5512 1.8408C11.7694 2.34539 12.8106 3.19987 13.5431 4.2962C14.2757 5.39253 14.6667 6.68146 14.6667 8C14.6647 9.76752 13.9617 11.4621 12.7119 12.7119C11.4621 13.9617 9.76752 14.6647 8 14.6667Z" fill="currentColor"/>
<path d="M8.00008 6.66675H7.33341C7.1566 6.66675 6.98703 6.73699 6.86201 6.86201C6.73699 6.98703 6.66675 7.1566 6.66675 7.33341C6.66675 7.51023 6.73699 7.67979 6.86201 7.80482C6.98703 7.92984 7.1566 8.00008 7.33341 8.00008H8.00008V12.0001C8.00008 12.1769 8.07032 12.3465 8.19534 12.4715C8.32037 12.5965 8.48994 12.6667 8.66675 12.6667C8.84356 12.6667 9.01313 12.5965 9.13815 12.4715C9.26318 12.3465 9.33341 12.1769 9.33341 12.0001V8.00008C9.33341 7.64646 9.19294 7.30732 8.94289 7.05727C8.69284 6.80722 8.3537 6.66675 8.00008 6.66675Z" fill="currentColor"/>
<path d="M8 5.33325C8.55228 5.33325 9 4.88554 9 4.33325C9 3.78097 8.55228 3.33325 8 3.33325C7.44772 3.33325 7 3.78097 7 4.33325C7 4.88554 7.44772 5.33325 8 5.33325Z" fill="currentColor"/>
</g>
<defs>
<clipPath id="clip0_569_105164">
<rect width="16" height="16" fill="white"/>
</clipPath>
</defs>
</svg>
