<svg width="16" height="16" viewBox="0 0 16 16" fill="none" xmlns="http://www.w3.org/2000/svg">
<g clip-path="url(#clip0_569_105171)">
<path d="M14.6667 8.05299e-06H13.2187C12.9559 -0.000740267 12.6957 0.0506715 12.4529 0.151263C12.2102 0.251855 11.9899 0.399625 11.8047 0.586008L6.23069 6.15934C5.16353 5.884 4.03545 5.96715 3.0202 6.396C2.00495 6.82484 1.15886 7.57558 0.612244 8.53258C0.0656313 9.48958 -0.151177 10.5998 -0.00478583 11.6921C0.141605 12.7844 0.643076 13.7983 1.42238 14.5776C2.20169 15.357 3.2156 15.8584 4.30794 16.0048C5.40028 16.1512 6.51045 15.9344 7.46745 15.3878C8.42445 14.8412 9.17519 13.9951 9.60403 12.9798C10.0329 11.9646 10.116 10.8365 9.84069 9.76934L10.6667 8.94334V7.33334H12.6667V5.33334H14.276L15.414 4.19534C15.6003 4.00996 15.7481 3.78949 15.8486 3.54667C15.9492 3.30385 16.0007 3.0435 16 2.78067V1.33334C16 0.979719 15.8595 0.640581 15.6095 0.390532C15.3594 0.140484 15.0203 8.05299e-06 14.6667 8.05299e-06ZM14.6667 2.78067C14.6668 2.86833 14.6495 2.95513 14.616 3.03613C14.5825 3.11712 14.5333 3.1907 14.4714 3.25267L13.724 4.00001H11.3334V6.00001H9.33335V8.39001L8.30335 9.42001C8.53792 9.91399 8.66191 10.4532 8.66669 11C8.66669 11.7252 8.45164 12.4341 8.04874 13.0371C7.64584 13.6401 7.07319 14.11 6.40319 14.3876C5.7332 14.6651 4.99595 14.7377 4.28469 14.5962C3.57343 14.4547 2.92009 14.1055 2.40729 13.5927C1.8945 13.0799 1.54529 12.4266 1.40381 11.7153C1.26233 11.0041 1.33494 10.2668 1.61246 9.59684C1.88998 8.92684 2.35995 8.35419 2.96293 7.95129C3.56591 7.54839 4.27482 7.33334 5.00002 7.33334C5.55059 7.29735 6.09964 7.42343 6.57935 7.69601L12.7474 1.52867C12.8727 1.4042 13.042 1.33403 13.2187 1.33334H14.6667V2.78067ZM3.33335 12C3.33335 12.1319 3.37245 12.2608 3.44571 12.3704C3.51896 12.48 3.62308 12.5655 3.7449 12.6159C3.86672 12.6664 4.00076 12.6796 4.13008 12.6539C4.2594 12.6281 4.37819 12.5646 4.47142 12.4714C4.56466 12.3782 4.62815 12.2594 4.65388 12.1301C4.6796 12.0007 4.6664 11.8667 4.61594 11.7449C4.56548 11.6231 4.48003 11.5189 4.3704 11.4457C4.26077 11.3724 4.13187 11.3333 4.00002 11.3333C3.82321 11.3333 3.65364 11.4036 3.52862 11.5286C3.40359 11.6536 3.33335 11.8232 3.33335 12Z" fill="currentColor"/>
</g>
<defs>
<clipPath id="clip0_569_105171">
<rect width="16" height="16" fill="white"/>
</clipPath>
</defs>
</svg>
