<svg width="91" height="91" viewBox="0 0 91 91" fill="none" xmlns="http://www.w3.org/2000/svg">
<g clip-path="url(#clip0_634_94300)">
<path d="M18.7422 48.0792H64.6323V70.7241H18.7422V48.0792Z" fill="#F0C020"/>
<path d="M61.0366 59.4017C61.0366 60.773 59.9211 61.8885 58.5497 61.8885H24.8251C23.4538 61.8885 22.3382 60.773 22.3382 59.4017H61.0366ZM18.7422 48.0792H64.6323V50.5661H18.7422V48.0792Z" fill="#E8A61E"/>
<path d="M63.7654 19.8495V32.9909H19.609V19.8495C19.609 18.8689 20.4048 18.0731 21.3854 18.0731H61.9891C62.9696 18.0731 63.7654 18.8689 63.7654 19.8495Z" fill="#F0C020"/>
<path d="M61.4348 30.504V18.0731H21.9396V30.504H19.609V32.9909H63.7654V30.504H61.4348Z" fill="#E8A61E"/>
<path d="M58.948 6.70811V32.9909H24.4265V6.70811C24.4265 5.72757 25.2223 4.93176 26.2029 4.93176H57.1717C58.1522 4.93176 58.948 5.72757 58.948 6.70811Z" fill="#EFEFEF"/>
<path d="M24.4265 30.504H58.948V32.9909H24.4265V30.504Z" fill="#AFAFAF"/>
<path d="M83.76 36.5435V48.0791H6.8407V36.5435C6.8407 34.5789 8.42875 32.9908 10.3934 32.9908H80.2073C82.1684 32.9908 83.76 34.5789 83.76 36.5435Z" fill="#72C2E9"/>
<path d="M21.2291 43.8373V48.0792H6.8407V39.5741H16.9659C19.3177 39.5741 21.2291 41.4854 21.2291 43.8373ZM83.76 39.5741V48.0792H62.1454V43.8373C62.1454 41.4854 64.0568 39.5741 66.4087 39.5741H83.76Z" fill="#4BA5C8"/>
<path d="M1.74292 43.8369V68.9477C1.74292 69.4188 1.93007 69.8706 2.2632 70.2037C2.59633 70.5369 3.04815 70.724 3.51927 70.724H18.7422V43.8369C18.7422 43.3658 18.555 42.914 18.2219 42.5808C17.8888 42.2477 17.437 42.0605 16.9658 42.0605H3.51927C3.04815 42.0605 2.59633 42.2477 2.2632 42.5808C1.93007 42.914 1.74292 43.3658 1.74292 43.8369ZM64.633 43.8369V70.724H87.4264C87.8975 70.724 88.3493 70.5369 88.6824 70.2037C89.0156 69.8706 89.2027 69.4188 89.2027 68.9477V43.8369C89.2027 43.3658 89.0156 42.914 88.6824 42.5808C88.3493 42.2477 87.8975 42.0605 87.4264 42.0605H66.4094C65.9383 42.0605 65.4864 42.2477 65.1533 42.5808C64.8202 42.914 64.633 43.3658 64.633 43.8369Z" fill="#EFEFEF"/>
<path d="M83.9248 47.5256H69.9105C69.6279 47.5256 69.3568 47.6379 69.1569 47.8378C68.957 48.0377 68.8447 48.3088 68.8447 48.5914V52.5673H84.9906V48.5914C84.9906 48.3088 84.8784 48.0377 84.6785 47.8378C84.4786 47.6379 84.2075 47.5256 83.9248 47.5256Z" fill="#878787"/>
<path d="M68.8447 52.5676V64.1931C68.8447 64.4758 68.957 64.7469 69.1569 64.9467C69.3568 65.1466 69.6279 65.2589 69.9105 65.2589H74.2267V52.5676H68.8447Z" fill="#72C2E9"/>
<path d="M74.2267 52.5676H79.6087V65.2589H74.2267V52.5676Z" fill="#FC5D3D"/>
<path d="M79.6086 52.5676V65.2589H83.9248C84.2075 65.2589 84.4786 65.1466 84.6784 64.9467C84.8783 64.7469 84.9906 64.4758 84.9906 64.1931V52.5676H79.6086Z" fill="#F0C020"/>
<path d="M11.8673 47.5256H8.61695C8.33429 47.5256 8.06319 47.6379 7.86332 47.8378C7.66344 48.0377 7.55115 48.3088 7.55115 48.5914V64.1931C7.55115 64.4758 7.66344 64.7469 7.86332 64.9467C8.06319 65.1466 8.33429 65.2589 8.61695 65.2589H11.8673C12.15 65.2589 12.4211 65.1466 12.621 64.9467C12.8208 64.7469 12.9331 64.4758 12.9331 64.1931V48.5914C12.9331 48.3088 12.8208 48.0377 12.621 47.8378C12.4211 47.6379 12.15 47.5256 11.8673 47.5256Z" fill="#878787"/>
<path d="M58.948 59.4016V84.2918C58.948 85.2723 58.1522 86.0681 57.1717 86.0681H26.2029C25.2223 86.0681 24.4265 85.2723 24.4265 84.2918V59.4016H58.948Z" fill="#EFEFEF"/>
<path d="M24.4265 59.4016H58.948V61.8885H24.4265V59.4016Z" fill="#AFAFAF"/>
<path d="M41.689 59.4016H55.3952V82.5154H41.689V59.4016Z" fill="#FC5D3D"/>
<path d="M41.689 59.4016H55.3952V61.8885H41.689V59.4016Z" fill="#B25035"/>
<path d="M34.2795 59.4009C34.2795 63.4922 37.596 66.8086 41.6873 66.8086C45.7785 66.8086 49.095 63.4922 49.095 59.4009H34.2795Z" fill="#F0C020"/>
<path d="M49.0963 59.4016C49.0963 60.272 48.9436 61.1105 48.6665 61.8885H41.689V59.4016H49.0963Z" fill="#E8A61E"/>
<path d="M27.9791 59.4016H41.689V82.5154H27.9791V59.4016Z" fill="#72C2E9"/>
<path d="M27.9791 59.4016H41.689V61.8885H27.9791V59.4016Z" fill="#4BA5C8"/>
<path d="M10.3652 13.368C11.69 12.9317 12.7246 12.6496 13.4173 9.66572C13.6429 8.69335 15.0331 8.69584 15.258 9.66572C15.9355 12.5836 16.8802 12.8958 18.3101 13.3683C19.1713 13.6529 19.1734 14.8775 18.3101 15.1628C15.9348 15.9476 15.6655 17.1083 15.258 18.8651C15.0317 19.8396 13.6433 19.8392 13.417 18.8651C12.7402 15.9476 11.744 15.6183 10.3649 15.1628C9.50406 14.8779 9.50192 13.6533 10.3652 13.368Z" fill="black"/>
<path d="M12.9221 14.2757C13.4444 14.6417 13.9133 15.1355 14.3183 15.8496C14.6523 15.2882 15.1177 14.7553 15.7998 14.2864C15.2491 13.9098 14.7553 13.3982 14.3325 12.6379C13.9062 13.4053 13.423 13.9169 12.9221 14.2757Z" fill="#F0C020"/>
<path d="M65.0643 13.368C66.3891 12.9317 67.4237 12.6496 68.1164 9.66572C68.342 8.69335 69.7322 8.69584 69.9571 9.66572C70.6346 12.5836 71.5792 12.8958 73.0092 13.3683C73.8704 13.6529 73.8725 14.8775 73.0092 15.1628C70.6339 15.9476 70.3646 17.1083 69.9571 18.8651C69.7308 19.8396 68.3424 19.8392 68.1161 18.8651C67.4393 15.9476 66.4431 15.6183 65.064 15.1628C64.2031 14.8779 64.2014 13.6533 65.0643 13.368Z" fill="black"/>
<path d="M67.6212 14.2757C68.1435 14.6417 68.6124 15.1355 69.0174 15.8496C69.3514 15.2882 69.8168 14.7553 70.4989 14.2864C69.9482 13.9098 69.4544 13.3982 69.0316 12.6379C68.6053 13.4053 68.1221 13.9169 67.6212 14.2757Z" fill="#F0C020"/>
<path d="M55.3952 9.37266H32.5976C32.3621 9.37266 32.1361 9.27908 31.9696 9.11252C31.803 8.94595 31.7094 8.72004 31.7094 8.48449C31.7094 8.24893 31.803 8.02302 31.9696 7.85645C32.1361 7.68989 32.3621 7.59631 32.5976 7.59631H55.3952C55.6308 7.59631 55.8567 7.68989 56.0233 7.85645C56.1898 8.02302 56.2834 8.24893 56.2834 8.48449C56.2834 8.72004 56.1898 8.94595 56.0233 9.11252C55.8567 9.27908 55.6308 9.37266 55.3952 9.37266ZM29.0449 9.37266H27.9791C27.7436 9.37266 27.5176 9.27908 27.3511 9.11252C27.1845 8.94595 27.0909 8.72004 27.0909 8.48449C27.0909 8.24893 27.1845 8.02302 27.3511 7.85645C27.5176 7.68989 27.7436 7.59631 27.9791 7.59631H29.0449C29.2805 7.59631 29.5064 7.68989 29.673 7.85645C29.8395 8.02302 29.9331 8.24893 29.9331 8.48449C29.9331 8.72004 29.8395 8.94595 29.673 9.11252C29.5064 9.27908 29.2805 9.37266 29.0449 9.37266Z" fill="white"/>
<path d="M77.3637 37.4317H17.8551C17.6195 37.4317 17.3936 37.3382 17.227 37.1716C17.0605 37.005 16.9669 36.7791 16.9669 36.5436C16.9669 36.308 17.0605 36.0821 17.227 35.9155C17.3936 35.749 17.6195 35.6554 17.8551 35.6554H77.3634C77.5989 35.6553 77.8248 35.7489 77.9914 35.9154C78.158 36.0819 78.2517 36.3078 78.2517 36.5434C78.2518 36.7789 78.1582 37.0049 77.9917 37.1715C77.8252 37.3381 77.5993 37.4317 77.3637 37.4317ZM14.3024 37.4317H13.2366C13.001 37.4317 12.7751 37.3382 12.6085 37.1716C12.442 37.005 12.3484 36.7791 12.3484 36.5436C12.3484 36.308 12.442 36.0821 12.6085 35.9155C12.7751 35.749 13.001 35.6554 13.2366 35.6554H14.3024C14.5379 35.6554 14.7638 35.749 14.9304 35.9155C15.097 36.0821 15.1905 36.308 15.1905 36.5436C15.1905 36.7791 15.097 37.005 14.9304 37.1716C14.7638 37.3382 14.5379 37.4317 14.3024 37.4317Z" fill="#C5E5FE"/>
<path d="M42.5488 33.8791C43.0393 33.8791 43.437 33.4815 43.437 32.991C43.437 32.5004 43.0393 32.1028 42.5488 32.1028C42.0583 32.1028 41.6606 32.5004 41.6606 32.991C41.6606 33.4815 42.0583 33.8791 42.5488 33.8791Z" fill="black"/>
<path d="M1.74254 59.6467C2.23307 59.6467 2.63072 59.2491 2.63072 58.7585C2.63072 58.268 2.23307 57.8704 1.74254 57.8704C1.25202 57.8704 0.85437 58.268 0.85437 58.7585C0.85437 59.2491 1.25202 59.6467 1.74254 59.6467Z" fill="black"/>
<path d="M87.4264 41.1724H84.6482V36.5436C84.6482 34.0947 82.6562 32.1027 80.2073 32.1027H64.6536V19.8495C64.6536 18.3801 63.4585 17.185 61.9891 17.185H59.8351V6.70773C59.8351 5.23834 58.64 4.04321 57.1706 4.04321H26.2039C24.7345 4.04321 23.5394 5.23834 23.5394 6.70773V17.185H21.3854C19.916 17.185 18.7209 18.3801 18.7209 19.8495V32.1027H10.3933C7.94448 32.1027 5.95248 34.0947 5.95248 36.5436V41.1724H3.51889C2.0399 41.1724 0.85437 42.3778 0.85437 43.8369V55.2055C0.85437 55.4411 0.947945 55.667 1.11451 55.8336C1.28107 56.0001 1.50698 56.0937 1.74254 56.0937C1.9781 56.0937 2.20401 56.0001 2.37058 55.8336C2.53714 55.667 2.63072 55.4411 2.63072 55.2055V43.8383C2.63062 43.6026 2.72411 43.3764 2.89064 43.2096C3.05718 43.0427 3.28314 42.9488 3.51889 42.9484H16.9655C17.455 42.9484 17.8536 43.347 17.8536 43.8366V69.8359H3.51889C3.28311 69.8356 3.05709 69.7417 2.89054 69.5748C2.72399 69.4079 2.63053 69.1817 2.63072 68.9459V62.3113C2.63072 62.0757 2.53714 61.8498 2.37058 61.6832C2.20401 61.5167 1.9781 61.4231 1.74254 61.4231C1.50698 61.4231 1.28107 61.5167 1.11451 61.6832C0.947945 61.8498 0.85437 62.0757 0.85437 62.3113V68.9477C0.85437 70.4093 2.0431 71.6122 3.51889 71.6122H23.5394V84.2921C23.5394 85.7615 24.7345 86.9566 26.2039 86.9566H57.1709C58.6403 86.9566 59.8354 85.7615 59.8354 84.2921V71.6122H87.4264C88.8958 71.6122 90.0909 70.4171 90.0909 68.9477V43.8369C90.0909 42.3679 88.8958 41.1724 87.4264 41.1724ZM61.9891 18.9613C62.479 18.9613 62.8773 19.3599 62.8773 19.8495V32.1027H59.8351V18.9613H61.9891ZM20.4972 19.8495C20.4972 19.3599 20.8958 18.9613 21.3854 18.9613H23.5394V32.1027H20.4972V19.8495ZM16.9655 41.1724H7.72883V36.5436C7.72883 35.0742 8.92395 33.8791 10.3933 33.8791H38.9961C39.2316 33.8791 39.4575 33.7855 39.6241 33.6189C39.7907 33.4524 39.8842 33.2265 39.8842 32.9909C39.8842 32.7553 39.7907 32.5294 39.6241 32.3629C39.4575 32.1963 39.2316 32.1027 38.9961 32.1027H25.3157V6.70773C25.3157 6.21817 25.7143 5.81956 26.2039 5.81956H57.1709C57.6608 5.81956 58.0591 6.21817 58.0591 6.70773V32.1027H46.1015C45.8659 32.1027 45.64 32.1963 45.4734 32.3629C45.3069 32.5294 45.2133 32.7553 45.2133 32.9909C45.2133 33.2265 45.3069 33.4524 45.4734 33.6189C45.64 33.7855 45.8659 33.8791 46.1015 33.8791H80.2073C81.6767 33.8791 82.8718 35.0742 82.8718 36.5436V41.1724H66.4093C64.94 41.1724 63.7448 42.3675 63.7448 43.8369V47.1892H19.63V43.8369C19.63 42.3679 18.4349 41.1724 16.9655 41.1724ZM57.1709 85.1803H26.2039C25.9684 85.18 25.7427 85.0863 25.5762 84.9198C25.4097 84.7533 25.316 84.5276 25.3157 84.2921V60.2887H27.0921V82.5158C27.0921 82.7513 27.1856 82.9772 27.3522 83.1438C27.5188 83.3104 27.7447 83.4039 27.9802 83.4039H55.3946C55.6302 83.4038 55.8561 83.3101 56.0228 83.1435C56.1894 82.9769 56.2832 82.751 56.2835 82.5154V76.8098C56.2835 76.5742 56.1899 76.3483 56.0233 76.1818C55.8568 76.0152 55.6308 75.9216 55.3953 75.9216C55.1597 75.9216 54.9338 76.0152 54.7673 76.1818C54.6007 76.3483 54.5071 76.5742 54.5071 76.8098V81.628H42.5758V67.6488C46.4418 67.2353 49.522 64.1555 49.9355 60.2891H54.5075V69.7044C54.5075 69.94 54.6011 70.1659 54.7676 70.3324C54.9342 70.499 55.1601 70.5926 55.3956 70.5926C55.6312 70.5926 55.8571 70.499 56.0237 70.3324C56.1902 70.1659 56.2838 69.94 56.2838 69.7044V60.2891H58.0595V84.2925C58.0591 84.5279 57.9653 84.7537 57.7988 84.9201C57.6322 85.0865 57.4064 85.1801 57.1709 85.1803ZM40.7991 60.2887V81.6276H28.8684V60.2887H40.7991ZM48.1393 60.2887C47.7435 63.1724 45.4595 65.4568 42.5758 65.8522V60.2887H48.1393ZM59.8354 60.2887H61.0366C61.2722 60.2887 61.4981 60.1951 61.6646 60.0286C61.8312 59.862 61.9248 59.6361 61.9248 59.4005C61.9248 59.165 61.8312 58.9391 61.6646 58.7725C61.4981 58.6059 61.2722 58.5124 61.0366 58.5124H22.3382C22.1026 58.5124 21.8767 58.6059 21.7102 58.7725C21.5436 58.9391 21.45 59.165 21.45 59.4005C21.45 59.6361 21.5436 59.862 21.7102 60.0286C21.8767 60.1951 22.1026 60.2887 22.3382 60.2887H23.5394V69.8359H19.63V48.9656H63.7448V69.8359H59.8354V60.2887ZM88.3145 68.9477C88.3145 69.4372 87.9163 69.8359 87.4264 69.8359H65.5212V43.8369C65.5212 43.3474 65.9194 42.9487 66.4093 42.9487H87.4264C87.9163 42.9487 88.3145 43.3474 88.3145 43.8369V68.9477Z" fill="black"/>
<path d="M55.3953 74.1452C55.8858 74.1452 56.2834 73.7476 56.2834 73.2571C56.2834 72.7665 55.8858 72.3689 55.3953 72.3689C54.9047 72.3689 54.5071 72.7665 54.5071 73.2571C54.5071 73.7476 54.9047 74.1452 55.3953 74.1452Z" fill="black"/>
<path d="M35.7425 67.6954C35.9103 67.8557 36.1342 67.9439 36.3663 67.9412C36.5984 67.9385 36.8202 67.8452 36.9843 67.681C37.1484 67.5169 37.2418 67.2951 37.2445 67.0631C37.2472 66.831 37.159 66.6071 36.9987 66.4392C36.9452 66.3858 36.9028 66.3224 36.8738 66.2526C36.8449 66.1828 36.83 66.108 36.83 66.0324C36.83 65.9569 36.8449 65.882 36.8738 65.8122C36.9028 65.7424 36.9452 65.679 36.9987 65.6256C37.4391 65.1843 37.6865 64.5863 37.6865 63.9628C37.6865 63.3393 37.4391 62.7413 36.9987 62.3C36.9162 62.2175 36.8183 62.152 36.7105 62.1074C36.6027 62.0628 36.4872 62.0398 36.3706 62.0398C36.2539 62.0398 36.1384 62.0628 36.0306 62.1074C35.9229 62.152 35.8249 62.2175 35.7425 62.3C35.66 62.3824 35.5945 62.4804 35.5499 62.5881C35.5053 62.6959 35.4823 62.8114 35.4823 62.9281C35.4823 63.0447 35.5053 63.1602 35.5499 63.268C35.5945 63.3758 35.66 63.4737 35.7425 63.5562C35.8502 63.6642 35.9107 63.8106 35.9107 63.9631C35.9107 64.1157 35.8502 64.2621 35.7425 64.3701C35.5239 64.5883 35.3505 64.8475 35.2322 65.1328C35.1138 65.4181 35.0529 65.7239 35.0529 66.0328C35.0529 66.3416 35.1138 66.6474 35.2322 66.9327C35.3505 67.218 35.5239 67.4772 35.7425 67.6954ZM32.3773 75.3426C32.1588 75.5609 31.9854 75.8201 31.8671 76.1054C31.7488 76.3907 31.688 76.6966 31.688 77.0054C31.688 77.3143 31.7488 77.6201 31.8671 77.9055C31.9854 78.1908 32.1588 78.45 32.3773 78.6683C32.5452 78.8285 32.7691 78.9168 33.0012 78.9141C33.2333 78.9114 33.4551 78.818 33.6192 78.6539C33.7833 78.4898 33.8767 78.268 33.8794 78.0359C33.8821 77.8038 33.7938 77.5799 33.6336 77.412C33.5801 77.3586 33.5378 77.2952 33.5088 77.2254C33.4799 77.1556 33.465 77.0808 33.465 77.0053C33.465 76.9297 33.4799 76.8549 33.5088 76.7851C33.5378 76.7153 33.5801 76.6519 33.6336 76.5985C33.8521 76.3802 34.0255 76.121 34.1438 75.8357C34.2621 75.5504 34.323 75.2445 34.323 74.9356C34.323 74.6268 34.2621 74.3209 34.1438 74.0356C34.0255 73.7503 33.8521 73.4911 33.6336 73.2728C33.5512 73.1903 33.4533 73.1248 33.3455 73.0801C33.2378 73.0355 33.1223 73.0125 33.0056 73.0125C32.889 73.0125 32.7735 73.0355 32.6658 73.0801C32.558 73.1248 32.4601 73.1903 32.3777 73.2728C32.2952 73.3552 32.2297 73.4531 32.185 73.5609C32.1404 73.6686 32.1174 73.7841 32.1174 73.9007C32.1174 74.0174 32.1404 74.1329 32.185 74.2406C32.2297 74.3484 32.2952 74.4463 32.3777 74.5287C32.4855 74.6367 32.546 74.7831 32.5459 74.9357C32.5459 75.0883 32.4852 75.2347 32.3773 75.3426ZM35.5815 41.4219H47.7935C48.0291 41.4219 48.255 41.3283 48.4216 41.1617C48.5881 40.9951 48.6817 40.7692 48.6817 40.5337C48.6817 40.2981 48.5881 40.0722 48.4216 39.9056C48.255 39.7391 48.0291 39.6455 47.7935 39.6455H35.5815C35.346 39.6455 35.1201 39.7391 34.9535 39.9056C34.7869 40.0722 34.6933 40.2981 34.6933 40.5337C34.6933 40.7692 34.7869 40.9951 34.9535 41.1617C35.1201 41.3283 35.346 41.4219 35.5815 41.4219ZM83.9251 46.6376H69.9108C69.3928 46.6381 68.8961 46.8442 68.5298 47.2105C68.1635 47.5768 67.9574 48.0735 67.9568 48.5915V64.1932C67.9568 65.2707 68.8336 66.1472 69.9108 66.1472H83.9251C85.0023 66.1472 85.8791 65.2707 85.8791 64.1932V48.5915C85.8791 47.514 85.0023 46.6376 83.9251 46.6376ZM84.1028 48.5915V51.6792H80.4971V48.4139H83.9251C83.9722 48.4139 84.0174 48.4326 84.0507 48.4659C84.084 48.4992 84.1028 48.5444 84.1028 48.5915ZM78.7204 51.6795H75.1152V48.4143H78.7204V51.6795ZM69.7328 48.5915C69.7328 48.5444 69.7515 48.4992 69.7849 48.4659C69.8182 48.4326 69.8634 48.4139 69.9105 48.4139H73.3385V51.6792H69.7328V48.5915ZM69.7328 64.1932V53.4555H73.3385V64.3708H69.9105C69.8634 64.3708 69.8182 64.3521 69.7849 64.3188C69.7515 64.2855 69.7328 64.2403 69.7328 64.1932ZM75.1152 53.4559H78.7204V64.3712H75.1152V53.4559ZM83.9251 64.3708H80.4971V53.4555H84.1028V64.1932C84.1028 64.2403 84.084 64.2855 84.0507 64.3188C84.0174 64.3521 83.9722 64.3708 83.9251 64.3708ZM11.8673 66.1472C12.9448 66.1472 13.8213 65.2707 13.8213 64.1932V48.5915C13.8213 47.514 12.9448 46.6376 11.8673 46.6376H8.61694C8.09889 46.6381 7.60221 46.8442 7.23589 47.2105C6.86957 47.5768 6.66353 48.0735 6.66296 48.5915V64.1932C6.66296 65.2707 7.53941 66.1472 8.61694 66.1472H11.8673ZM8.61694 48.4139H11.8673C11.9144 48.4139 11.9596 48.4326 11.9929 48.4659C12.0262 48.4992 12.0449 48.5444 12.0449 48.5915V51.6792H8.43931V48.5915C8.43931 48.5444 8.45802 48.4992 8.49134 48.4659C8.52465 48.4326 8.56983 48.4139 8.61694 48.4139ZM8.43931 64.1932V53.4555H12.0449V64.1932C12.0449 64.2403 12.0262 64.2855 11.9929 64.3188C11.9596 64.3521 11.9144 64.3708 11.8673 64.3708H8.61694C8.56983 64.3708 8.52465 64.3521 8.49134 64.3188C8.45802 64.2855 8.43931 64.2403 8.43931 64.1932Z" fill="black"/>
</g>
<defs>
<clipPath id="clip0_634_94300">
<rect width="90.9489" height="90.9489" fill="white" transform="translate(-0.00183105 0.0255127)"/>
</clipPath>
</defs>
</svg>
