<svg width="83" height="83" viewBox="0 0 83 83" fill="none" xmlns="http://www.w3.org/2000/svg">
<g clip-path="url(#clip0_634_94344)">
<path d="M8.98132 1.3269H50.4086V40.1649H8.98132V1.3269Z" fill="#FFDE7C"/>
<path d="M8.98136 1.3269H15.4544V40.1649H8.9812L8.98136 1.3269Z" fill="#FFC824"/>
<path d="M33.5787 11.6836L29.6949 10.3892L25.811 11.6836V1.3269H33.5787V11.6836Z" fill="#FFBD85"/>
<path d="M14.1597 18.1569H29.6949V23.3351H14.1597V18.1569Z" fill="#F0EFEF"/>
<path d="M49.1139 37.5759C46.5247 37.5759 42.6408 40.165 42.6408 40.165H36.1681L29.6949 34.9866H38.7572V32.3973C38.7572 30.9677 37.5977 29.8082 36.1681 29.8082H24.5167L19.3382 34.9864H1.2135V44.0489H19.338L34.8733 46.638L43.9356 44.0489L51.703 40.165C51.703 40.165 51.703 37.5759 49.1139 37.5759Z" fill="#FFE9D6"/>
<path d="M38.757 32.3973H30.9894L30.9559 34.9866H38.757V32.3973ZM50.7262 38.0639L43.9356 41.4596L34.8733 44.0489L19.338 41.4596H1.2135V44.0489H19.338L34.8733 46.638L43.9356 44.0489L51.703 40.165C51.703 40.165 51.7026 38.8142 50.7262 38.0639Z" fill="#FFD3AE"/>
<path d="M1.21362 46.638V33.692H15.4543V46.638H1.21362Z" fill="#FF8660"/>
<path d="M1.21362 42.7543H15.4543V46.638H1.21362V42.7543Z" fill="#FF6838"/>
<path d="M59.4708 62.3716H52.9977C52.9977 62.3716 49.1139 59.7823 46.5247 59.7823C43.9354 59.7823 43.9355 62.3716 43.9355 62.3716L51.703 66.2554L60.0719 68.6464L59.7049 62.1839L59.4708 62.3716Z" fill="#FFD3AE"/>
<path d="M75.006 59.5842L69.8276 54.4056H58.1762C56.7458 54.4056 55.587 55.5651 55.587 56.9949V59.584H63.3546L51.7032 64.7625H45.2301C45.2301 64.7625 41.3463 62.1733 38.7571 62.1733C36.1678 62.1733 36.168 64.7625 36.168 64.7625L43.9356 68.6463L52.9977 71.2355L68.533 68.6463H81.479V59.5842H75.006Z" fill="#FFE9D6"/>
<path d="M55.587 56.9949H63.3546V59.584H55.587V56.9949ZM52.9977 68.6462L43.9356 66.057L37.1443 62.6615C36.1687 63.4116 36.1678 64.7625 36.1678 64.7625L43.9356 68.6462L52.9977 71.2355L68.533 68.6462H81.479V66.057H68.533L52.9977 68.6462Z" fill="#FFD3AE"/>
<path d="M14.1597 16.9431C13.8378 16.9431 13.5291 17.071 13.3015 17.2986C13.0739 17.5262 12.946 17.8349 12.9459 18.1568V23.3353C12.946 23.6572 13.0739 23.9659 13.3015 24.1935C13.5291 24.4211 13.8378 24.5489 14.1597 24.5489H29.695C30.0169 24.5489 30.3255 24.421 30.5531 24.1934C30.7807 23.9658 30.9086 23.6571 30.9086 23.3353V18.1568C30.9086 17.8349 30.7807 17.5262 30.5531 17.2986C30.3255 17.071 30.0169 16.9432 29.695 16.9431H14.1597ZM28.4812 22.1213H15.3735V19.3706H28.4812V22.1213Z" fill="black"/>
<path d="M34.6738 47.8354C34.8516 47.8648 35.0336 47.8545 35.2068 47.805L44.2689 45.2158C44.3411 45.1949 44.4113 45.1676 44.4786 45.1343L52.2463 41.2506C52.4478 41.1497 52.6173 40.9947 52.7357 40.803C52.8541 40.6113 52.9169 40.3903 52.9169 40.165C52.9169 39.236 52.5418 38.0324 51.6224 37.2304V14.8666C51.6224 14.7072 51.5911 14.5493 51.5301 14.402C51.4691 14.2547 51.3797 14.1209 51.267 14.0082C51.1543 13.8955 51.0205 13.806 50.8732 13.7451C50.7259 13.6841 50.568 13.6527 50.4086 13.6528C50.0867 13.6528 49.7779 13.7807 49.5503 14.0083C49.3227 14.236 49.1948 14.5447 49.1948 14.8666V36.3638C49.1676 36.3638 49.1418 36.3621 49.1139 36.3621C46.6016 36.3621 43.3476 38.2786 42.2829 38.9512H36.5936L33.155 36.2004H38.757C39.079 36.2004 39.3877 36.0725 39.6153 35.8449C39.843 35.6173 39.9709 35.3085 39.9709 34.9866V32.3973C39.9709 30.3002 38.2645 28.5944 36.1679 28.5944H24.5166C24.1944 28.5944 23.8856 28.722 23.6581 28.9501L18.8354 33.7728H16.6681V33.692C16.6681 33.37 16.5402 33.0613 16.3126 32.8337C16.085 32.6061 15.7762 32.4782 15.4543 32.4782H10.1949V2.5406H24.5972V11.6837C24.5972 12.4977 25.4214 13.0926 26.195 12.8349L29.6949 11.6687L33.1947 12.8349C33.9683 13.0926 34.7925 12.4977 34.7925 11.6839V2.5406H49.1948V9.04076C49.1948 9.20013 49.2262 9.35793 49.2872 9.50516C49.3482 9.65239 49.4376 9.78615 49.5503 9.89881C49.6631 10.0115 49.7969 10.1008 49.9441 10.1617C50.0914 10.2227 50.2492 10.254 50.4086 10.2539C50.5679 10.254 50.7257 10.2226 50.873 10.1617C51.0202 10.1008 51.154 10.0114 51.2667 9.89876C51.3794 9.7861 51.4688 9.65234 51.5298 9.50512C51.5908 9.3579 51.6222 9.20011 51.6222 9.04076V1.32696C51.6223 1.16756 51.5909 1.0097 51.53 0.862419C51.469 0.715136 51.3796 0.58131 51.2669 0.468588C51.1542 0.355866 51.0204 0.266457 50.8731 0.205471C50.7258 0.144485 50.568 0.113117 50.4086 0.113159H8.98131C8.65939 0.113159 8.35066 0.241041 8.12303 0.468673C7.89539 0.696304 7.76751 1.00504 7.76751 1.32696V32.4782H1.21352C0.542919 32.4782 -0.00012207 33.0214 -0.00012207 33.692C-0.00012207 34.3626 0.54308 34.9058 1.21368 34.9058H14.2405V45.4242H1.21368C0.542919 45.4242 -0.00012207 45.9674 -0.00012207 46.638C-0.00012207 47.3086 0.54308 47.8518 1.21368 47.8518H15.4543C15.7762 47.8518 16.085 47.7239 16.3126 47.4963C16.5402 47.2686 16.6681 46.9599 16.6681 46.638V45.2625H19.237L34.6738 47.8354ZM32.3649 2.5406V9.99993L30.0789 9.23767C29.8296 9.15493 29.5603 9.15493 29.311 9.23767L27.025 9.99993V2.5406H32.3649ZM16.6681 36.2002H19.338C19.657 36.2002 19.9695 36.0688 20.1963 35.8446L25.0192 31.0217H36.1678C36.9263 31.0217 37.5434 31.6388 37.5434 32.3972V33.7726H29.6949C29.1947 33.7726 28.7388 34.0923 28.5607 34.557C28.3769 35.0375 28.5298 35.6148 28.9364 35.9345L35.4096 41.1127C35.6249 41.2846 35.8922 41.3783 36.1678 41.3786H42.6409C42.8802 41.3786 43.1146 41.3078 43.3141 41.1746C44.3094 40.5109 47.2913 38.7893 49.1139 38.7893C49.8301 38.7893 50.1806 39.1166 50.3473 39.486L43.4934 42.9125L34.8032 45.3957L19.5377 42.8512C19.5256 42.8495 19.5143 42.8488 19.5029 42.8475C19.4813 42.8444 19.4596 42.8419 19.4378 42.8399C19.4165 42.838 19.395 42.8373 19.3741 42.8367C19.3621 42.8362 19.35 42.8349 19.338 42.8349H16.6681V36.2002ZM81.479 67.3516H68.533C68.5191 67.3516 68.5058 67.3535 68.4919 67.3535C68.4704 67.3542 68.4491 67.3555 68.4275 67.3568C68.4035 67.3592 68.3802 67.3616 68.3567 67.3649C68.3441 67.3668 68.3322 67.3675 68.3202 67.3694L53.0729 69.9105L44.4067 67.4344L37.6306 64.0463C37.8042 63.718 38.1388 63.4679 38.757 63.4679C40.5525 63.4679 43.5206 65.1806 44.5121 65.8399C44.7248 65.9815 44.9746 66.057 45.2301 66.057H51.7032C51.8844 66.0571 52.0636 66.019 52.2291 65.9453L63.8572 60.7776C64.4198 60.5364 64.7483 59.9156 64.6208 59.315C64.4939 58.7157 63.94 58.2774 63.3268 58.2895H56.8816V56.9949C56.8816 56.2813 57.4626 55.7002 58.1762 55.7002H69.2913L74.0903 60.4997C74.3343 60.7407 74.663 60.8767 75.006 60.8786H81.4791C81.8181 60.872 82.141 60.7328 82.3784 60.4907C82.6159 60.2486 82.7489 59.9231 82.7489 59.5841C82.7489 59.245 82.6159 58.9195 82.3784 58.6774C82.141 58.4353 81.8181 58.2961 81.4791 58.2895H75.5422L70.7433 53.4906C70.6231 53.3702 70.4803 53.2748 70.3232 53.2096C70.1661 53.1445 69.9977 53.111 69.8276 53.111H58.1762C56.0346 53.111 54.2923 54.8534 54.2923 56.9949V59.584C54.2924 59.9273 54.4288 60.2566 54.6716 60.4994C54.9143 60.7422 55.2436 60.8786 55.587 60.8786H57.2541L56.8083 61.077H53.3792C52.2886 60.3899 49.042 58.4877 46.5247 58.4877C43.9538 58.4877 42.8607 60.3784 42.6718 61.8947C41.4208 61.3428 40 60.8786 38.757 60.8786C35.9077 60.8786 34.8733 63.2013 34.8733 64.7625C34.8734 65.0029 34.9403 65.2386 35.0667 65.4432C35.1931 65.6477 35.3739 65.813 35.5889 65.9207L43.3565 69.8044C43.4278 69.8405 43.503 69.8689 43.5799 69.8909L52.6422 72.4802C52.7578 72.5134 52.8775 72.5302 52.9979 72.53C53.0685 72.53 53.1398 72.5243 53.2106 72.513L68.6403 69.9409H81.479C81.8188 69.9355 82.1429 69.7967 82.3813 69.5545C82.6197 69.3123 82.7533 68.9861 82.7533 68.6462C82.7533 68.3064 82.6197 67.9802 82.3813 67.7379C82.1429 67.4957 81.8188 67.357 81.479 67.3516ZM45.4171 61.6561C45.5603 61.3693 45.8035 61.077 46.5247 61.077C48.1509 61.077 50.7389 62.4814 51.9494 63.2369L51.4284 63.4679H48.6787C48.5558 63.2931 48.3914 63.1516 48.2002 63.0561L45.4132 61.663C45.4144 61.6606 45.4157 61.6583 45.4171 61.6561Z" fill="black"/>
</g>
<defs>
<clipPath id="clip0_634_94344">
<rect width="82.7737" height="82.7737" fill="white" transform="translate(-0.00012207 0.113159)"/>
</clipPath>
</defs>
</svg>
