<svg width="80" height="79" viewBox="0 0 80 79" fill="none" xmlns="http://www.w3.org/2000/svg">
<path d="M46.3656 57.3831L46.4349 56.9211C47.2276 51.6336 49.7607 46.7813 53.6146 43.1682L39.8197 17.5286L26.0238 43.1682C29.8778 46.7813 32.4108 51.6335 33.2035 56.9211L33.2728 57.3831H46.3656Z" fill="#FEDA9B"/>
<path d="M46.3656 57.3831L46.4349 56.9211C47.2276 51.6336 49.7607 46.7813 53.6146 43.1682L39.8197 17.5286L26.0238 43.1682C29.8778 46.7813 32.4108 51.6335 33.2035 56.9211L33.2728 57.3831H46.3656Z" stroke="black"/>
<path d="M35.2209 5.77719V1.17865H44.418V10.3757H35.2209V5.77719Z" fill="#FF5D5D"/>
<path d="M68.9436 5.77719V1.17865H78.1407V10.3757H68.9436V5.77719Z" fill="#FF5D5D"/>
<path d="M1.49829 5.77719V1.17865H10.6954V10.3757H1.49829V5.77719Z" fill="#FF5D5D"/>
<path d="M35.2209 5.77719V1.17865H44.418V10.3757H35.2209V5.77719Z" stroke="black" stroke-width="2" stroke-miterlimit="10" stroke-linecap="round" stroke-linejoin="round"/>
<path d="M68.9436 5.77719V1.17865H78.1407V10.3757H68.9436V5.77719Z" stroke="black" stroke-width="2" stroke-miterlimit="10" stroke-linecap="round" stroke-linejoin="round"/>
<path d="M1.49829 5.77719V1.17865H10.6954V10.3757H1.49829V5.77719Z" stroke="black" stroke-width="2" stroke-miterlimit="10" stroke-linecap="round" stroke-linejoin="round"/>
<path d="M1.49829 43.5875V38.989H10.6954V48.186H1.49829V43.5875Z" fill="#FF5D5D"/>
<path d="M1.49829 43.5875V38.989H10.6954V48.186H1.49829V43.5875Z" stroke="black" stroke-width="2" stroke-miterlimit="10" stroke-linecap="round" stroke-linejoin="round"/>
<path d="M68.9435 5.26636H44.418" stroke="black" stroke-width="2" stroke-miterlimit="10" stroke-linecap="round" stroke-linejoin="round"/>
<path d="M10.6953 5.26636H35.2209" stroke="black" stroke-width="2" stroke-miterlimit="10" stroke-linecap="round" stroke-linejoin="round"/>
<path d="M35.221 6.28823C18.4625 8.67134 5.58594 22.8604 5.58594 40.0109" stroke="black" stroke-width="2" stroke-miterlimit="10" stroke-linecap="round" stroke-linejoin="round"/>
<path d="M78.1407 48.186H68.9436V38.989H78.1407V43.5874V48.186Z" fill="#FF5D5D"/>
<path d="M78.1407 48.186H68.9436V38.989H78.1407V43.5874V48.186Z" stroke="black" stroke-width="2" stroke-miterlimit="10" stroke-linecap="round" stroke-linejoin="round"/>
<path d="M44.418 6.28823C61.1765 8.67134 74.053 22.8604 74.053 40.0109" stroke="black" stroke-width="2" stroke-miterlimit="10" stroke-linecap="round" stroke-linejoin="round"/>
<path d="M33.1771 29.2227L39.5789 17.529L53.6151 43.1679C49.6938 46.781 47.1165 51.6331 46.3099 56.9208L46.2394 57.3831" stroke="black" stroke-width="2" stroke-miterlimit="10" stroke-linecap="round" stroke-linejoin="round"/>
<path d="M33.1771 57.3831L33.1086 56.923C32.3264 51.6607 29.8269 46.8319 26.0238 43.2362L28.2898 38.9889" stroke="black" stroke-width="2" stroke-miterlimit="10" stroke-linecap="round" stroke-linejoin="round"/>
<path d="M39.819 43.0984C41.2419 43.0984 42.3959 41.9451 42.3961 40.5222C42.3961 39.0992 41.242 37.9451 39.819 37.9451C38.3961 37.9453 37.2428 39.0993 37.2428 40.5222C37.2431 41.9449 38.3963 43.0981 39.819 43.0984Z" fill="white" stroke="black" stroke-width="2"/>
<path d="M39.819 43.0984C41.2419 43.0984 42.3959 41.9451 42.3961 40.5222C42.3961 39.0992 41.242 37.9451 39.819 37.9451C38.3961 37.9453 37.2428 39.0993 37.2428 40.5222C37.2431 41.9449 38.3963 43.0981 39.819 43.0984Z" fill="#4DBAF6" stroke="black" stroke-width="2"/>
<path d="M43.3961 40.5217C43.3961 38.5464 41.7948 36.9451 39.8194 36.9451C37.8441 36.9451 36.2428 38.5464 36.2428 40.5217C36.2428 42.4971 37.8441 44.0984 39.8194 44.0984C41.7948 44.0984 43.3961 42.4971 43.3961 40.5217Z" stroke="black" stroke-width="2" stroke-miterlimit="10" stroke-linecap="round" stroke-linejoin="round"/>
<path d="M39.3085 20.5947V35.9232" stroke="black" stroke-width="2" stroke-miterlimit="10" stroke-linecap="round" stroke-linejoin="round"/>
<path d="M30.0712 62.5145H49.5682C50.674 62.5145 51.5935 61.6025 51.5936 60.4491C51.5936 59.2956 50.6741 58.3827 49.5682 58.3827H30.0712C28.9653 58.3827 28.0458 59.2956 28.0458 60.4491C28.0459 61.6025 28.9654 62.5145 30.0712 62.5145Z" fill="#C9F3FF" stroke="black" stroke-width="2"/>
<path d="M49.5682 57.3831H30.0708C28.4001 57.3831 27.0458 58.7557 27.0458 60.4488C27.0458 62.142 28.4001 63.5145 30.0708 63.5145H49.5682C51.2389 63.5145 52.5932 62.142 52.5932 60.4488C52.5932 58.7557 51.2389 57.3831 49.5682 57.3831Z" stroke="black" stroke-width="2" stroke-miterlimit="10" stroke-linecap="round" stroke-linejoin="round"/>
<path d="M49.5494 76.8213V64.5146H30.0895V76.8213H49.5494Z" fill="#4DBAF6" stroke="black" stroke-width="2"/>
<path d="M29.0895 77.8213V63.5147H50.5493V77.8213" stroke="black" stroke-width="2" stroke-miterlimit="10" stroke-linecap="round" stroke-linejoin="round"/>
</svg>
