<svg width="16" height="16" viewBox="0 0 16 16" fill="none" xmlns="http://www.w3.org/2000/svg">
<g clip-path="url(#clip0_569_105169)">
<path d="M6 14.6667C6 15.4033 5.40333 16 4.66667 16C3.93 16 3.33333 15.4033 3.33333 14.6667C3.33333 13.93 3.93 13.3333 4.66667 13.3333C5.40333 13.3333 6 13.93 6 14.6667ZM11.3333 13.3333C10.5967 13.3333 10 13.93 10 14.6667C10 15.4033 10.5967 16 11.3333 16C12.07 16 12.6667 15.4033 12.6667 14.6667C12.6667 13.93 12.07 13.3333 11.3333 13.3333ZM3.61267 8.66667L2.98533 3.33333H6.71267C6.77067 2.86733 6.88733 2.42067 7.058 2H2.828L2.80067 1.766C2.682 0.758667 1.828 0 0.814667 0H0V1.33333H0.814667C1.15267 1.33333 1.43733 1.58667 1.47667 1.92267L2.53267 10.9007C2.65133 11.908 3.50533 12.6667 4.51867 12.6667H13.3333V11.3333H4.51867C4.18067 11.3333 3.896 11.08 3.85667 10.744L3.76933 10H14.5567L14.7987 8.66667H3.61267ZM16 4C16 6.206 14.206 8 12 8C9.794 8 8 6.206 8 4C8 1.794 9.794 0 12 0C14.206 0 16 1.794 16 4ZM14.6667 4C14.6667 2.52933 13.4707 1.33333 12 1.33333C10.5293 1.33333 9.33333 2.52933 9.33333 4C9.33333 5.47067 10.5293 6.66667 12 6.66667C13.4707 6.66667 14.6667 5.47067 14.6667 4ZM12.6667 2H11.3333V4.276L12.862 5.80467L13.8047 4.862L12.6667 3.724V2Z" fill="currentColor"/>
</g>
<defs>
<clipPath id="clip0_569_105169">
<rect width="16" height="16" fill="white"/>
</clipPath>
</defs>
</svg>
