<svg width="32" height="32" viewBox="0 0 32 32" fill="none" xmlns="http://www.w3.org/2000/svg">
<path d="M10 24C10 20.6337 12.6863 17.9048 16 17.9048C19.3137 17.9048 22 20.6337 22 24H20.5C20.5 21.4753 18.4853 19.4286 16 19.4286C13.5147 19.4286 11.5 21.4753 11.5 24H10ZM16 17.1429C13.5138 17.1429 11.5 15.0971 11.5 12.5714C11.5 10.0457 13.5138 8 16 8C18.4862 8 20.5 10.0457 20.5 12.5714C20.5 15.0971 18.4862 17.1429 16 17.1429ZM16 15.619C17.6575 15.619 19 14.2552 19 12.5714C19 10.8876 17.6575 9.52381 16 9.52381C14.3425 9.52381 13 10.8876 13 12.5714C13 14.2552 14.3425 15.619 16 15.619Z" fill="white"/>
<circle cx="16" cy="16" r="15" stroke="white" stroke-width="2"/>
</svg>
