<svg width="86" height="56" viewBox="0 0 86 56" fill="none" xmlns="http://www.w3.org/2000/svg">
<path d="M77.2812 0H8C3.58172 0 0 3.58172 0 8V47.8479C0 52.2662 3.58172 55.8479 8 55.8479H77.2812C81.6995 55.8479 85.2812 52.2662 85.2812 47.8479V8C85.2812 3.58172 81.6995 0 77.2812 0Z" fill="#16366F"/>
<path d="M49.0922 27.9244C49.0922 38.9982 40.3049 47.9738 29.4655 47.9738C18.626 47.9738 9.83984 38.9978 9.83984 27.9244C9.83984 16.8517 18.6262 7.875 29.4655 7.875C40.3046 7.875 49.0922 16.852 49.0922 27.9244Z" fill="#D9222A"/>
<path d="M55.8136 7.875C50.7426 7.875 46.1218 9.8404 42.6387 13.0651C41.7828 13.8585 42.3957 15.1868 43.5628 15.1868H44.0727C44.4201 15.1868 44.7502 15.3426 44.9606 15.6191C45.5041 16.3329 44.9654 17.3105 44.0683 17.3105H39.7975C39.402 17.3105 39.0331 17.5146 38.8375 17.8583C38.428 18.5776 38.9727 19.4336 39.8004 19.4336H46.5245C46.9656 19.4336 47.3687 19.6894 47.5379 20.0968C47.8323 20.8056 47.2902 21.5563 46.5227 21.5563H38.0133C37.5276 21.5563 37.0939 21.8672 36.9613 22.3343C36.7662 23.0212 37.3005 23.6795 38.0146 23.6795H44.3732C46.8654 23.6795 49.0916 25.4327 49.091 27.9248C49.091 28.8477 49.0299 29.756 48.9116 30.6457C48.617 32.8618 46.5677 34.2937 44.3321 34.2937H38.7558C37.988 34.2937 37.4454 35.0445 37.7398 35.7535C37.9091 36.1612 38.3125 36.4171 38.754 36.4171H45.4775C46.3054 36.4171 46.85 37.2733 46.4405 37.9928C46.2447 38.3365 45.8758 38.5407 45.4802 38.5407H41.2099C40.3132 38.5407 39.7756 39.5186 40.3191 40.2318C40.5295 40.5077 40.8585 40.6625 41.2055 40.6625H42.7048C43.4753 40.6625 43.8875 41.5448 43.3487 42.0956C42.9749 42.4778 42.9729 43.0979 43.3828 43.4411C46.7679 46.2744 51.0956 47.9748 55.8137 47.9748C66.6529 47.9747 75.4404 38.9987 75.4404 27.9254C75.4404 16.853 66.6531 7.876 55.8137 7.876" fill="#EE9F2D"/>
<path d="M72.8245 39.0995C72.8245 38.742 73.1079 38.4516 73.4582 38.4516C73.8085 38.4516 74.0919 38.742 74.0919 39.0995C74.0919 39.4569 73.8085 39.7473 73.4582 39.7473C73.1081 39.7472 72.8244 39.4571 72.8245 39.0995ZM73.4582 39.5919C73.7244 39.5918 73.94 39.3713 73.9401 39.0995C73.9401 38.8278 73.7245 38.6076 73.4586 38.6076H73.4582C73.1926 38.6072 72.9771 38.8269 72.9767 39.0982V39.0997C72.9763 39.3711 73.1914 39.5915 73.4571 39.592C73.4574 39.592 73.4578 39.5919 73.4582 39.5919ZM73.3726 39.3192C73.3726 39.3551 73.3435 39.3841 73.3076 39.3841C73.2718 39.3841 73.2427 39.3551 73.2427 39.3192V39.0501C73.2427 38.9204 73.3479 38.8152 73.4776 38.8152C73.5268 38.8152 73.5769 38.8152 73.6203 38.8435C73.6655 38.8746 73.691 38.9295 73.691 38.9863C73.691 39.0122 73.6848 39.0374 73.6736 39.0598C73.6464 39.1139 73.6131 39.1788 73.636 39.2348L73.6598 39.2932C73.6775 39.3366 73.6456 39.3841 73.5987 39.3841C73.5712 39.3841 73.5467 39.3672 73.5369 39.3415L73.4816 39.1953C73.4733 39.1734 73.4523 39.159 73.4289 39.159C73.3979 39.159 73.3727 39.1841 73.3727 39.2152L73.3726 39.3192ZM73.3726 38.9894C73.3726 39.0291 73.4048 39.0613 73.4445 39.0613C73.4714 39.0613 73.4996 39.0636 73.5238 39.0502C73.5452 39.0362 73.5561 39.0101 73.5561 38.9849C73.5561 38.9632 73.543 38.938 73.5247 38.9273C73.502 38.9127 73.4661 38.916 73.4418 38.916C73.4036 38.916 73.3726 38.947 73.3726 38.9852V38.9894ZM24.8359 30.5934C24.8814 30.3272 24.6769 30.085 24.4069 30.085C23.1993 30.085 22.5879 30.5082 22.5879 31.3436C22.5879 31.8586 22.8864 32.1865 23.3518 32.1865C24.1023 32.1865 24.6715 31.5551 24.8359 30.5934ZM26.533 32.9875C26.4693 33.449 26.0743 33.8042 25.6083 33.8042H24.8836C24.7654 33.8042 24.6713 33.7054 24.6769 33.5874C24.6863 33.3868 24.4132 33.2758 24.2549 33.3995C23.7823 33.7687 23.1993 33.9465 22.474 33.9465C21.3192 33.9465 20.5274 33.025 20.5274 31.687C20.5274 29.6738 21.9046 28.4992 24.2685 28.4992C24.3674 28.4992 24.4777 28.5029 24.5953 28.5102C24.9043 28.5292 25.2202 28.3362 25.2202 28.0266C25.2202 27.4784 24.8489 27.274 23.8535 27.274C23.5223 27.2701 23.2095 27.2944 22.9256 27.333C22.3111 27.4166 21.7456 26.7205 21.8426 26.1079C21.8922 25.7951 22.0862 25.7257 22.3922 25.6441C23.1892 25.4316 23.786 25.3482 24.4439 25.3482C26.2734 25.3482 27.2424 26.1873 27.2407 27.7734C27.2442 28.1984 27.1754 28.7228 27.0679 29.4121C26.9307 30.301 26.6771 31.9431 26.533 32.9875ZM19.7795 32.9177C19.6967 33.4287 19.2555 33.8042 18.7379 33.8042H18.2619C17.8643 33.8042 17.5606 33.4493 17.6219 33.0565C17.7436 32.2769 16.6299 31.9983 16.3702 32.7434L16.1652 33.3318C16.0666 33.6146 15.7998 33.8042 15.5002 33.8042H15.2C14.8378 33.8042 14.5419 33.5149 14.5335 33.1528C14.5148 32.3434 13.341 32.2608 13.2092 33.0596L13.1807 33.2323C13.1262 33.5622 12.841 33.8042 12.5067 33.8042H12.2508C11.6435 33.8042 11.181 33.2597 11.2792 32.6604L12.5263 25.047C12.6598 24.232 13.3641 23.6338 14.1899 23.6338H14.9895C15.4533 23.6338 15.8334 24.0017 15.8486 24.4653C15.8799 25.426 17.2245 25.6186 17.5243 24.7053L17.664 24.2797C17.7905 23.8943 18.1502 23.6338 18.5559 23.6338H19.1754C20.2808 23.6338 21.1233 24.6237 20.9465 25.7149L19.7795 32.9177ZM58.4016 30.5925C58.4467 30.3267 58.2425 30.085 57.9729 30.085C56.7657 30.085 56.1542 30.5082 56.1542 31.3436C56.1542 31.8586 56.4522 32.1865 56.9177 32.1865C57.6684 32.1865 58.2381 31.5548 58.4016 30.5925ZM60.0993 32.9868C60.0356 33.4486 59.6402 33.8042 59.174 33.8042H58.4501C58.3319 33.8042 58.2377 33.7054 58.2432 33.5874C58.2525 33.3865 57.9792 33.2756 57.8207 33.3994C57.348 33.7687 56.765 33.9465 56.0404 33.9465C54.8851 33.9465 54.0942 33.025 54.0942 31.687C54.0942 29.6738 55.4704 28.4992 57.8348 28.4992C57.9335 28.4992 58.0435 28.5029 58.1608 28.5101C58.4698 28.5292 58.7857 28.3361 58.7857 28.0266C58.7857 27.4784 58.4148 27.274 57.4194 27.274C57.088 27.2701 56.7751 27.2944 56.4911 27.3331C55.8764 27.4168 55.3114 26.7206 55.4088 26.1079C55.4585 25.7951 55.6526 25.7257 55.9586 25.6441C56.7555 25.4316 57.3517 25.3482 58.0088 25.3482C59.8392 25.3482 60.8082 26.1873 60.8065 27.7734C60.81 28.1984 60.7412 28.7228 60.6337 29.4121C60.4974 30.3008 60.2434 31.9424 60.0993 32.9868ZM35.9772 33.1897C35.9311 33.4893 35.7209 33.7423 35.4265 33.8145C35.054 33.9057 34.7223 33.9465 34.3713 33.9465C33.282 33.9465 32.6875 33.307 32.6875 32.1295C32.672 31.7643 32.8442 30.8027 32.9794 29.925C33.0699 29.3568 33.5269 26.572 33.7625 25.138C33.8439 24.6427 34.2717 24.281 34.7737 24.281H35.3832C35.7136 24.281 35.9616 24.5828 35.8976 24.907C35.8336 25.2311 36.0816 25.533 36.412 25.533H36.43C36.7586 25.533 37.0108 25.8245 36.9635 26.1497L36.857 26.882C36.8037 27.2487 36.4893 27.5207 36.1188 27.5207C35.7513 27.5207 35.4386 27.7883 35.3798 28.1511C35.1489 29.5758 34.8835 31.087 34.88 31.3128C34.88 31.7391 35.1027 31.9252 35.6093 31.9252C35.8709 31.9252 36.135 32.1644 36.0952 32.423L35.9772 33.1897ZM42.4804 33.1153C42.4283 33.4198 42.2107 33.6733 41.9105 33.7463C41.3519 33.8821 40.7996 33.948 40.222 33.9466C37.8513 33.9442 36.6154 32.6793 36.6154 30.257C36.6154 27.4297 38.1876 25.3483 40.3218 25.3483C42.0679 25.3483 43.1831 26.5137 43.1831 28.3413C43.1831 28.3587 43.1831 28.3761 43.1829 28.3935C43.1744 29.5634 42.0891 30.3755 40.9191 30.3755C39.6559 30.3755 38.5893 31.7298 39.8224 32.0041C40.0385 32.0522 40.2809 32.0752 40.5454 32.0752C40.7836 32.0752 41.0144 32.0595 41.2425 32.0267C41.9018 31.9318 42.5928 32.4588 42.4804 33.1153ZM40.1943 28.708C40.7633 28.708 41.3489 28.2275 41.0997 27.7159C40.9692 27.4479 40.7124 27.2318 40.2197 27.2318C39.9199 27.2318 39.658 27.3355 39.4423 27.5343C38.9383 27.9988 39.5088 28.708 40.1943 28.708ZM27.711 28.1477C27.711 29.1939 28.2075 29.9152 29.3337 30.4571C30.1965 30.8714 30.33 30.9942 30.33 31.3696C30.33 31.8853 29.9496 32.118 29.1064 32.118C28.8148 32.118 28.5325 32.0967 28.2464 32.0519C27.6871 31.9642 27.1161 32.3217 27.0302 32.8813C26.9574 33.3554 27.2648 33.7955 27.7406 33.8552C28.0674 33.8963 28.4932 33.9288 29.1219 33.9466C31.37 33.9466 32.4083 33.0721 32.4083 31.1821C32.4083 30.0456 31.9737 29.3787 30.9063 28.8775C30.013 28.4586 29.9104 28.365 29.9104 27.9788C29.9104 27.5315 30.2644 27.3035 30.9533 27.3035C31.1221 27.3035 31.316 27.3109 31.5227 27.3249C32.0574 27.3613 32.5513 27.0021 32.635 26.4727C32.7192 25.9401 32.3563 25.4407 31.819 25.3948C31.4823 25.366 31.1542 25.3483 30.9123 25.3483C28.5287 25.3483 27.7037 26.6202 27.711 28.1477ZM52.7586 25.5657C52.9536 25.5657 53.1443 25.5829 53.3396 25.62C54.0256 25.7504 54.7745 25.405 54.8834 24.7152C54.958 24.2429 54.7126 23.7471 54.2848 23.5335C53.8163 23.2996 53.214 23.0479 52.6693 23.0479C51.9185 23.0479 51.2288 23.2482 50.6203 23.6121C49.6109 24.2158 48.1978 24.5845 47.4151 25.4623C47.2336 25.666 47.0647 25.9025 46.8889 26.1424C46.846 26.2011 46.7835 26.2423 46.7128 26.2591C46.5004 26.3097 46.3076 26.1296 46.3262 25.9121C46.3276 25.8949 46.329 25.8777 46.3302 25.8604C46.3433 25.6776 46.1915 25.5331 46.0082 25.5331H45.3289C44.7891 25.5331 44.3374 25.941 44.272 26.4768C43.9971 28.7287 43.5925 31.0001 43.2671 33.2485C43.2166 33.5387 43.44 33.8043 43.7346 33.8043H44.4069C44.9215 33.8043 45.3591 33.4277 45.4338 32.9186C45.6598 31.3801 45.8088 30.2543 45.9118 29.4081C45.9501 29.0933 46.1342 28.8147 46.4099 28.658L46.4261 28.6489C46.6486 28.5224 46.7579 28.3436 46.9254 28.15C47.3071 27.7089 47.9249 28.3793 47.889 28.9615C47.8768 29.1593 47.8707 29.3576 47.871 29.556C47.871 32.2619 49.3001 33.9466 51.5938 33.9466C52.0312 33.9466 52.4226 33.903 52.9149 33.7922C53.2594 33.7147 53.5128 33.4263 53.5692 33.0777C53.687 32.3495 52.9097 31.8113 52.1731 31.8498C52.1287 31.8521 52.0847 31.8533 52.0411 31.8533C50.8026 31.8533 50.0531 30.9193 50.0531 29.3754C50.053 27.1359 51.1677 25.5657 52.7586 25.5657Z" fill="black"/>
<path d="M20.3928 32.3147C20.31 32.8257 19.8688 33.2012 19.3511 33.2012H18.8745C18.4771 33.2012 18.1735 32.8465 18.2349 32.4539C18.3566 31.6747 17.2435 31.3961 16.9839 32.1408L16.7788 32.7291C16.6802 33.0118 16.4136 33.2012 16.1142 33.2012H15.8136C15.4513 33.2012 15.1553 32.912 15.147 32.5499C15.1283 31.7404 13.9544 31.6578 13.8226 32.4567L13.7941 32.6293C13.7396 32.9592 13.4544 33.2012 13.12 33.2012H12.8642C12.2568 33.2012 11.7943 32.6567 11.8925 32.0574L13.1419 24.4311C13.2741 23.6244 13.9712 23.0322 14.7887 23.0322H15.5443C16.038 23.0322 16.4401 23.4289 16.4469 23.9225C16.4608 24.9416 17.8891 25.1601 18.207 24.1917L18.3647 23.7114C18.4978 23.3062 18.876 23.0322 19.3025 23.0322H19.8495C20.923 23.0322 21.7412 23.9936 21.5695 25.0533L20.3928 32.3147Z" fill="white"/>
<path d="M71.5839 23.6357C71.1301 23.6357 70.7435 23.9652 70.6715 24.4132C70.5418 25.2201 69.4372 25.4217 68.6363 25.2588C68.5245 25.2361 68.409 25.2242 68.2893 25.2242C67.3967 25.2242 66.5708 25.7979 65.9495 26.6938C65.718 27.0277 65.3196 27.2257 64.9272 27.1206C64.3363 26.9624 63.848 26.7958 63.7869 26.7747C63.7833 26.7735 63.7802 26.7762 63.78 26.78C63.7888 26.6958 63.797 26.6157 63.8046 26.5396C63.8602 25.9788 63.4303 25.535 62.8667 25.535C62.3271 25.535 61.8755 25.9429 61.8103 26.4785C61.536 28.7305 61.1315 31.002 60.8066 33.2504C60.7557 33.5404 60.9788 33.8062 61.2733 33.8062H61.9462C62.4601 33.8062 62.897 33.4304 62.9721 32.922C63.1647 31.6169 63.323 30.4813 63.4503 29.5166C63.4897 29.2173 63.7079 28.8681 63.9205 28.6539C64.5425 28.0275 64.9996 28.6977 64.8844 29.5729C64.8437 29.8823 64.8223 30.1981 64.8223 30.5166C64.8223 32.5845 65.8464 33.9485 67.3954 33.9485C67.9932 33.9485 68.4844 33.7873 68.9442 33.4255C69.0827 33.3166 69.309 33.4265 69.2864 33.6012C69.2724 33.7092 69.3564 33.8049 69.4653 33.8049H70.4119C70.9093 33.8049 71.333 33.4434 71.4114 32.9522L72.7063 24.8375C72.8069 24.2069 72.3197 23.6357 71.6811 23.6357H71.5839ZM68.132 31.8947C67.4066 31.8947 67.0405 31.3464 67.0405 30.2643C67.0405 28.6388 67.7261 27.4859 68.6927 27.4859C69.4247 27.4859 69.8211 28.056 69.8211 29.1064C69.8212 30.7462 69.1247 31.8947 68.132 31.8947Z" fill="black"/>
<path d="M25.4506 29.9911C25.4959 29.7252 25.2914 29.4833 25.0217 29.4833C23.814 29.4833 23.203 29.9064 23.203 30.7418C23.203 31.2561 23.5015 31.5848 23.9662 31.5848C24.7174 31.5847 25.2868 30.9533 25.4506 29.9911ZM27.1481 32.3838C27.0844 32.8456 26.6891 33.201 26.223 33.201H25.4986C25.3805 33.201 25.2864 33.1024 25.2919 32.9844C25.3013 32.7839 25.0285 32.6731 24.8704 32.7967C24.3976 33.1661 23.8141 33.3448 23.0892 33.3448C21.9338 33.3448 21.1426 32.4233 21.1426 31.0853C21.1426 29.0712 22.5192 27.8973 24.8836 27.8973C24.9822 27.8973 25.0921 27.901 25.2092 27.9082C25.5186 27.9273 25.8348 27.734 25.8348 27.424C25.8348 26.8758 25.464 26.6723 24.4685 26.6723C24.1363 26.6684 23.8226 26.6928 23.538 26.7316C22.9235 26.8154 22.3599 26.1205 22.4571 25.5078C22.5067 25.1948 22.7008 25.1246 23.007 25.0427C23.8039 24.8294 24.401 24.746 25.0581 24.746C26.8881 24.746 27.8575 25.5857 27.8557 27.1703C27.8589 27.597 27.7896 28.1211 27.6826 28.8095C27.5458 29.6977 27.2921 31.3396 27.1481 32.3838ZM54.8514 23.0412C55.3108 23.1754 55.5721 23.6409 55.4973 24.1136C55.3883 24.8035 54.6394 25.1489 53.9532 25.0183C53.7581 24.9812 53.5676 24.9639 53.3729 24.9639C51.7819 24.9639 50.6668 26.5341 50.6668 28.7735C50.6668 30.3173 51.4165 31.251 52.6549 31.251C52.6983 31.251 52.7422 31.2499 52.7865 31.2476C53.5228 31.2093 54.3005 31.7473 54.183 32.4753C54.1269 32.8233 53.8742 33.1115 53.5303 33.1894C53.0373 33.301 52.6458 33.3448 52.2075 33.3448C49.9141 33.3448 48.4846 31.6599 48.4846 28.9541C48.4846 25.3184 50.4591 22.7773 53.2831 22.7773C53.8094 22.7774 54.3899 22.9065 54.8514 23.0412ZM59.0165 29.9911C59.0618 29.7252 58.8574 29.4833 58.5876 29.4833C57.3803 29.4833 56.7689 29.9064 56.7689 30.7418C56.7689 31.2561 57.0673 31.5848 57.5325 31.5848C58.283 31.5847 58.8526 30.9533 59.0165 29.9911ZM60.7139 32.3834C60.6502 32.8453 60.2548 33.201 59.7885 33.201H59.0641C58.946 33.201 58.8519 33.1023 58.8575 32.9844C58.867 32.7839 58.5943 32.673 58.4361 32.7966C57.9633 33.1661 57.38 33.3448 56.6551 33.3448C55.5002 33.3448 54.7085 32.4233 54.7085 31.0853C54.7085 29.0712 56.0856 27.8973 58.4491 27.8973C58.5479 27.8973 58.6579 27.901 58.7751 27.9082C59.0843 27.9273 59.4007 27.7339 59.4007 27.424C59.4007 26.8758 59.0299 26.6723 58.0345 26.6723C57.7023 26.6684 57.3888 26.6928 57.1042 26.7316C56.4895 26.8154 55.9261 26.1203 56.0234 25.5077C56.0731 25.1947 56.2671 25.1246 56.5733 25.0427C57.37 24.8294 57.9668 24.746 58.6239 24.746C60.4544 24.746 61.4233 25.5857 61.421 27.1703C61.4247 27.597 61.356 28.1211 61.2484 28.8095C61.112 29.6975 60.8579 31.3391 60.7139 32.3834ZM36.5919 32.5873C36.5458 32.8866 36.3358 33.1394 36.0417 33.2117C35.6687 33.3034 35.337 33.3448 34.986 33.3448C33.8967 33.3448 33.3023 32.7052 33.3023 31.5279C33.2872 31.1615 33.4594 30.2009 33.5947 29.3233C33.6848 28.7544 34.1418 25.9698 34.3773 24.536C34.4587 24.0406 34.8866 23.679 35.3885 23.679H35.9974C36.3279 23.679 36.5761 23.9809 36.5122 24.3051L36.4965 24.3845C36.4407 24.6676 36.6574 24.9313 36.946 24.9313C37.2253 24.9313 37.4396 25.1791 37.3994 25.4554L37.2654 26.3757C37.22 26.6871 36.953 26.9181 36.6382 26.9181C36.3259 26.9181 36.0603 27.1454 36.0106 27.4537C35.776 28.9058 35.4981 30.4787 35.4949 30.7101C35.4949 31.1379 35.7181 31.3225 36.2242 31.3225C36.4857 31.3225 36.7498 31.5625 36.71 31.8209L36.5919 32.5873ZM43.0951 32.5138C43.0431 32.8182 42.8257 33.0715 42.5257 33.1444C41.967 33.2801 41.4141 33.3459 40.8368 33.3448C38.4659 33.3424 37.2301 32.0775 37.2301 29.6551C37.2301 26.8269 38.8024 24.7461 40.9366 24.7461C42.6827 24.7461 43.7979 25.911 43.7979 27.7395C43.7979 27.7566 43.7978 27.7737 43.7977 27.7908C43.7893 28.9611 42.7039 29.7737 41.5336 29.7737C40.2708 29.7737 39.2041 31.1275 40.4366 31.4024C40.653 31.4507 40.8957 31.4739 41.1607 31.4739C41.3983 31.4739 41.6286 31.4581 41.8564 31.4253C42.5157 31.3304 43.2075 31.8573 43.0951 32.5138ZM40.8127 28.1049C41.3804 28.1049 41.9629 27.6279 41.7163 27.1165C41.5863 26.8468 41.3292 26.6286 40.834 26.6286C40.5358 26.6286 40.2751 26.7317 40.0601 26.9288C39.5535 27.3933 40.1255 28.1049 40.8127 28.1049ZM28.3253 27.546C28.3253 28.592 28.8219 29.3126 29.9481 29.8553C30.8108 30.2695 30.9443 30.3928 30.9443 30.7678C30.9443 31.2835 30.5635 31.5162 29.7212 31.5162C29.4295 31.5162 29.1471 31.4949 28.8611 31.4501C28.3014 31.3624 27.7301 31.7208 27.6445 32.2808C27.572 32.7545 27.8791 33.1933 28.3546 33.2529C28.6814 33.2938 29.1073 33.3264 29.7362 33.3448C31.9849 33.3448 33.0227 32.4703 33.0227 30.5807C33.0227 29.4437 32.5885 28.7769 31.5206 28.2757C30.6277 27.8559 30.5244 27.7638 30.5244 27.377C30.5244 26.9302 30.8792 26.7003 31.5676 26.7003C31.7364 26.7003 31.9302 26.708 32.1371 26.7223C32.672 26.7593 33.1659 26.4001 33.2495 25.8704C33.3336 25.3377 32.9706 24.8383 32.4333 24.7925C32.0968 24.7637 31.7688 24.7461 31.527 24.7461C29.143 24.7461 28.3186 26.0171 28.3253 27.546ZM72.0259 32.3484C71.9475 32.8396 71.5238 33.201 71.0265 33.201H70.0794C69.9705 33.201 69.8865 33.1053 69.9005 32.9974C69.9233 32.8226 69.6968 32.7126 69.5583 32.8216C69.0987 33.1836 68.6076 33.3448 68.0099 33.3448C66.4608 33.3448 65.4372 31.9806 65.4372 29.9129C65.4372 27.1618 67.0249 24.8427 68.9041 24.8427C68.9846 24.8427 69.0631 24.846 69.1399 24.8526C69.9542 24.9228 71.1561 24.6161 71.286 23.8092C71.3581 23.3613 71.7447 23.0319 72.1984 23.0319H72.2956C72.9342 23.0319 73.4214 23.603 73.3208 24.2337L72.0259 32.3484ZM68.747 31.29C69.7392 31.29 70.4362 30.1414 70.4362 28.5029C70.4362 27.4524 70.0393 26.8823 69.3073 26.8823C68.341 26.8823 67.6546 28.0346 67.6546 29.6607C67.6545 30.7426 68.0217 31.29 68.747 31.29ZM63.4815 24.9313C62.942 24.9313 62.4904 25.3391 62.4252 25.8747C62.1507 28.1267 61.7461 30.398 61.421 32.6453C61.3702 32.9353 61.5933 33.201 61.8878 33.201H62.5605C63.0745 33.201 63.5111 32.8247 63.5886 32.3166C64.0144 29.5262 64.2611 28.1858 64.6903 27.6216C65.0394 27.1628 65.6706 26.8402 65.8355 26.2878C65.927 25.9812 66.0274 25.7014 66.1269 25.4606C66.2482 25.167 66.0762 24.8025 65.7668 24.8745C65.4781 24.9417 65.2292 25.1114 64.985 25.3682C64.8074 25.5548 64.4779 25.4212 64.4889 25.1639C64.4945 25.0332 64.3861 24.9313 64.2553 24.9313H63.4815ZM45.9408 24.9313C45.4019 24.9313 44.9509 25.3385 44.8856 25.8734C44.6106 28.1258 44.2059 30.3976 43.881 32.6453C43.8303 32.9354 44.0536 33.201 44.3481 33.201H45.021C45.5355 33.201 45.9724 32.8243 46.0499 32.3157C46.4749 29.5276 46.7212 28.1873 47.1495 27.6227C47.4983 27.1629 48.1303 26.8401 48.2956 26.2873C48.3873 25.9805 48.4878 25.7005 48.5873 25.4596C48.7084 25.1664 48.5365 24.8026 48.2275 24.8744C47.9386 24.9414 47.6894 25.1112 47.445 25.3683C47.2676 25.5548 46.9377 25.4213 46.949 25.1642C46.9547 25.0334 46.8463 24.9313 46.7154 24.9313H45.9408ZM72.826 32.5536C72.826 32.1946 73.1098 31.9058 73.4597 31.9058C73.8092 31.9055 74.0929 32.1948 74.0933 32.552V32.5536C74.0932 32.9111 73.8095 33.2008 73.4597 33.201C73.1098 33.2008 72.8262 32.9111 72.826 32.5536ZM73.4597 33.0455C73.7256 33.0456 73.9411 32.8255 73.9411 32.554V32.5537C73.9414 32.282 73.7259 32.0616 73.4601 32.0614H73.4597C73.1934 32.0615 72.9777 32.2819 72.9776 32.5537C72.9779 32.8254 73.1937 33.0455 73.4597 33.0455ZM73.3739 32.8363C73.3739 32.8365 73.3738 32.8367 73.3736 32.8367H73.309C73.2731 32.8367 73.2441 32.8076 73.2441 32.7717V32.5043C73.2441 32.3742 73.3495 32.2688 73.4796 32.2688C73.5283 32.2688 73.5788 32.2697 73.6213 32.2972C73.6667 32.3288 73.6928 32.3828 73.6928 32.4395C73.6928 32.4657 73.6866 32.4913 73.6752 32.5139C73.648 32.5678 73.6147 32.6327 73.6376 32.6885L73.661 32.7451C73.6789 32.7886 73.6469 32.8363 73.5999 32.8363C73.5725 32.8363 73.5479 32.8194 73.5382 32.7938L73.4829 32.6483C73.4746 32.6265 73.4536 32.612 73.4302 32.612C73.3992 32.612 73.3739 32.6373 73.3739 32.6683V32.8363ZM73.3739 32.4435C73.3739 32.483 73.406 32.515 73.4455 32.515C73.4722 32.515 73.5015 32.517 73.5252 32.5038C73.5465 32.4899 73.5574 32.4635 73.5574 32.4382C73.5564 32.4148 73.5448 32.3931 73.526 32.3797C73.5037 32.3666 73.4668 32.3702 73.4426 32.3702C73.4046 32.3702 73.3739 32.401 73.3739 32.439L73.3739 32.4435Z" fill="white"/>
</svg>
