<svg width="23" height="24" viewBox="0 0 23 24" fill="none" xmlns="http://www.w3.org/2000/svg">
<path d="M12.9375 6.72917C12.9375 7.01348 12.8532 7.29141 12.6952 7.5278C12.5373 7.7642 12.3128 7.94845 12.0501 8.05725C11.7874 8.16605 11.4984 8.19452 11.2196 8.13905C10.9407 8.08358 10.6846 7.94668 10.4835 7.74564C10.2825 7.5446 10.1456 7.28846 10.0901 7.00961C10.0347 6.73077 10.0631 6.44173 10.1719 6.17906C10.2807 5.9164 10.465 5.69189 10.7014 5.53393C10.9378 5.37598 11.2157 5.29167 11.5 5.29167C11.8813 5.29167 12.2469 5.44312 12.5165 5.71271C12.7861 5.98229 12.9375 6.34792 12.9375 6.72917ZM23 12C23 9.72552 22.3255 7.50211 21.0619 5.61095C19.7983 3.71978 18.0022 2.2458 15.9009 1.37539C13.7995 0.504983 11.4872 0.277244 9.25647 0.720974C7.02569 1.1647 4.97658 2.25997 3.36828 3.86828C1.75997 5.47658 0.664704 7.52569 0.220974 9.75647C-0.222756 11.9872 0.00498279 14.2995 0.875391 16.4009C1.7458 18.5022 3.21978 20.2983 5.11095 21.5619C7.00211 22.8255 9.22552 23.5 11.5 23.5H23V12ZM21.0833 12V21.5833H11.5C9.6046 21.5833 7.75176 21.0213 6.17579 19.9683C4.59982 18.9152 3.3715 17.4185 2.64616 15.6674C1.92082 13.9163 1.73104 11.9894 2.10081 10.1304C2.47059 8.27141 3.38331 6.56382 4.72357 5.22357C6.06382 3.88331 7.77141 2.97059 9.63039 2.60081C11.4894 2.23104 13.4163 2.42082 15.1674 3.14616C16.9185 3.8715 18.4152 5.09982 19.4683 6.67579C20.5213 8.25176 21.0833 10.1046 21.0833 12ZM13.4167 12C13.4167 11.4917 13.2147 11.0042 12.8553 10.6447C12.4958 10.2853 12.0083 10.0833 11.5 10.0833H9.58334V12H11.5V18.7083H13.4167V12Z" fill="#52BDBD"/>
</svg>
