<svg width="844" height="266" viewBox="0 0 844 266" fill="none" xmlns="http://www.w3.org/2000/svg">
<circle cx="420.235" cy="137.725" r="60.4749" stroke="white" stroke-width="2.64854" stroke-dasharray="7.06 7.06"/>
<g clip-path="url(#clip0_587_145384)">
<path d="M397.053 140.002H437.567V159.994H397.053V140.002Z" fill="#F0C020"/>
<path d="M434.392 149.998C434.392 151.209 433.407 152.193 432.197 152.193H402.423C401.212 152.193 400.227 151.209 400.227 149.998H434.392ZM397.053 140.002H437.567V142.197H397.053V140.002Z" fill="#E8A61E"/>
<path d="M436.802 115.08V126.682H397.818V115.08C397.818 114.214 398.521 113.512 399.387 113.512H435.233C436.099 113.512 436.802 114.214 436.802 115.08Z" fill="#F0C020"/>
<path d="M434.744 124.486V113.512H399.876V124.486H397.818V126.682H436.802V124.486H434.744Z" fill="#E8A61E"/>
<path d="M432.548 103.478V126.682H402.071V103.478C402.071 102.613 402.774 101.91 403.64 101.91H430.98C431.846 101.91 432.548 102.613 432.548 103.478Z" fill="#EFEFEF"/>
<path d="M402.071 124.487H432.548V126.683H402.071V124.487Z" fill="#AFAFAF"/>
<path d="M454.454 129.818V140.002H386.546V129.818C386.546 128.084 387.948 126.682 389.682 126.682H451.317C453.049 126.682 454.454 128.084 454.454 129.818Z" fill="#72C2E9"/>
<path d="M399.249 136.258V140.003H386.546V132.494H395.485C397.561 132.494 399.249 134.182 399.249 136.258ZM454.454 132.494V140.003H435.371V136.258C435.371 134.182 437.059 132.494 439.135 132.494H454.454Z" fill="#4BA5C8"/>
<path d="M382.045 136.258V158.427C382.045 158.843 382.21 159.241 382.504 159.536C382.798 159.83 383.197 159.995 383.613 159.995H397.053V136.258C397.053 135.842 396.887 135.443 396.593 135.149C396.299 134.855 395.9 134.689 395.484 134.689H383.613C383.197 134.689 382.798 134.855 382.504 135.149C382.21 135.443 382.045 135.842 382.045 136.258ZM437.567 136.258V159.995H457.69C458.106 159.995 458.505 159.83 458.799 159.536C459.093 159.241 459.258 158.843 459.258 158.427V136.258C459.258 135.842 459.093 135.443 458.799 135.149C458.505 134.855 458.106 134.689 457.69 134.689H439.135C438.719 134.689 438.321 134.855 438.026 135.149C437.732 135.443 437.567 135.842 437.567 136.258Z" fill="#EFEFEF"/>
<path d="M454.6 139.515H442.227C441.978 139.515 441.738 139.614 441.562 139.79C441.385 139.967 441.286 140.206 441.286 140.456V143.966H455.54V140.456C455.54 140.206 455.441 139.967 455.265 139.79C455.088 139.614 454.849 139.515 454.6 139.515Z" fill="#878787"/>
<path d="M441.286 143.967V154.23C441.286 154.48 441.385 154.719 441.562 154.896C441.738 155.072 441.978 155.171 442.227 155.171H446.038V143.967H441.286Z" fill="#72C2E9"/>
<path d="M446.037 143.967H450.789V155.171H446.037V143.967Z" fill="#FC5D3D"/>
<path d="M450.789 143.967V155.171H454.6C454.849 155.171 455.088 155.072 455.265 154.896C455.441 154.719 455.541 154.48 455.541 154.23V143.967H450.789Z" fill="#F0C020"/>
<path d="M390.983 139.515H388.114C387.864 139.515 387.625 139.614 387.448 139.79C387.272 139.967 387.173 140.206 387.173 140.456V154.229C387.173 154.479 387.272 154.718 387.448 154.895C387.625 155.071 387.864 155.17 388.114 155.17H390.983C391.233 155.17 391.472 155.071 391.649 154.895C391.825 154.718 391.924 154.479 391.924 154.229V140.456C391.924 140.206 391.825 139.967 391.649 139.79C391.472 139.614 391.233 139.515 390.983 139.515Z" fill="#878787"/>
<path d="M432.548 150V171.974C432.548 172.84 431.846 173.542 430.98 173.542H403.64C402.774 173.542 402.071 172.84 402.071 171.974V150H432.548Z" fill="#EFEFEF"/>
<path d="M402.071 150H432.548V152.196H402.071V150Z" fill="#AFAFAF"/>
<path d="M417.312 150H429.412V170.406H417.312V150Z" fill="#FC5D3D"/>
<path d="M417.312 150H429.412V152.196H417.312V150Z" fill="#B25035"/>
<path d="M410.77 149.998C410.77 153.61 413.697 156.538 417.309 156.538C420.921 156.538 423.849 153.61 423.849 149.998H410.77Z" fill="#F0C020"/>
<path d="M423.851 150C423.851 150.768 423.716 151.509 423.472 152.196H417.312V150H423.851Z" fill="#E8A61E"/>
<path d="M405.208 150H417.312V170.406H405.208V150Z" fill="#72C2E9"/>
<path d="M405.208 150H417.312V152.196H405.208V150Z" fill="#4BA5C8"/>
<path d="M389.658 109.359C390.827 108.974 391.741 108.725 392.352 106.09C392.552 105.232 393.779 105.234 393.977 106.09C394.576 108.666 395.41 108.942 396.672 109.359C397.432 109.61 397.434 110.691 396.672 110.943C394.575 111.636 394.337 112.661 393.977 114.212C393.778 115.072 392.552 115.072 392.352 114.212C391.755 111.636 390.875 111.345 389.658 110.943C388.898 110.692 388.896 109.611 389.658 109.359Z" fill="black"/>
<path d="M391.915 110.159C392.376 110.482 392.79 110.918 393.148 111.548C393.443 111.053 393.853 110.582 394.456 110.168C393.969 109.836 393.533 109.384 393.16 108.713C392.784 109.39 392.357 109.842 391.915 110.159Z" fill="#F0C020"/>
<path d="M437.948 109.359C439.117 108.974 440.031 108.725 440.642 106.09C440.842 105.232 442.069 105.234 442.267 106.09C442.865 108.666 443.699 108.942 444.962 109.359C445.722 109.61 445.724 110.691 444.962 110.943C442.865 111.636 442.627 112.661 442.267 114.212C442.068 115.072 440.842 115.072 440.642 114.212C440.045 111.636 439.165 111.345 437.947 110.943C437.188 110.692 437.186 109.611 437.948 109.359Z" fill="black"/>
<path d="M440.205 110.159C440.666 110.482 441.08 110.918 441.438 111.548C441.733 111.053 442.143 110.582 442.746 110.168C442.259 109.836 441.824 109.384 441.45 108.713C441.074 109.39 440.647 109.842 440.205 110.159Z" fill="#F0C020"/>
<path d="M429.412 105.831H409.285C409.077 105.831 408.878 105.748 408.731 105.601C408.584 105.454 408.501 105.255 408.501 105.047C408.501 104.839 408.584 104.639 408.731 104.492C408.878 104.345 409.077 104.263 409.285 104.263H429.412C429.62 104.263 429.82 104.345 429.967 104.492C430.114 104.639 430.196 104.839 430.196 105.047C430.196 105.255 430.114 105.454 429.967 105.601C429.82 105.748 429.62 105.831 429.412 105.831ZM406.149 105.831H405.208C405 105.831 404.801 105.748 404.653 105.601C404.506 105.454 404.424 105.255 404.424 105.047C404.424 104.839 404.506 104.639 404.653 104.492C404.801 104.345 405 104.263 405.208 104.263H406.149C406.357 104.263 406.556 104.345 406.703 104.492C406.85 104.639 406.933 104.839 406.933 105.047C406.933 105.255 406.85 105.454 406.703 105.601C406.556 105.748 406.357 105.831 406.149 105.831Z" fill="white"/>
<path d="M448.807 130.602H396.27C396.062 130.602 395.862 130.52 395.715 130.373C395.568 130.226 395.486 130.026 395.486 129.818C395.486 129.61 395.568 129.411 395.715 129.264C395.862 129.117 396.062 129.034 396.27 129.034H448.806C449.014 129.034 449.214 129.117 449.361 129.264C449.508 129.411 449.591 129.61 449.591 129.818C449.591 130.026 449.508 130.226 449.361 130.373C449.214 130.52 449.015 130.602 448.807 130.602ZM393.133 130.602H392.192C391.984 130.602 391.785 130.52 391.638 130.373C391.491 130.226 391.408 130.026 391.408 129.818C391.408 129.61 391.491 129.411 391.638 129.264C391.785 129.117 391.984 129.034 392.192 129.034H393.133C393.341 129.034 393.541 129.117 393.688 129.264C393.835 129.411 393.917 129.61 393.917 129.818C393.917 130.026 393.835 130.226 393.688 130.373C393.541 130.52 393.341 130.602 393.133 130.602Z" fill="#C5E5FE"/>
<path d="M418.07 127.466C418.503 127.466 418.854 127.115 418.854 126.682C418.854 126.249 418.503 125.897 418.07 125.897C417.637 125.897 417.286 126.249 417.286 126.682C417.286 127.115 417.637 127.466 418.07 127.466Z" fill="black"/>
<path d="M382.045 150.216C382.478 150.216 382.829 149.865 382.829 149.432C382.829 148.999 382.478 148.647 382.045 148.647C381.612 148.647 381.261 148.999 381.261 149.432C381.261 149.865 381.612 150.216 382.045 150.216Z" fill="black"/>
<path d="M457.69 133.905H455.238V129.819C455.238 127.657 453.479 125.898 451.317 125.898H437.586V115.08C437.586 113.783 436.53 112.728 435.233 112.728H433.332V103.478C433.332 102.181 432.276 101.126 430.979 101.126H403.64C402.343 101.126 401.288 102.181 401.288 103.478V112.728H399.386C398.089 112.728 397.034 113.783 397.034 115.08V125.898H389.682C387.52 125.898 385.762 127.657 385.762 129.819V133.905H383.613C382.307 133.905 381.261 134.97 381.261 136.258V146.294C381.261 146.502 381.343 146.702 381.49 146.849C381.637 146.996 381.837 147.078 382.045 147.078C382.253 147.078 382.452 146.996 382.599 146.849C382.746 146.702 382.829 146.502 382.829 146.294V136.259C382.829 136.051 382.911 135.851 383.058 135.704C383.205 135.556 383.405 135.474 383.613 135.473H395.484C395.917 135.473 396.268 135.825 396.268 136.257V159.211H383.613C383.405 159.21 383.205 159.128 383.058 158.98C382.911 158.833 382.829 158.633 382.829 158.425V152.568C382.829 152.36 382.746 152.16 382.599 152.013C382.452 151.866 382.253 151.784 382.045 151.784C381.837 151.784 381.637 151.866 381.49 152.013C381.343 152.16 381.261 152.36 381.261 152.568V158.427C381.261 159.717 382.31 160.779 383.613 160.779H401.288V171.973C401.288 173.271 402.343 174.326 403.64 174.326H430.98C432.277 174.326 433.332 173.271 433.332 171.973V160.779H457.69C458.988 160.779 460.043 159.724 460.043 158.427V136.258C460.043 134.961 458.988 133.905 457.69 133.905ZM435.233 114.296C435.666 114.296 436.017 114.648 436.017 115.08V125.898H433.332V114.296H435.233ZM398.602 115.08C398.602 114.648 398.954 114.296 399.386 114.296H401.288V125.898H398.602V115.08ZM395.484 133.905H387.33V129.819C387.33 128.522 388.385 127.466 389.682 127.466H414.934C415.142 127.466 415.341 127.384 415.488 127.237C415.635 127.09 415.718 126.89 415.718 126.682C415.718 126.474 415.635 126.275 415.488 126.128C415.341 125.981 415.142 125.898 414.934 125.898H402.856V103.478C402.856 103.046 403.208 102.694 403.64 102.694H430.98C431.412 102.694 431.764 103.046 431.764 103.478V125.898H421.207C420.999 125.898 420.8 125.981 420.652 126.128C420.505 126.275 420.423 126.474 420.423 126.682C420.423 126.89 420.505 127.09 420.652 127.237C420.8 127.384 420.999 127.466 421.207 127.466H451.317C452.614 127.466 453.669 128.522 453.669 129.819V133.905H439.136C437.838 133.905 436.783 134.96 436.783 136.258V139.217H397.837V136.258C397.837 134.961 396.782 133.905 395.484 133.905ZM430.98 172.757H403.64C403.433 172.757 403.233 172.675 403.086 172.528C402.939 172.381 402.857 172.181 402.856 171.973V150.782H404.425V170.405C404.425 170.613 404.507 170.812 404.654 170.96C404.801 171.107 405.001 171.189 405.209 171.189H429.411C429.619 171.189 429.819 171.106 429.966 170.959C430.113 170.812 430.196 170.613 430.196 170.405V165.368C430.196 165.16 430.113 164.96 429.966 164.813C429.819 164.666 429.62 164.583 429.412 164.583C429.204 164.583 429.005 164.666 428.857 164.813C428.71 164.96 428.628 165.16 428.628 165.368V169.621H418.094V157.28C421.507 156.915 424.227 154.196 424.592 150.782H428.628V159.095C428.628 159.303 428.711 159.502 428.858 159.649C429.005 159.796 429.204 159.879 429.412 159.879C429.62 159.879 429.82 159.796 429.967 159.649C430.114 159.502 430.196 159.303 430.196 159.095V150.782H431.764V171.974C431.764 172.182 431.681 172.381 431.534 172.528C431.387 172.675 431.187 172.757 430.98 172.757ZM416.526 150.782V169.621H405.993V150.782H416.526ZM423.006 150.782C422.657 153.328 420.64 155.345 418.094 155.694V150.782H423.006ZM433.332 150.782H434.392C434.6 150.782 434.8 150.699 434.947 150.552C435.094 150.405 435.176 150.206 435.176 149.998C435.176 149.79 435.094 149.591 434.947 149.443C434.8 149.296 434.6 149.214 434.392 149.214H400.228C400.02 149.214 399.82 149.296 399.673 149.443C399.526 149.591 399.444 149.79 399.444 149.998C399.444 150.206 399.526 150.405 399.673 150.552C399.82 150.699 400.02 150.782 400.228 150.782H401.288V159.211H397.837V140.785H436.783V159.211H433.332V150.782ZM458.475 158.427C458.475 158.859 458.123 159.211 457.69 159.211H438.352V136.258C438.352 135.825 438.703 135.474 439.136 135.474H457.69C458.123 135.474 458.475 135.825 458.475 136.258V158.427Z" fill="black"/>
<path d="M429.412 163.016C429.845 163.016 430.196 162.664 430.196 162.231C430.196 161.798 429.845 161.447 429.412 161.447C428.979 161.447 428.628 161.798 428.628 162.231C428.628 162.664 428.979 163.016 429.412 163.016Z" fill="black"/>
<path d="M412.061 157.32C412.21 157.462 412.407 157.54 412.612 157.537C412.817 157.535 413.013 157.453 413.158 157.308C413.303 157.163 413.385 156.967 413.387 156.762C413.39 156.557 413.312 156.36 413.17 156.211C413.123 156.164 413.086 156.108 413.06 156.047C413.035 155.985 413.021 155.919 413.021 155.852C413.021 155.785 413.035 155.719 413.06 155.658C413.086 155.596 413.123 155.54 413.17 155.493C413.559 155.103 413.778 154.575 413.778 154.025C413.778 153.475 413.559 152.947 413.17 152.557C413.098 152.484 413.011 152.426 412.916 152.387C412.821 152.348 412.719 152.327 412.616 152.327C412.513 152.327 412.411 152.348 412.316 152.387C412.221 152.426 412.134 152.484 412.061 152.557C411.989 152.63 411.931 152.716 411.891 152.811C411.852 152.907 411.832 153.009 411.832 153.112C411.832 153.215 411.852 153.317 411.891 153.412C411.931 153.507 411.989 153.593 412.061 153.666C412.156 153.761 412.21 153.891 412.21 154.025C412.21 154.16 412.156 154.289 412.061 154.385C411.868 154.577 411.715 154.806 411.611 155.058C411.506 155.31 411.453 155.58 411.453 155.853C411.453 156.125 411.506 156.395 411.611 156.647C411.715 156.899 411.868 157.128 412.061 157.32ZM409.09 164.072C408.898 164.264 408.744 164.493 408.64 164.745C408.536 164.997 408.482 165.267 408.482 165.54C408.482 165.812 408.536 166.082 408.64 166.334C408.744 166.586 408.898 166.815 409.09 167.008C409.239 167.149 409.436 167.227 409.641 167.225C409.846 167.222 410.042 167.14 410.187 166.995C410.332 166.85 410.414 166.654 410.417 166.449C410.419 166.245 410.341 166.047 410.2 165.899C410.152 165.851 410.115 165.796 410.089 165.734C410.064 165.672 410.051 165.606 410.051 165.54C410.051 165.473 410.064 165.407 410.089 165.345C410.115 165.284 410.152 165.228 410.2 165.18C410.392 164.988 410.546 164.759 410.65 164.507C410.754 164.255 410.808 163.985 410.808 163.712C410.808 163.44 410.754 163.17 410.65 162.918C410.546 162.666 410.392 162.437 410.2 162.244C410.127 162.171 410.04 162.114 409.945 162.074C409.85 162.035 409.748 162.014 409.645 162.014C409.542 162.014 409.44 162.035 409.345 162.074C409.25 162.114 409.164 162.171 409.091 162.244C409.018 162.317 408.96 162.404 408.921 162.499C408.881 162.594 408.861 162.696 408.861 162.799C408.861 162.902 408.881 163.004 408.921 163.099C408.96 163.194 409.018 163.28 409.091 163.353C409.186 163.448 409.239 163.578 409.239 163.712C409.239 163.847 409.186 163.976 409.09 164.072ZM411.919 134.125H422.701C422.909 134.125 423.108 134.042 423.255 133.895C423.402 133.748 423.485 133.549 423.485 133.341C423.485 133.133 423.402 132.933 423.255 132.786C423.108 132.639 422.909 132.557 422.701 132.557H411.919C411.711 132.557 411.512 132.639 411.365 132.786C411.218 132.933 411.135 133.133 411.135 133.341C411.135 133.549 411.218 133.748 411.365 133.895C411.512 134.042 411.711 134.125 411.919 134.125ZM454.599 138.73H442.227C441.769 138.73 441.331 138.912 441.007 139.235C440.684 139.559 440.502 139.997 440.502 140.455V154.228C440.502 155.18 441.276 155.954 442.227 155.954H454.599C455.55 155.954 456.324 155.18 456.324 154.228V140.455C456.324 139.503 455.55 138.73 454.599 138.73ZM454.756 140.455V143.181H451.573V140.298H454.599C454.641 140.298 454.681 140.314 454.71 140.344C454.739 140.373 454.756 140.413 454.756 140.455ZM450.004 143.181H446.821V140.298H450.004V143.181ZM442.07 140.455C442.07 140.413 442.086 140.373 442.116 140.344C442.145 140.314 442.185 140.298 442.226 140.298H445.253V143.181H442.07V140.455ZM442.07 154.228V144.749H445.253V154.385H442.226C442.185 154.385 442.145 154.369 442.116 154.339C442.086 154.31 442.07 154.27 442.07 154.228ZM446.821 144.749H450.004V154.386H446.821V144.749ZM454.599 154.385H451.573V144.749H454.756V154.228C454.756 154.27 454.739 154.31 454.71 154.339C454.681 154.369 454.641 154.385 454.599 154.385ZM390.983 155.954C391.935 155.954 392.708 155.18 392.708 154.228V140.455C392.708 139.503 391.935 138.73 390.983 138.73H388.114C387.656 138.73 387.218 138.912 386.894 139.235C386.571 139.559 386.389 139.997 386.389 140.455V154.228C386.389 155.18 387.162 155.954 388.114 155.954H390.983ZM388.114 140.298H390.983C391.025 140.298 391.065 140.314 391.094 140.344C391.124 140.373 391.14 140.413 391.14 140.455V143.181H387.957V140.455C387.957 140.413 387.973 140.373 388.003 140.344C388.032 140.314 388.072 140.298 388.114 140.298ZM387.957 154.228V144.749H391.14V154.228C391.14 154.27 391.124 154.31 391.094 154.339C391.065 154.369 391.025 154.385 390.983 154.385H388.114C388.072 154.385 388.032 154.369 388.003 154.339C387.973 154.31 387.957 154.27 387.957 154.228Z" fill="black"/>
</g>
<g style="mix-blend-mode:multiply" opacity="0.51">
<path d="M110.237 258.899C134.051 258.899 153.356 254.784 153.356 249.708C153.356 244.632 134.051 240.518 110.237 240.518C86.4224 240.518 67.1172 244.632 67.1172 249.708C67.1172 254.784 86.4224 258.899 110.237 258.899Z" fill="#FAE3DB"/>
</g>
<mask id="mask0_587_145384" style="mask-type:luminance" maskUnits="userSpaceOnUse" x="36" y="81" width="146" height="184">
<path d="M181.344 81.2324H36.1963V264.838H181.344V81.2324Z" fill="white"/>
</mask>
<g mask="url(#mask0_587_145384)">
<path d="M40.8373 175.621H35.2432V260.127H40.8373V175.621Z" fill="#AA6EE7"/>
<path d="M40.843 175.621V178.035L35.2432 184.71V175.621H40.843Z" fill="#351E3B"/>
<path d="M97.4137 138.574H92.0635V211.362H97.4137V138.574Z" fill="#AA6EE7"/>
<path d="M97.4137 138.574V140.659L92.0635 146.402V138.574H97.4137Z" fill="#351E3B"/>
<path d="M136.642 140.969H131.048V220.226H136.642V140.969Z" fill="#AA6EE7"/>
<path d="M136.642 140.969V143.235L131.048 149.489V140.969H136.642Z" fill="#351E3B"/>
<path d="M153.283 105.07C154.049 103.559 154.491 101.855 154.491 100.043C154.491 93.8797 149.504 88.8867 143.348 88.8867C137.192 88.8867 132.205 93.8797 132.205 100.043C132.205 100.452 132.234 100.861 132.273 101.258C132.302 101.69 132.404 102.679 132.727 104.053C132.642 105.735 132.466 107.41 132.183 109.069C132.16 109.205 132.143 109.359 132.228 109.461C132.279 109.523 132.358 109.552 132.432 109.58C133.249 109.881 134.123 110.023 134.991 110.018C136.863 113.715 138.877 116.05 140.852 116.005C141.493 115.988 142.633 115.607 143.967 114.942L143.984 114.988L145.686 118.987L146.446 120.765C146.446 120.765 152.295 123.917 157.64 113.511L153.288 105.081L153.283 105.07Z" fill="#FF8B9B"/>
<path d="M135.989 104.148C136.182 104.614 136.034 105.12 135.666 105.273C135.291 105.427 134.832 105.177 134.639 104.711C134.446 104.245 134.593 103.74 134.962 103.586C135.336 103.433 135.796 103.683 135.989 104.148Z" fill="#351E3B"/>
<path d="M135.49 110.997C136.256 110.707 136.909 110.134 137.289 109.412" stroke="#351E3B" stroke-width="0.459079" stroke-linecap="round" stroke-linejoin="round"/>
<path d="M133.697 102.233C133.686 102.364 133.731 102.512 133.839 102.585C133.89 102.619 133.947 102.637 134.003 102.648C134.525 102.761 135.098 102.642 135.53 102.318C136.103 101.898 136.091 100.881 135.235 100.893C134.616 100.898 133.754 101.603 133.691 102.233H133.697Z" fill="#492A51"/>
<path d="M142.316 84.017C140.534 84.2726 139.405 84.318 137.731 84.977C135.791 85.7438 134.095 87.0162 132.54 88.4079C130.469 90.2597 128.563 92.4409 127.757 95.0993C127.559 95.7639 127.491 96.6273 128.069 97.0136C128.608 97.3714 129.374 97.0704 129.953 97.3601C129.142 98.4905 128.438 99.6265 128.205 101.001C128.058 101.842 128.058 102.79 128.608 103.444C129.204 104.148 130.288 104.267 131.15 103.949C132.012 103.631 132.693 102.955 133.3 102.262C134.883 100.439 136.131 98.3257 136.96 96.0593C137.011 96.2297 137.028 96.4626 137.079 96.633C137.215 97.0988 137.357 97.5646 137.59 97.9906C137.822 98.4166 138.157 98.7972 138.599 99.0017C139.433 99.3879 140.46 99.0244 141.102 98.3598C141.743 97.7009 141.919 96.8034 142.191 95.9286C142.214 96.8034 142.327 98.0588 142.866 99.0301C143.24 99.706 143.587 99.6152 144.347 99.7401C145.062 99.8594 145.794 99.5186 146.316 99.0187C146.838 98.5132 147.189 97.8656 147.535 97.2294C147.558 98.1667 147.672 99.2857 148.148 100.092C148.63 100.893 149.589 101.478 150.497 101.245C150.94 101.132 151.308 100.848 151.671 100.569C151.257 101.723 149.22 103.518 149.481 104.262C149.816 105.239 154.542 108.09 154.939 108.039C155.564 107.96 157.039 105.625 157.436 105.136C160 102.001 159.734 96.7182 158.366 92.9067C157.64 90.8902 156.335 89.0554 154.559 87.8626C152.783 86.664 150.531 86.1414 148.443 86.5959C148.108 85.7552 147.507 85.2099 146.701 84.8066C145.896 84.4033 144.999 84.2044 144.114 84.034C143.842 83.9829 142.594 83.9829 142.316 84.0227V84.017Z" fill="#492A51"/>
<path d="M146.412 97.1745C147.217 96.5099 148.341 96.1975 149.345 96.4872C150.866 96.9246 151.762 98.6117 151.768 100.196C151.768 101.333 151.388 102.486 150.627 103.326C149.867 104.167 148.715 104.673 147.581 104.559C147.189 104.519 146.792 104.4 146.486 104.15C146.009 103.752 145.839 103.105 145.697 102.503C145.561 101.912 145.436 101.321 145.283 100.736C145.186 100.373 144.971 99.9806 144.971 99.6C144.971 98.7309 145.776 97.6914 146.412 97.1745Z" fill="#FF8B9B"/>
<path d="M145.651 102.06C145.759 102.128 145.884 102.196 146.009 102.156C146.202 102.099 146.23 101.832 146.213 101.628C146.111 100.407 145.799 99.208 145.436 98.0322C145.305 97.6061 145.135 97.1403 144.744 96.9245C144.494 96.7825 144.199 96.7711 143.915 96.7598C143.717 96.7598 143.512 96.7598 143.342 96.8563C142.554 97.3335 142.786 99.0433 143.251 99.6738C143.915 100.577 144.698 101.457 145.651 102.054V102.06Z" fill="#492A51"/>
<path d="M148.103 101.603C147.893 100.495 148.245 99.2967 149.022 98.4844" stroke="#351E3B" stroke-width="0.582678" stroke-linecap="round" stroke-linejoin="round"/>
<path d="M148.936 111.117C148.273 113.94 147.189 116.519 145.685 118.979L143.983 114.98C146.094 113.645 147.495 112.702 148.942 111.117H148.936Z" fill="#351E3B"/>
<path d="M86.1748 256.991C85.8741 257.593 59.0322 256.241 59.0322 255.338C59.0322 254.435 74.7765 246.329 74.7765 246.329L74.8559 244.5L75.0715 239.729L86.3166 240.774C86.3166 240.774 86.0954 243.705 85.9081 245.687C85.84 246.505 85.7663 247.164 85.7209 247.38C85.5677 248.13 86.4698 256.389 86.1748 256.985V256.991Z" fill="#FF8B9B"/>
<path d="M86.1748 256.992C85.8741 257.595 59.0322 256.243 59.0322 255.339C59.0322 254.436 74.7765 246.33 74.7765 246.33L74.8559 244.501C74.9921 244.388 75.1339 244.286 75.2701 244.183C75.463 244.041 75.6729 243.911 75.9169 243.899C76.3821 243.877 76.7282 244.297 76.9665 244.7C77.3296 245.314 77.6303 245.95 77.8686 246.62C80.5522 246.654 83.2983 246.365 85.9025 245.683C85.8344 246.501 85.7606 247.16 85.7152 247.376C85.562 248.125 86.4641 256.385 86.1691 256.981L86.1748 256.992Z" fill="white"/>
<path d="M126.899 234.641C126.996 235.261 105.72 248.723 105.238 248.036C104.755 247.348 112.432 232.636 112.432 232.636L111.507 231.193L109.101 227.422L118.27 222.15C118.27 222.15 119.683 224.519 120.602 226.132C120.988 226.797 121.288 227.337 121.368 227.53C121.657 228.189 126.797 234.017 126.888 234.636L126.899 234.641Z" fill="#FF8B9B"/>
<path d="M126.9 234.64C126.996 235.259 105.72 248.722 105.238 248.034C104.756 247.347 112.035 232.902 112.035 232.902L111.513 231.192C111.558 231.033 111.609 230.874 111.66 230.726C111.734 230.516 111.825 230.3 112.001 230.164C112.341 229.897 112.835 230.033 113.238 230.21C113.845 230.482 114.418 230.812 114.968 231.192C117.039 229.772 118.991 228.062 120.613 226.137C120.999 226.801 121.3 227.341 121.379 227.534C121.669 228.193 126.809 234.021 126.9 234.64Z" fill="white"/>
<path d="M122.6 223.068L107.162 230.577L97.3748 207.827L94.5664 201.301L114.407 201.437H114.43L116.903 201.454L116.943 201.608L117.136 202.323L122.6 223.068Z" fill="#7581FF"/>
<path d="M117.136 202.323L97.3748 207.827L94.5664 201.301L114.407 201.437H114.43L116.943 201.608L117.136 202.323Z" fill="#351E3B"/>
<path d="M135.898 165.028C135.898 165.028 86.7248 162.023 84.3249 178.235C84.3249 178.235 71.1338 181.234 70.9295 197.849C70.7309 214.459 72.1266 241.679 72.1266 241.679L90.5148 244.081L93.3119 203.251C93.3119 203.251 124.846 204.904 139.087 198.65C152.925 192.572 155.881 182.887 158.275 177.889L135.887 165.028H135.898Z" fill="#7581FF"/>
<path d="M86.6396 243.343C87.1616 230.352 87.8992 217.373 88.858 204.41C88.9431 203.234 89.0509 202.008 89.675 201.002C90.2991 200.002 91.3601 199.355 92.4494 198.895C95.7458 197.486 99.4336 197.435 103.014 197.185C109.402 196.742 115.723 195.623 122.026 194.504C125.39 193.907 128.778 193.305 132 192.152C139.489 189.477 145.844 183.762 149.299 176.594" stroke="#351E3B" stroke-width="0.459079" stroke-linecap="round" stroke-linejoin="round"/>
<path d="M141.248 172.764C138.792 177.308 138.287 182.869 139.887 187.782" stroke="#351E3B" stroke-width="0.459079" stroke-linecap="round" stroke-linejoin="round"/>
<path d="M84.3193 178.241C84.3193 178.241 119.501 172.635 121.901 171.635C124.301 170.635 127.898 167.432 127.898 167.432" stroke="#351E3B" stroke-width="0.459079" stroke-linecap="round" stroke-linejoin="round"/>
<path d="M84.9155 175.621H79.3213V260.127H84.9155V175.621Z" fill="#AA6EE7"/>
<path d="M84.9211 175.621V178.035L79.3213 184.71V175.621H84.9211Z" fill="#351E3B"/>
<path d="M144.959 136.181V136.21L144.681 141.822L93.6358 177.477L93.3295 177.687H26.29V171.666L94.328 136.045L122.685 136.124L144.959 136.181Z" fill="#AA6EE7"/>
<g style="mix-blend-mode:screen" opacity="0.45">
<path d="M25.9492 171.752H93.2269L145.084 136.126L94.3446 136.018L25.9492 171.752Z" fill="#AA6EE7"/>
</g>
<g style="mix-blend-mode:multiply" opacity="0.31">
<path d="M145.083 136.127L144.681 141.824L93.6351 177.48L93.2266 171.754L144.959 136.212L145.083 136.127Z" fill="#AA6EE7"/>
</g>
<path d="M57.4893 164.394C57.6368 164.394 90.2998 147.943 90.2998 147.943L101.67 151.647L68.9102 169.057L57.4893 164.394Z" fill="#351E3B"/>
<path d="M69.0064 168.573C69.0064 168.573 68.9837 168.573 68.9781 168.567L58.6067 164.273C58.5727 164.262 58.5556 164.228 58.567 164.199C58.5727 164.176 58.5953 164.154 58.618 164.148C59.1514 163.944 89.8569 148.408 90.1633 148.249C90.1803 148.237 90.203 148.237 90.2257 148.249L100.796 151.674C100.796 151.674 100.841 151.708 100.847 151.731C100.847 151.759 100.835 151.782 100.813 151.793L69.0518 168.567C69.0518 168.567 69.0291 168.579 69.0178 168.579L69.0064 168.573ZM58.7996 164.205L69.0007 168.431L100.591 151.748L90.203 148.379C79.043 154.026 60.7173 163.29 58.7996 164.205Z" fill="#492A51"/>
<path d="M60.5527 165.05C60.5527 165.05 60.5016 165.039 60.4902 165.016C60.4732 164.982 60.4846 164.943 60.5186 164.926L92.2568 148.93C92.2908 148.913 92.3362 148.924 92.3533 148.958C92.3703 148.992 92.3589 149.032 92.3249 149.049L60.5867 165.045C60.5867 165.045 60.564 165.05 60.5527 165.05Z" fill="#492A51"/>
<path d="M62.5722 165.783C62.5722 165.783 62.5211 165.771 62.5098 165.749C62.4928 165.715 62.5041 165.675 62.5381 165.658L94.3274 149.594C94.3614 149.577 94.4068 149.588 94.4295 149.622C94.4465 149.656 94.4352 149.696 94.4011 149.713L62.6119 165.777C62.6119 165.777 62.5892 165.783 62.5779 165.783H62.5722Z" fill="#492A51"/>
<path d="M64.5917 166.766C64.5917 166.766 64.5407 166.755 64.5293 166.732C64.5123 166.698 64.5236 166.658 64.5577 166.641L96.4434 150.305C96.4774 150.288 96.5228 150.299 96.5455 150.333C96.5625 150.367 96.5512 150.407 96.5171 150.424L64.6314 166.761C64.6314 166.761 64.6087 166.766 64.5974 166.766H64.5917Z" fill="#492A51"/>
<path d="M66.8105 167.658C66.8105 167.658 66.7594 167.647 66.7481 167.624C66.731 167.59 66.7424 167.55 66.7764 167.533L98.5884 150.987C98.6224 150.969 98.6678 150.981 98.6905 151.009C98.7075 151.043 98.6962 151.083 98.6621 151.1L66.8502 167.647C66.8502 167.647 66.8275 167.658 66.8161 167.658H66.8105Z" fill="#492A51"/>
<path d="M70.9694 167.486C70.9694 167.486 70.9523 167.486 70.941 167.486L60.6604 163.294C60.6264 163.277 60.6093 163.238 60.6207 163.203C60.6377 163.169 60.6774 163.152 60.7115 163.164L70.9921 167.356C71.0261 167.373 71.0431 167.413 71.0318 167.447C71.0204 167.475 70.9921 167.492 70.9694 167.492V167.486Z" fill="#492A51"/>
<path d="M74.084 165.832C74.084 165.832 74.067 165.832 74.0557 165.832L63.7581 161.714C63.724 161.697 63.707 161.657 63.7183 161.623C63.7354 161.589 63.7751 161.572 63.8091 161.584L74.1067 165.702C74.1408 165.719 74.1578 165.759 74.1464 165.793C74.1351 165.821 74.1067 165.838 74.084 165.838V165.832Z" fill="#492A51"/>
<path d="M77.1985 164.179C77.1985 164.179 77.1815 164.179 77.1702 164.179L66.8499 160.134C66.8158 160.123 66.7988 160.078 66.8101 160.044C66.8215 160.01 66.8669 159.987 66.9009 160.004L77.2212 164.048C77.2553 164.06 77.2723 164.105 77.2609 164.139C77.2496 164.168 77.2212 164.185 77.1929 164.185L77.1985 164.179Z" fill="#492A51"/>
<path d="M80.3079 162.533C80.3079 162.533 80.2908 162.533 80.2852 162.533L69.9478 158.562C69.9138 158.551 69.8911 158.505 69.9081 158.471C69.9195 158.437 69.9649 158.415 69.9989 158.432L80.3362 162.402C80.3703 162.413 80.393 162.459 80.3759 162.493C80.3646 162.521 80.3362 162.538 80.3079 162.538V162.533Z" fill="#492A51"/>
<path d="M83.4225 160.879C83.4225 160.879 83.4055 160.879 83.3998 160.879L73.0455 156.982C73.0115 156.971 72.9888 156.931 73.0058 156.891C73.0171 156.857 73.0568 156.834 73.0966 156.851L83.4509 160.748C83.4849 160.76 83.5076 160.799 83.4906 160.839C83.4793 160.867 83.4509 160.885 83.4225 160.885V160.879Z" fill="#492A51"/>
<path d="M86.538 159.225C86.538 159.225 86.521 159.225 86.5153 159.225L76.1383 155.408C76.1042 155.397 76.0815 155.357 76.0986 155.317C76.1099 155.283 76.1496 155.26 76.1893 155.277L86.5664 159.094C86.6004 159.106 86.6231 159.146 86.6061 159.185C86.5947 159.214 86.5664 159.231 86.538 159.231V159.225Z" fill="#492A51"/>
<path d="M89.6468 157.579C89.6468 157.579 89.6298 157.579 89.6241 157.579L79.2301 153.836C79.196 153.824 79.1733 153.785 79.1904 153.745C79.2017 153.711 79.2414 153.688 79.2811 153.705L89.6752 157.448C89.7092 157.46 89.7319 157.499 89.7149 157.539C89.7036 157.568 89.6752 157.585 89.6468 157.585V157.579Z" fill="#492A51"/>
<path d="M92.7614 155.928C92.7614 155.928 92.7444 155.928 92.7387 155.928L82.3276 152.258C82.2936 152.247 82.2709 152.207 82.2822 152.168C82.2936 152.133 82.3333 152.111 82.373 152.122L92.7841 155.792C92.8182 155.803 92.8408 155.843 92.8295 155.882C92.8181 155.911 92.7898 155.928 92.7614 155.928Z" fill="#492A51"/>
<path d="M95.8769 154.272C95.8769 154.272 95.8599 154.272 95.8542 154.272L85.4204 150.676C85.3864 150.665 85.3637 150.625 85.375 150.586C85.3864 150.551 85.4261 150.529 85.4658 150.54L95.8996 154.136C95.9336 154.147 95.9563 154.187 95.945 154.227C95.9336 154.255 95.9053 154.272 95.8769 154.272Z" fill="#492A51"/>
<path d="M98.9916 152.626C98.9916 152.626 98.9745 152.626 98.9689 152.626L88.5181 149.104C88.484 149.093 88.4613 149.053 88.4727 149.013C88.484 148.979 88.5237 148.956 88.5635 148.968L99.0143 152.49C99.0483 152.501 99.071 152.541 99.0596 152.58C99.0483 152.609 99.0199 152.626 98.9916 152.626Z" fill="#492A51"/>
<path d="M131.672 135.038C131.672 135.038 127.099 132.601 125.788 132.226C124.477 131.851 121.215 130.613 120.279 131.249C119.343 131.885 115.893 135.64 116.568 136.35C117.244 137.06 120.954 134.135 120.954 134.135L128.074 136.986L131.672 135.032V135.038Z" fill="#FF8B9B"/>
<path d="M120.063 136.107C120.074 136.823 120.375 137.556 120.942 137.993C121.084 138.107 121.249 138.198 121.43 138.226C121.612 138.254 121.81 138.203 121.93 138.067C122.088 137.891 122.083 137.63 122.106 137.397C122.168 136.749 122.52 136.124 122.44 135.477C122.361 134.841 121.708 134.108 121.01 134.216C120.228 134.341 120.052 135.465 120.063 136.102V136.107Z" fill="#FF8B9B"/>
<path d="M122.049 135.879C122.061 136.708 122.361 137.555 122.929 138.06C123.071 138.191 123.235 138.299 123.417 138.333C123.598 138.367 123.797 138.31 123.916 138.151C124.075 137.947 124.069 137.645 124.092 137.373C124.154 136.623 124.506 135.902 124.427 135.152C124.347 134.419 123.695 133.567 122.997 133.692C122.214 133.834 122.038 135.135 122.049 135.873V135.879Z" fill="#FF8B9B"/>
<path d="M118.441 136.089L129.612 126.37C129.612 126.37 130.889 126.257 130.622 127.421L120.166 137.401L118.066 138.225L118.441 136.084V136.089Z" fill="#351E3B"/>
<path d="M136.993 143.894C136.993 143.894 126.65 140.14 125.373 139.168C124.097 138.197 119.15 135.493 119.825 134.442C120.5 133.391 125.22 134.817 126.122 134.965C127.025 135.112 131.444 134.965 131.671 135.039C131.898 135.112 140.67 137.964 140.891 138.038C141.118 138.112 136.993 143.894 136.993 143.894Z" fill="#FF8B9B"/>
<path d="M126.349 135.34C126.349 135.34 124.925 134.738 123.087 134.363C121.306 134 120.239 133.687 119.864 134.363C119.49 135.039 120.125 135.528 120.466 135.789C120.801 136.05 123.388 137.59 124.137 138.226C124.886 138.862 126.162 139.578 126.162 139.578" stroke="#351E3B" stroke-width="0.22954" stroke-linecap="round" stroke-linejoin="round"/>
<path d="M146.44 120.754C145.992 121.004 140.891 135.71 139.246 143.969C137.595 152.223 133.55 161.533 133.55 161.533C133.55 161.533 133.101 169.491 138.349 172.791C143.598 176.091 155.739 178.943 158.292 178.347C158.292 178.347 160.84 169.042 162.939 162.885C164.913 157.096 166.445 151.195 167.319 145.185C168.187 139.186 169.083 132.79 167.137 126.9C165.441 121.759 161.708 116.999 157.64 113.5L146.446 120.754H146.44Z" fill="#FFB18A"/>
<path d="M138.792 140.217L129.198 152.077L96.8129 154.327L93.2158 161.234C93.2158 161.234 124.398 167.988 132.647 165.585C140.891 163.182 152.885 148.323 152.885 148.323L138.792 140.217Z" fill="#FF8B9B"/>
<path d="M93.2159 161.233C93.2159 161.233 90.016 161.483 88.1664 160.836C86.3168 160.182 82.7424 158.194 81.5566 158.194C80.3708 158.194 76.161 159.433 75.4121 158.87C74.6632 158.308 76.5355 157.297 76.5355 157.297C76.5355 157.297 75.1227 157.336 74.9979 156.359C74.8844 155.456 76.4957 154.746 76.4957 154.746C76.4957 154.746 74.3228 154.434 75.2192 153.434C76.1156 152.434 78.8049 151.861 82.1183 151.406C82.1183 151.406 82.2204 149.878 83.1679 149.532C84.1154 149.18 87.9167 149.884 90.5152 151.185L96.813 154.337L93.2159 161.245V161.233Z" fill="#FF8B9B"/>
<path d="M76.5352 157.292C76.5352 157.292 79.667 155.712 82.5265 155.945" stroke="#351E3B" stroke-width="0.22954" stroke-linecap="round" stroke-linejoin="round"/>
<path d="M76.501 154.741C76.501 154.741 79.247 153.4 83.1731 153.73" stroke="#351E3B" stroke-width="0.22954" stroke-linecap="round" stroke-linejoin="round"/>
<path d="M82.0215 151.401C82.0215 151.401 83.7179 151.078 85.0682 151.452" stroke="#351E3B" stroke-width="0.22954" stroke-linecap="round" stroke-linejoin="round"/>
<path d="M136.545 141.266C136.545 141.266 146.139 121.902 155.438 123.555C164.731 125.208 162.632 139.318 153.64 151.326L136.551 141.272L136.545 141.266Z" fill="#FFB18A"/>
<path d="M136.545 141.267C136.545 141.267 140.091 133.712 144.392 129.111" stroke="#351E3B" stroke-width="0.459079" stroke-linecap="round" stroke-linejoin="round"/>
<path d="M151.688 150.121C151.688 150.121 158.082 143.918 161.185 135.812" stroke="#351E3B" stroke-width="0.459079" stroke-linecap="round" stroke-linejoin="round"/>
<path d="M176.278 122.201C176.278 122.201 160.687 167.434 160.687 174.034C160.687 180.635 165.204 196.812 157.487 199.249C149.89 201.652 103.713 204.452 103.713 204.452" stroke="#492A51" stroke-width="2.73682" stroke-linecap="round" stroke-linejoin="round"/>
<path d="M134.498 202.459V237.109L115.707 250.935" stroke="#492A51" stroke-width="0.865188" stroke-linecap="round" stroke-linejoin="round"/>
<path d="M152.887 250.572L134.498 237.109L134.3 253.94" stroke="#492A51" stroke-width="0.865188" stroke-linecap="round" stroke-linejoin="round"/>
<path d="M99.3262 146.033L110.537 137.904L123.445 138.154L113.493 147.345L99.3262 146.033Z" fill="#492A51"/>
<path d="M102.708 146.265L113.448 137.943" stroke="#FFF3EA" stroke-width="0.22954" stroke-linecap="round" stroke-linejoin="round"/>
<path d="M87.9961 133.754C88.0812 134.805 88.3081 135.867 88.8698 136.753C89.4315 137.639 90.3733 138.327 91.4116 138.372C92.4499 138.417 93.5279 137.702 93.7208 136.662C93.7832 136.333 93.7491 135.969 93.5392 135.708C93.1761 135.259 92.4215 135.333 92.013 135.736C91.6045 136.14 91.4797 136.759 91.4854 137.338C91.4854 138.588 92.013 139.838 92.9208 140.684C93.8342 141.53 95.1278 141.945 96.3477 141.74C98.2483 141.428 99.6667 139.792 101.477 139.127C103.411 138.417 105.737 138.974 107.156 140.485" stroke="#351E3B" stroke-width="0.450251" stroke-linecap="round" stroke-linejoin="round"/>
<path d="M93.8232 142.461L88.195 145.767L80.042 145.466V136.463L87.0035 133.611V142.461H93.8232Z" fill="#492A51"/>
<path d="M87.0035 134.74V135.984L80.042 142.426V136.899L87.0035 134.74Z" fill="#351E3B"/>
<path d="M105.505 126.391L62.4876 148.055L60.5245 149.044L57.9657 148.396L56.6722 104.987L56.6211 103.209H56.6268L59.56 102.141L61.5231 101.426L101.641 85.8672L104.421 86.1455L105.505 126.391Z" fill="#492A51"/>
<path d="M60.5247 149.045L57.9659 148.398L56.6723 104.989L56.627 103.211L59.407 103.966L60.5247 149.045Z" fill="#351E3B"/>
<path d="M61.8584 104.419L62.6414 144L103.435 124.59L102.708 89.0371L61.8584 104.419Z" fill="#FAE3DB"/>
<path d="M65.3252 104.689L66.0174 138.714L83.7985 130.386L83.7474 97.2871L65.3252 104.689Z" fill="white"/>
<path d="M67.2031 105.693V110.896L82.3176 104.188V99.4844L67.2031 105.693Z" fill="#FFB18A"/>
<path d="M67.498 112.2V134.313L73.9206 131.41V109.297L67.498 112.2Z" fill="#7581FF"/>
<path d="M75.9971 108.297V114.699L82.2154 111.62L82.1189 105.695L75.9971 108.297Z" fill="#7581FF"/>
<path d="M86.7705 98.0996V104.501L92.9945 101.428L92.898 95.498L86.7705 98.0996Z" fill="#7581FF"/>
<path d="M87.0713 105.677V112.085L93.2896 109.006L93.1931 102.689L87.0713 105.677Z" fill="#FFB18A"/>
<path d="M87.0713 113.738V120.139L93.2896 117.061L93.1931 110.744L87.0713 113.738Z" fill="#AA6EE7"/>
<path d="M87.0713 121.888V128.296L93.2896 125.217L93.1931 118.9L87.0713 121.888Z" fill="#FFA7DA"/>
</g>
<g style="mix-blend-mode:multiply" opacity="0.51">
<path d="M214.847 256.429C238.308 256.429 257.326 252.899 257.326 248.544C257.326 244.19 238.308 240.66 214.847 240.66C191.387 240.66 172.369 244.19 172.369 248.544C172.369 252.899 191.387 256.429 214.847 256.429Z" fill="#FAE3DB"/>
</g>
<path d="M186.99 247.96C186.383 249.17 204.947 246.171 204.947 246.171L206.309 239.678L208.085 231.249L196.232 228.482L195.069 234.577L194.235 238.94C194.235 238.94 187.592 246.756 186.984 247.96H186.99Z" fill="#FF8B9B"/>
<path d="M186.99 247.961C186.383 249.171 204.947 246.172 204.947 246.172L206.309 239.68C205.52 239.174 204.686 238.737 203.795 238.458C202.763 238.152 201.662 238.083 200.595 238.254C200.21 237.14 199.841 236.22 198.973 235.431C198.105 234.647 196.896 234.175 195.745 234.38C195.506 234.425 195.291 234.488 195.075 234.579L194.241 238.941C194.241 238.941 187.597 246.757 186.99 247.961Z" fill="white"/>
<path d="M245.031 251.663C245.383 252.969 227.789 246.34 227.789 246.34L227.738 239.706L227.67 231.089L239.834 230.736L239.766 236.939L239.715 241.381C239.715 241.381 244.674 250.362 245.031 251.663Z" fill="#FF8B9B"/>
<path d="M245.03 251.663C245.382 252.97 227.788 246.341 227.788 246.341L227.737 239.706C228.611 239.365 229.513 239.104 230.444 239.013C231.522 238.916 232.611 239.07 233.621 239.45C234.217 238.434 234.767 237.61 235.771 237.002C236.775 236.406 238.052 236.184 239.141 236.616C239.363 236.707 239.567 236.809 239.76 236.94L239.709 241.382C239.709 241.382 244.667 250.362 245.025 251.663H245.03Z" fill="white"/>
<path d="M239.471 90.3066C239.471 90.3066 247.039 100.242 249.167 108.398C251.295 116.555 250.347 123.656 249.048 125.78C247.749 127.91 239.834 129.921 239.834 129.921L239.471 90.3066Z" fill="#FFA7DA"/>
<path d="M241.876 232.74H225.576L223.863 162.674L209.452 231.15L194.104 230.616H194.014C194.014 230.616 196.635 193.739 197.872 173.444C198.048 170.512 198.195 167.934 198.303 165.872C198.995 152.489 203.415 131.886 204.782 120.69C204.782 120.685 204.788 120.685 204.788 120.679C204.856 120.139 204.913 119.617 204.969 119.117C205.162 117.237 205.242 115.697 205.162 114.607C204.652 107.33 200.011 90.6585 200.011 90.6585C201.747 88.25 204.606 85.9324 207.267 84.0977C208.487 83.2513 209.673 82.5072 210.683 81.9051C212.481 80.8372 213.735 80.1953 213.735 80.1953L227.295 82.6776C227.295 82.6776 229.338 83.2343 232.123 84.7453C233.343 85.4099 234.728 86.2676 236.135 87.3412C237.247 88.1819 238.376 89.1702 239.471 90.3006C241.343 92.2376 241.144 100.65 241.139 109.415C241.133 112.556 241.161 115.737 241.315 118.685C242.029 132.386 241.315 146.354 241.315 146.354L241.876 232.74Z" fill="#FFA7DA"/>
<path d="M220.516 52.9311C217.792 53.9024 216.47 53.5503 214.303 57.2993C213.702 58.3331 212.624 60.3496 211.778 61.196C210.717 62.2639 209.35 62.9739 208.119 63.8487C206.178 65.229 204.556 67.0638 203.529 69.1996C202.502 71.3354 202.093 73.7722 202.479 76.1068C213.077 81.8951 225.724 84.1161 237.667 82.1905C238.603 78.7539 238.138 75.0333 236.736 71.7557C236.419 71.0116 236.056 70.222 236.192 69.4268C236.339 68.552 237.048 67.8988 237.616 67.2171C239.176 65.3426 239.868 62.7865 239.477 60.3894C239.085 57.9923 237.604 55.7883 235.528 54.4989C234.586 53.9138 233.542 53.5162 232.475 53.1981C228.651 52.062 224.266 51.5849 220.51 52.9311H220.516Z" fill="#492A51"/>
<path d="M228.084 77.5951V83.4515C228.084 83.4515 228.731 87.5924 222.824 88.0639C216.918 88.5354 214.206 80.8556 214.206 80.8556L216.095 69.0859L223.386 74.2607L228.084 77.5951Z" fill="#FF8B9B"/>
<path d="M228.084 77.5947V81.2756C225.327 81.1222 222.637 80.0032 220.589 78.1571C218.388 76.1746 216.952 73.3799 216.629 70.4375C218.28 72.2325 220.249 72.9709 222.501 73.9139C222.79 74.0388 223.091 74.1581 223.392 74.2604L228.09 77.5947H228.084Z" fill="#351E3B"/>
<path d="M236.334 59.4989C238.944 64.7305 236.828 71.0925 231.602 73.7054C226.377 76.3184 220.022 74.1996 217.413 68.968C214.803 63.7364 216.919 57.3745 222.144 54.7615C227.37 52.1486 233.724 54.2673 236.334 59.4989Z" fill="#FF8B9B"/>
<path d="M235.953 69.4688C235.953 69.4688 235.068 77.6258 227.494 78.3358C222.547 78.8016 216.601 74.922 216.113 69.9119C215.625 64.9019 216.289 61.755 217.089 60.1588C217.888 58.5626 232.725 61.1358 232.725 61.1358L235.959 69.4745L235.953 69.4688Z" fill="#FF8B9B"/>
<g style="mix-blend-mode:multiply" opacity="0.23">
<path d="M227.562 70.642C227.568 70.4488 227.704 70.2784 227.852 70.1591C228.073 69.9717 228.362 69.8467 228.652 69.8751C228.941 69.9035 229.219 70.1194 229.259 70.4091C229.418 70.3466 229.599 70.3068 229.764 70.3523C229.928 70.3977 230.076 70.5511 230.065 70.7215C229.934 70.8351 229.798 71.0453 229.639 71.1021C229.52 71.1475 229.389 71.1532 229.259 71.1532C228.675 71.1532 228.084 70.9203 227.568 70.642H227.562Z" fill="#D9607B"/>
</g>
<path d="M229.327 71.1209C229.826 71.0527 230.275 70.6892 230.456 70.2121C230.666 69.644 230.394 68.9056 230.076 68.3887" stroke="#351E3B" stroke-width="0.406109" stroke-linecap="round" stroke-linejoin="round"/>
<path d="M228.283 70.8081C228.255 70.6377 228.141 70.4786 227.982 70.4275C227.823 70.3764 227.619 70.4559 227.562 70.615" stroke="#351E3B" stroke-width="0.406109" stroke-linecap="round" stroke-linejoin="round"/>
<path d="M231.982 68.5896C231.829 69.1406 232.153 69.7086 232.703 69.862C233.253 70.0153 233.821 69.6915 233.974 69.1406C234.127 68.5896 233.804 68.0215 233.253 67.8682C232.703 67.7148 232.136 68.0386 231.982 68.5896Z" fill="#351E3B"/>
<path d="M224.669 66.4157C224.516 66.9667 224.839 67.5348 225.389 67.6881C225.94 67.8415 226.507 67.5177 226.66 66.9667C226.814 66.4157 226.49 65.8477 225.94 65.6943C225.389 65.541 224.822 65.8647 224.669 66.4157Z" fill="#351E3B"/>
<path d="M235.245 66.9729C235.171 67.1149 235.018 67.2001 234.859 67.2228C234.7 67.2455 234.541 67.2115 234.382 67.1774C233.906 67.0638 233.435 66.899 233.021 66.6491C232.748 66.4844 232.476 66.2288 232.493 65.9163C232.527 65.2518 233.435 65.0984 233.94 65.2234C234.609 65.3881 235.642 66.1776 235.25 66.9729H235.245Z" fill="#492A51"/>
<path d="M224.691 64.0814C224.68 64.2405 224.771 64.3938 224.896 64.4961C225.02 64.5983 225.174 64.6551 225.327 64.7006C225.792 64.8482 226.28 64.9505 226.768 64.9505C227.086 64.9505 227.449 64.8767 227.602 64.5926C227.914 64.0019 227.216 63.4055 226.717 63.2521C226.059 63.0476 224.765 63.1896 224.691 64.0814Z" fill="#492A51"/>
<path d="M227.852 72.5452C227.086 72.6758 226.269 72.1759 226.025 71.4375" stroke="#351E3B" stroke-width="0.406109" stroke-linecap="round" stroke-linejoin="round"/>
<path d="M214.274 61.9804C217.837 63.9628 222.274 63.6731 226.143 62.4007C228.152 61.7361 230.098 60.8159 231.754 59.4924C233.411 58.1689 234.767 56.4193 235.431 54.4028C234.33 52.8805 231.919 51.432 230.081 51.0798C225.485 50.1937 220.367 50.7674 216.816 54.1074C216.492 54.4085 216.18 54.7266 215.874 55.0447C215.029 55.9251 214.41 57.0158 213.951 58.1405C213.712 58.7142 213.514 59.3049 213.344 59.9014C213.264 60.1683 213.094 61.5259 212.89 61.6395C213.338 61.3839 213.826 61.7304 214.274 61.9804Z" fill="#492A51"/>
<path d="M218.002 63.5928C217.486 62.2579 216.067 61.3491 214.666 61.4627C212.851 61.6104 211.415 63.4054 211.307 65.2685C211.211 66.9158 212.051 68.5858 213.418 69.4606C214.78 70.341 216.612 70.3865 218.019 69.5856C218.002 68.921 218.07 68.2223 218.127 67.5634C218.24 66.2967 218.456 64.7743 217.996 63.5871L218.002 63.5928Z" fill="#FF8B9B"/>
<path d="M214.519 63.6895C215.199 64.5358 215.585 65.6094 215.608 66.6943" stroke="#351E3B" stroke-width="0.406109" stroke-linecap="round" stroke-linejoin="round"/>
<path d="M241.876 232.742H225.576L223.863 162.675L209.486 232.685L194.014 231.975C194.014 231.975 194.048 231.498 194.104 230.611C194.592 223.647 196.782 191.678 197.872 173.439C198.048 170.508 198.195 167.929 198.303 165.867C198.995 152.484 203.415 131.882 204.782 120.686C204.782 120.68 204.788 120.68 204.788 120.674C204.856 120.135 204.913 119.612 204.969 119.112C209.349 114.682 211.199 108.183 210.484 100.771C209.922 94.8744 208.033 87.0867 207.273 84.0989C208.493 83.2525 209.679 82.5084 210.688 81.9062L213.945 92.2104C215.068 95.7662 218.263 98.2713 221.979 98.4985L222.768 98.5496C228.123 98.8904 232.594 94.4882 232.339 89.1146L232.129 84.7521C233.349 85.4167 234.733 86.2744 236.14 87.348C236.452 90.4949 237.179 97.8396 237.598 100.595C237.82 102.066 239.391 105.695 241.144 109.416C241.139 112.557 241.167 115.738 241.32 118.686C242.035 132.387 241.32 146.355 241.32 146.355L241.882 232.742H241.876Z" fill="#AA6EE7"/>
<path d="M206.161 118.32C206.292 129.369 204.045 140.286 202.366 151.209C198.264 177.913 197.543 205.013 196.828 232.023" stroke="#351E3B" stroke-width="0.406109" stroke-linecap="round" stroke-linejoin="round"/>
<path d="M228.027 151.68L223.595 163.739L209.479 232.681" stroke="#351E3B" stroke-width="0.406109" stroke-linecap="round" stroke-linejoin="round"/>
<path d="M225.366 158.773L228.203 232.561" stroke="#351E3B" stroke-width="0.406109" stroke-linecap="round" stroke-linejoin="round"/>
<path d="M200.011 90.66C200.011 90.66 194.837 95.6303 192.709 108.161C190.581 120.698 189.282 126.134 190.82 130.275C192.357 134.416 202.984 140.562 202.984 140.562C202.984 140.562 202.275 138.255 204.107 134.768C205.94 131.28 207.71 131.104 207.71 131.104L202.513 123.061L206.172 108.042C206.172 108.042 204.947 90.8929 200.011 90.6543V90.66Z" fill="#FFA7DA"/>
<path d="M215.034 89.7188L207.942 146.834L249.286 150.027L257.791 94.9219L215.034 89.7188Z" fill="white"/>
<path d="M202.808 140.33C202.808 140.33 202.275 135.599 204.936 132.878C207.591 130.157 210.371 127.021 210.371 127.021L210.133 130.452C210.133 130.452 218.694 127.499 219.228 128.146C219.761 128.799 212.731 132.639 212.731 132.639C212.731 132.639 219.052 131.219 219.347 132.225C219.642 133.23 217.696 133.997 217.696 133.997C217.696 133.997 219.704 133.758 219.761 134.707C219.818 135.656 216.102 137.07 216.102 137.07C216.102 137.07 217.815 137.837 214.683 138.723C211.551 139.609 206.593 141.381 202.814 140.319L202.808 140.33Z" fill="#FF8B9B"/>
<path d="M256.612 101.841C256.612 101.841 251.001 97.4047 250.411 98.2909C249.821 99.177 254.484 102.545 254.484 102.545C254.484 102.545 249.406 99.5917 249.049 100.415C248.697 101.245 253.713 105.147 253.713 105.147C253.713 105.147 248.811 103.079 248.572 103.789C248.334 104.499 252.941 107.044 252.941 107.044C252.941 107.044 249.633 106.096 249.282 106.573C248.93 107.044 255.483 110.475 255.483 110.475C255.483 110.475 256.958 108.822 257.429 106.573C257.9 104.323 256.601 101.841 256.601 101.841H256.612Z" fill="#FF8B9B"/>
<path d="M217.746 62.4635C217.78 63.4121 217.724 64.3664 217.576 65.3037C218.892 65.0537 219.993 64.0256 220.816 62.9691C221.026 62.6964 221.241 62.3783 221.196 62.0375C221.168 61.7989 221.009 61.5944 220.833 61.4297C220.356 61.0037 219.67 60.8276 219.051 60.9753C218.433 61.123 217.729 61.8273 217.746 62.4635Z" fill="#492A51"/>
<path d="M650.861 25.791H603.866V79.8864H650.861V25.791Z" fill="white"/>
<path d="M629.335 21.1895H624.558V31.2818H629.335V21.1895Z" fill="#FFB18A"/>
<g style="mix-blend-mode:multiply">
<path d="M627.32 57.4825C632.612 57.4825 636.902 53.1872 636.902 47.8887C636.902 42.5902 632.612 38.2949 627.32 38.2949C622.028 38.2949 617.737 42.5902 617.737 47.8887C617.737 53.1872 622.028 57.4825 627.32 57.4825Z" fill="#FFD28A"/>
</g>
<g style="mix-blend-mode:multiply">
<path d="M621.053 66.4981C626.345 66.4981 630.636 62.2028 630.636 56.9043C630.636 51.6058 626.345 47.3105 621.053 47.3105C615.761 47.3105 611.471 51.6058 611.471 56.9043C611.471 62.2028 615.761 66.4981 621.053 66.4981Z" fill="#FFA7DA"/>
</g>
<g style="mix-blend-mode:multiply">
<path d="M633.901 66.4102C639.193 66.4102 643.483 62.1149 643.483 56.8164C643.483 51.5179 639.193 47.2227 633.901 47.2227C628.609 47.2227 624.318 51.5179 624.318 56.8164C624.318 62.1149 628.609 66.4102 633.901 66.4102Z" fill="#759FFF"/>
</g>
<path d="M716.395 26.1875H669.4V80.2829H716.395V26.1875Z" fill="white"/>
<path d="M694.869 21.5859H690.092V31.6783H694.869V21.5859Z" fill="#FFB18A"/>
<path d="M693.264 53.797L685.664 40.6113C681.048 43.2614 677.936 48.2383 677.936 53.9447H693.181L693.264 53.797Z" fill="#9AD69D"/>
<path d="M700.789 40.5547C698.567 39.3035 696.007 38.5879 693.277 38.5879C690.548 38.5879 687.91 39.3266 685.664 40.6147L693.264 53.8004L700.789 40.5547Z" fill="#FFD28A"/>
<path d="M693.347 53.9442H708.616C708.616 48.1916 705.457 43.187 700.786 40.5508L693.26 53.7965L693.343 53.9442H693.347Z" fill="#FFB18A"/>
<path d="M693.181 53.9446H693.347L693.264 53.7969L693.181 53.9446Z" fill="#492A51"/>
<path d="M708.62 53.9453H693.352L701.002 67.2141C705.558 64.5502 708.62 59.6055 708.62 53.9453Z" fill="#FF7A7A"/>
<path d="M677.936 53.9453C677.936 59.6379 681.03 64.601 685.623 67.2556L693.185 53.9453H677.94H677.936Z" fill="#7581FF"/>
<path d="M693.181 53.9453L685.618 67.2556C687.873 68.5576 690.483 69.3055 693.273 69.3055C696.063 69.3055 698.728 68.5437 700.997 67.2141L693.347 53.9453H693.176H693.181Z" fill="#AA6EE7"/>
<path style="mix-blend-mode:multiply" opacity="0.27" d="M58.3524 39.6511L69.6202 68.1776L58.3524 72.8469L100.19 124.129H208.567L190.786 72.8469V67.8311H182.939L172.131 38.8047C172.131 38.8047 59.4303 39.6454 58.3467 39.6454L58.3524 39.6511Z" fill="url(#paint0_linear_587_145384)"/>
<path opacity="0.65" d="M72.7065 72.8535L71.9916 74.0464L71.4186 75.0064C70.976 75.7448 70.1761 76.1992 69.3194 76.1992H66.0854C65.2287 76.1992 64.4287 75.7448 63.9805 75.0064L63.4074 74.0464L62.6982 72.8535H72.7122H72.7065Z" fill="#FF8B9B"/>
<path d="M72.7063 72.8535L71.9858 74.0464H63.4016L62.6924 72.8535H72.7063Z" fill="#FF8B9B"/>
<path opacity="0.65" d="M187.415 72.8535L186.701 74.0464L186.128 75.0064C185.685 75.7448 184.885 76.1992 184.028 76.1992H180.794C179.938 76.1992 179.138 75.7448 178.689 75.0064L178.116 74.0464L177.407 72.8535H187.421H187.415Z" fill="#FF8B9B"/>
<path d="M187.415 72.8535L186.701 74.0464H178.116L177.407 72.8535H187.415Z" fill="#FF8B9B"/>
<path opacity="0.65" d="M190.792 67.8379H58.3525V72.8536H190.792V67.8379Z" fill="#FF8B9B"/>
<path opacity="0.65" d="M72.7065 39.6504L71.9916 40.8433L71.4186 41.8032C70.976 42.5417 70.1761 42.9961 69.3194 42.9961H66.0854C65.2287 42.9961 64.4287 42.5417 63.9805 41.8032L63.4074 40.8433L62.6982 39.6504H72.7122H72.7065Z" fill="#FF8B9B"/>
<path d="M72.7063 39.6504L71.9858 40.8433H63.4016L62.6924 39.6504H72.7063Z" fill="#FF8B9B"/>
<path opacity="0.65" d="M187.415 39.6504L186.701 40.8433L186.128 41.8032C185.685 42.5417 184.885 42.9961 184.028 42.9961H180.794C179.938 42.9961 179.138 42.5417 178.689 41.8032L178.116 40.8433L177.407 39.6504H187.421H187.415Z" fill="#FF8B9B"/>
<path d="M187.415 39.6504L186.701 40.8433H178.116L177.407 39.6504H187.415Z" fill="#FF8B9B"/>
<path opacity="0.65" d="M190.792 34.6406H58.3525V39.6564H190.792V34.6406Z" fill="#FF8B9B"/>
<path d="M172.318 16.5H158.99V34.3305H172.318V16.5Z" fill="#FFF3EA"/>
<path d="M172.318 16.5H158.99V27.162H172.318V16.5Z" fill="#7581FF"/>
<g style="mix-blend-mode:multiply" opacity="0.12">
<path d="M163.297 16.5H158.99V34.3305H163.297V16.5Z" fill="#492A51"/>
</g>
<path d="M166.417 30.6504H165.18V31.8149H166.417V30.6504Z" fill="#FFB18A"/>
<path d="M168.011 30.6504H166.774V31.8149H168.011V30.6504Z" fill="#FF8B9B"/>
<path d="M169.605 30.6504H168.368V31.8149H169.605V30.6504Z" fill="#759FFF"/>
<path d="M171.33 30.6504H170.093V31.8149H171.33V30.6504Z" fill="#492A51"/>
<path d="M161.731 16.5H148.403V34.3305H161.731V16.5Z" fill="#FFF3EA"/>
<path d="M161.731 16.5H148.403V27.162H161.731V16.5Z" fill="#FFB18A"/>
<g style="mix-blend-mode:multiply" opacity="0.12">
<path d="M152.71 16.5H148.403V34.3305H152.71V16.5Z" fill="#492A51"/>
</g>
<path d="M155.83 30.6504H154.593V31.8149H155.83V30.6504Z" fill="#FFB18A"/>
<path d="M157.424 30.6504H156.188V31.8149H157.424V30.6504Z" fill="#FF8B9B"/>
<path d="M159.018 30.6504H157.781V31.8149H159.018V30.6504Z" fill="#759FFF"/>
<path d="M160.749 30.6504H159.512V31.8149H160.749V30.6504Z" fill="#492A51"/>
<path d="M149.827 16.5H136.5V34.3305H149.827V16.5Z" fill="#FFF3EA"/>
<path d="M149.827 16.5H136.5V27.162H149.827V16.5Z" fill="#FF8B9B"/>
<g style="mix-blend-mode:multiply" opacity="0.12">
<path d="M140.806 16.5H136.5V34.3305H140.806V16.5Z" fill="#492A51"/>
</g>
<path d="M143.926 30.6504H142.689V31.8149H143.926V30.6504Z" fill="#FFB18A"/>
<path d="M145.521 30.6504H144.284V31.8149H145.521V30.6504Z" fill="#FF8B9B"/>
<path d="M147.115 30.6504H145.878V31.8149H147.115V30.6504Z" fill="#759FFF"/>
<path d="M148.845 30.6504H147.608V31.8149H148.845V30.6504Z" fill="#492A51"/>
<path d="M138.634 16.5H125.307V34.3305H138.634V16.5Z" fill="#FFF3EA"/>
<path d="M138.634 16.5H125.307V27.162H138.634V16.5Z" fill="#492A51"/>
<g style="mix-blend-mode:multiply" opacity="0.12">
<path d="M129.613 16.5H125.307V34.3305H129.613V16.5Z" fill="#492A51"/>
</g>
<path d="M132.733 30.6504H131.496V31.8149H132.733V30.6504Z" fill="#FFB18A"/>
<path d="M134.328 30.6504H133.091V31.8149H134.328V30.6504Z" fill="#FF8B9B"/>
<path d="M135.921 30.6504H134.685V31.8149H135.921V30.6504Z" fill="#759FFF"/>
<path d="M137.652 30.6504H136.415V31.8149H137.652V30.6504Z" fill="#492A51"/>
<path d="M117.353 16.5H104.025V34.3305H117.353V16.5Z" fill="#FFF3EA"/>
<path d="M117.353 16.5H104.025V27.162H117.353V16.5Z" fill="#7581FF"/>
<g style="mix-blend-mode:multiply" opacity="0.12">
<path d="M108.332 16.5H104.025V34.3305H108.332V16.5Z" fill="#492A51"/>
</g>
<path d="M111.453 30.6504H110.216V31.8149H111.453V30.6504Z" fill="#FFB18A"/>
<path d="M113.047 30.6504H111.811V31.8149H113.047V30.6504Z" fill="#FF8B9B"/>
<path d="M114.641 30.6504H113.404V31.8149H114.641V30.6504Z" fill="#759FFF"/>
<path d="M116.372 30.6504H115.135V31.8149H116.372V30.6504Z" fill="#492A51"/>
<path d="M106.771 16.5H93.4434V34.3305H106.771V16.5Z" fill="#FFF3EA"/>
<path d="M106.771 16.5H93.4434V27.162H106.771V16.5Z" fill="#FFB18A"/>
<g style="mix-blend-mode:multiply" opacity="0.12">
<path d="M97.7496 16.5H93.4434V34.3305H97.7496V16.5Z" fill="#492A51"/>
</g>
<path d="M100.871 30.6504H99.6338V31.8149H100.871V30.6504Z" fill="#FFB18A"/>
<path d="M102.465 30.6504H101.229V31.8149H102.465V30.6504Z" fill="#FF8B9B"/>
<path d="M104.059 30.6504H102.822V31.8149H104.059V30.6504Z" fill="#759FFF"/>
<path d="M105.79 30.6504H104.553V31.8149H105.79V30.6504Z" fill="#492A51"/>
<path d="M94.8674 16.5H81.54V34.3305H94.8674V16.5Z" fill="#FFF3EA"/>
<path d="M94.8674 16.5H81.54V27.162H94.8674V16.5Z" fill="#FF8B9B"/>
<g style="mix-blend-mode:multiply" opacity="0.12">
<path d="M85.8463 16.5H81.54V34.3305H85.8463V16.5Z" fill="#492A51"/>
</g>
<path d="M88.9615 30.6504H87.7246V31.8149H88.9615V30.6504Z" fill="#FFB18A"/>
<path d="M90.5562 30.6504H89.3193V31.8149H90.5562V30.6504Z" fill="#FF8B9B"/>
<path d="M92.1499 30.6504H90.9131V31.8149H92.1499V30.6504Z" fill="#759FFF"/>
<path d="M93.8804 30.6504H92.6436V31.8149H93.8804V30.6504Z" fill="#492A51"/>
<path d="M83.674 16.5H70.3467V34.3305H83.674V16.5Z" fill="#FFF3EA"/>
<path d="M83.674 16.5H70.3467V27.162H83.674V16.5Z" fill="#492A51"/>
<g style="mix-blend-mode:multiply" opacity="0.12">
<path d="M74.6529 16.5H70.3467V34.3305H74.6529V16.5Z" fill="#492A51"/>
</g>
<path d="M77.773 30.6504H76.5361V31.8149H77.773V30.6504Z" fill="#FFB18A"/>
<path d="M79.3677 30.6504H78.1309V31.8149H79.3677V30.6504Z" fill="#FF8B9B"/>
<path d="M80.9615 30.6504H79.7246V31.8149H80.9615V30.6504Z" fill="#759FFF"/>
<path d="M82.6861 30.6504H81.4492V31.8149H82.6861V30.6504Z" fill="#492A51"/>
<path d="M165.907 60.0835V67.8769H155.922V60.0835C155.922 56.8968 156.603 53.7443 157.919 50.8473L158.651 49.2227V46.127H163.178V49.2227L163.916 50.8473C164.597 52.3583 165.113 53.9488 165.448 55.562C165.749 57.0445 165.907 58.5669 165.907 60.0835Z" fill="#FFB18A"/>
<path d="M162.844 46.1211L158.646 46.78V46.1211H162.844Z" fill="#351E3B"/>
<path d="M163.434 45.3262H158.441V46.1385H163.434V45.3262Z" fill="#FFF3EA"/>
<path d="M163.434 45.3247C163.434 45.3872 162.311 45.4326 160.927 45.4326C159.542 45.4326 158.419 45.3815 158.419 45.3247C158.419 45.2679 159.542 45.2168 160.927 45.2168C162.311 45.2168 163.434 45.2679 163.434 45.3247Z" fill="white"/>
<path d="M165.908 60.0821V65.9669H160.2V55.5605H165.448C165.749 57.0431 165.908 58.5654 165.908 60.0821Z" fill="#FFF3EA"/>
<path d="M158.265 60.0835V67.8769H148.279V60.0835C148.279 56.8968 148.96 53.7443 150.276 50.8473L151.008 49.2227V46.127H155.536V49.2227L156.273 50.8473C156.954 52.3583 157.471 53.9488 157.805 55.562C158.106 57.0445 158.265 58.5669 158.265 60.0835Z" fill="#7581FF"/>
<path d="M155.201 46.1211L151.003 46.78V46.1211H155.201Z" fill="#351E3B"/>
<path d="M155.791 45.3262H150.798V46.1385H155.791V45.3262Z" fill="#FFF3EA"/>
<path d="M155.791 45.3247C155.791 45.3872 154.667 45.4326 153.283 45.4326C151.899 45.4326 150.775 45.3815 150.775 45.3247C150.775 45.2679 151.899 45.2168 153.283 45.2168C154.667 45.2168 155.791 45.2679 155.791 45.3247Z" fill="white"/>
<path d="M158.265 60.0821V65.9669H152.558V55.5605H157.806C158.106 57.0431 158.265 58.5654 158.265 60.0821Z" fill="#FFF3EA"/>
<path d="M149.618 60.0835V67.8769H139.633V60.0835C139.633 56.8968 140.314 53.7443 141.63 50.8473L142.362 49.2227V46.127H146.889V49.2227L147.627 50.8473C148.308 52.3583 148.824 53.9488 149.159 55.562C149.46 57.0445 149.618 58.5669 149.618 60.0835Z" fill="#FF8B9B"/>
<path d="M146.555 46.1211L142.356 46.78V46.1211H146.555Z" fill="#351E3B"/>
<path d="M147.145 45.3262H142.152V46.1385H147.145V45.3262Z" fill="#FFF3EA"/>
<path d="M147.145 45.3247C147.145 45.3872 146.022 45.4326 144.638 45.4326C143.253 45.4326 142.13 45.3815 142.13 45.3247C142.13 45.2679 143.253 45.2168 144.638 45.2168C146.022 45.2168 147.145 45.2679 147.145 45.3247Z" fill="white"/>
<path d="M149.619 60.0821V65.9669H143.911V55.5605H149.159C149.46 57.0431 149.619 58.5654 149.619 60.0821Z" fill="#FFF3EA"/>
<path d="M141.663 60.0835V67.8769H131.678V60.0835C131.678 56.8968 132.359 53.7443 133.675 50.8473L134.407 49.2227V46.127H138.934V49.2227L139.672 50.8473C140.353 52.3583 140.869 53.9488 141.204 55.562C141.504 57.0445 141.663 58.5669 141.663 60.0835Z" fill="#492A51"/>
<path d="M138.599 46.1211L134.406 46.78V46.1211H138.599Z" fill="#351E3B"/>
<path d="M139.195 45.3262H134.202V46.1385H139.195V45.3262Z" fill="#FFF3EA"/>
<path d="M139.189 45.3247C139.189 45.3872 138.066 45.4326 136.682 45.4326C135.297 45.4326 134.174 45.3815 134.174 45.3247C134.174 45.2679 135.297 45.2168 136.682 45.2168C138.066 45.2168 139.189 45.2679 139.189 45.3247Z" fill="white"/>
<path d="M141.664 60.0821V65.9669H135.956V55.5605H141.204C141.505 57.0431 141.664 58.5654 141.664 60.0821Z" fill="#FFF3EA"/>
<path d="M133.483 60.0835V67.8769H123.497V60.0835C123.497 56.8968 124.178 53.7443 125.494 50.8473L126.226 49.2227V46.127H130.754V49.2227L131.491 50.8473C132.172 52.3583 132.688 53.9488 133.023 55.562C133.324 57.0445 133.483 58.5669 133.483 60.0835Z" fill="#FFB18A"/>
<path d="M130.419 46.1211L126.221 46.78V46.1211H130.419Z" fill="#351E3B"/>
<path d="M131.009 45.3262H126.017V46.1385H131.009V45.3262Z" fill="#FFF3EA"/>
<path d="M131.01 45.3247C131.01 45.3872 129.886 45.4326 128.502 45.4326C127.118 45.4326 125.994 45.3815 125.994 45.3247C125.994 45.2679 127.118 45.2168 128.502 45.2168C129.886 45.2168 131.01 45.2679 131.01 45.3247Z" fill="white"/>
<path d="M133.483 60.0821V65.9669H127.775V55.5605H133.023C133.324 57.0431 133.483 58.5654 133.483 60.0821Z" fill="#FFF3EA"/>
<path d="M125.84 60.0835V67.8769H115.854V60.0835C115.854 56.8968 116.535 53.7443 117.852 50.8473L118.583 49.2227V46.127H123.111V49.2227L123.849 50.8473C124.529 52.3583 125.046 53.9488 125.38 55.562C125.681 57.0445 125.84 58.5669 125.84 60.0835Z" fill="#7581FF"/>
<path d="M122.777 46.1211L118.578 46.78V46.1211H122.777Z" fill="#351E3B"/>
<path d="M123.366 45.3262H118.373V46.1385H123.366V45.3262Z" fill="#FFF3EA"/>
<path d="M123.366 45.3247C123.366 45.3872 122.243 45.4326 120.858 45.4326C119.474 45.4326 118.351 45.3815 118.351 45.3247C118.351 45.2679 119.474 45.2168 120.858 45.2168C122.243 45.2168 123.366 45.2679 123.366 45.3247Z" fill="white"/>
<path d="M125.84 60.0821V65.9669H120.133V55.5605H125.381C125.682 57.0431 125.84 58.5654 125.84 60.0821Z" fill="#FFF3EA"/>
<path d="M117.194 60.0835V67.8769H107.208V60.0835C107.208 56.8968 107.889 53.7443 109.205 50.8473L109.937 49.2227V46.127H114.465V49.2227L115.202 50.8473C115.883 52.3583 116.399 53.9488 116.734 55.562C117.035 57.0445 117.194 58.5669 117.194 60.0835Z" fill="#FF8B9B"/>
<path d="M114.129 46.1211L109.937 46.78V46.1211H114.129Z" fill="#351E3B"/>
<path d="M114.725 45.3262H109.732V46.1385H114.725V45.3262Z" fill="#FFF3EA"/>
<path d="M114.72 45.3247C114.72 45.3872 113.596 45.4326 112.212 45.4326C110.827 45.4326 109.704 45.3815 109.704 45.3247C109.704 45.2679 110.827 45.2168 112.212 45.2168C113.596 45.2168 114.72 45.2679 114.72 45.3247Z" fill="white"/>
<path d="M117.194 60.0821V65.9669H111.486V55.5605H116.734C117.035 57.0431 117.194 58.5654 117.194 60.0821Z" fill="#FFF3EA"/>
<path d="M109.244 60.0835V67.8769H99.2588V60.0835C99.2588 56.8968 99.9396 53.7443 101.256 50.8473L101.988 49.2227V46.127H106.515V49.2227L107.253 50.8473C107.934 52.3583 108.45 53.9488 108.785 55.562C109.085 57.0445 109.244 58.5669 109.244 60.0835Z" fill="#492A51"/>
<path d="M106.181 46.1211L101.982 46.78V46.1211H106.181Z" fill="#351E3B"/>
<path d="M106.77 45.3262H101.777V46.1385H106.77V45.3262Z" fill="#FFF3EA"/>
<path d="M106.77 45.3247C106.77 45.3872 105.647 45.4326 104.263 45.4326C102.878 45.4326 101.755 45.3815 101.755 45.3247C101.755 45.2679 102.878 45.2168 104.263 45.2168C105.647 45.2168 106.77 45.2679 106.77 45.3247Z" fill="white"/>
<path d="M109.245 60.0821V65.9669H103.537V55.5605H108.785C109.086 57.0431 109.245 58.5654 109.245 60.0821Z" fill="#FFF3EA"/>
<path d="M92.0763 50.0684H78.749V67.8989H92.0763V50.0684Z" fill="#FFF3EA"/>
<path d="M92.0763 50.0684H78.749V60.7303H92.0763V50.0684Z" fill="#7581FF"/>
<g style="mix-blend-mode:multiply" opacity="0.12">
<path d="M83.0553 50.0684H78.749V67.8989H83.0553V50.0684Z" fill="#492A51"/>
</g>
<path d="M86.1753 64.2168H84.9385V65.3813H86.1753V64.2168Z" fill="#FFB18A"/>
<path d="M87.7701 64.2168H86.5332V65.3813H87.7701V64.2168Z" fill="#FF8B9B"/>
<path d="M89.3638 64.2168H88.127V65.3813H89.3638V64.2168Z" fill="#759FFF"/>
<path d="M91.0943 64.2168H89.8574V65.3813H91.0943V64.2168Z" fill="#492A51"/>
<path d="M81.4894 50.0684H68.1621V67.8989H81.4894V50.0684Z" fill="#FFF3EA"/>
<path d="M81.4894 50.0684H68.1621V60.7303H81.4894V50.0684Z" fill="#FFB18A"/>
<g style="mix-blend-mode:multiply" opacity="0.12">
<path d="M72.4684 50.0684H68.1621V67.8989H72.4684V50.0684Z" fill="#492A51"/>
</g>
<path d="M75.5884 64.2168H74.3516V65.3813H75.5884V64.2168Z" fill="#FFB18A"/>
<path d="M77.1831 64.2168H75.9463V65.3813H77.1831V64.2168Z" fill="#FF8B9B"/>
<path d="M78.7769 64.2168H77.54V65.3813H78.7769V64.2168Z" fill="#759FFF"/>
<path d="M80.5074 64.2168H79.2705V65.3813H80.5074V64.2168Z" fill="#492A51"/>
<path d="M675.817 253.288C750.66 253.288 811.333 236.177 811.333 215.07C811.333 193.962 750.66 176.852 675.817 176.852C600.973 176.852 540.301 193.962 540.301 215.07C540.301 236.177 600.973 253.288 675.817 253.288Z" fill="black" fill-opacity="0.12"/>
<path d="M766.483 219.071C787.567 219.071 804.659 215.486 804.659 211.065C804.659 206.643 787.567 203.059 766.483 203.059C745.399 203.059 728.307 206.643 728.307 211.065C728.307 215.486 745.399 219.071 766.483 219.071Z" fill="black" fill-opacity="0.15"/>
<path d="M783.479 176.825L795.74 169.131H754.839C754.839 169.131 742.578 176.837 742.578 176.825H783.479Z" fill="#455890"/>
<path d="M763.104 206.611C763.104 208.352 766.23 209.762 770.083 209.762C773.937 209.762 777.063 208.352 777.063 206.611V85.9551H763.098V206.611H763.104Z" fill="white"/>
<path d="M770.083 82.9844C773.936 82.9844 777.063 84.3167 777.063 85.9612C777.063 87.6056 773.936 88.938 770.083 88.938C766.23 88.938 763.104 87.6056 763.104 85.9612C763.104 84.3167 766.23 82.9844 770.083 82.9844Z" fill="#D2E1F6"/>
<path d="M770.083 85.1562C771.121 85.1562 771.967 85.5164 771.967 85.9605C771.967 86.4046 771.121 86.7647 770.083 86.7647C769.044 86.7647 768.198 86.4046 768.198 85.9605C768.198 85.5164 769.044 85.1562 770.083 85.1562Z" fill="#6170B1"/>
<path d="M753.508 206.963C753.634 208.698 756.85 209.88 760.697 209.598C764.545 209.322 767.557 207.69 767.431 205.955L758.711 85.6172L744.781 86.6255L753.502 206.963H753.508Z" fill="#E7F5FE"/>
<path d="M751.539 83.1499C755.386 82.8738 758.597 83.9721 758.717 85.6165C758.837 87.255 755.812 88.8094 751.971 89.0915C748.124 89.3675 744.914 88.2692 744.793 86.6248C744.673 84.9864 747.698 83.432 751.539 83.1499Z" fill="#D2E1F6"/>
<path d="M751.694 85.319C752.733 85.241 753.597 85.541 753.633 85.9852C753.663 86.4293 752.847 86.8494 751.814 86.9214C750.776 86.9994 749.912 86.6993 749.876 86.2552C749.846 85.8111 750.662 85.391 751.694 85.319Z" fill="#6170B1"/>
<path d="M772.424 205.892C772.292 207.626 775.299 209.271 779.14 209.571C782.987 209.871 786.21 208.706 786.342 206.972L795.68 86.676L781.756 85.5957L772.418 205.892H772.424Z" fill="#F4F9FD"/>
<path d="M788.952 83.173C792.799 83.4731 795.812 85.0395 795.68 86.684C795.548 88.3284 792.331 89.4087 788.49 89.1146C784.643 88.8145 781.63 87.2481 781.762 85.6037C781.888 83.9653 785.111 82.879 788.952 83.173Z" fill="#D2E1F6"/>
<path d="M788.784 85.3405C789.822 85.4185 790.633 85.8446 790.603 86.2888C790.567 86.7329 789.702 87.027 788.664 86.9429C787.626 86.8649 786.816 86.4388 786.846 85.9947C786.882 85.5506 787.746 85.2565 788.784 85.3405Z" fill="#6170B1"/>
<path d="M783.473 176.84H742.572V215.502H783.473V176.84Z" fill="#6C7CC4"/>
<path d="M783.479 215.495L795.741 207.801V169.127L783.479 176.821V215.495Z" fill="#6170B1"/>
<path d="M643.168 220.542C697.68 220.542 741.87 216.957 741.87 212.535C741.87 208.114 697.68 204.529 643.168 204.529C588.656 204.529 544.466 208.114 544.466 212.535C544.466 216.957 588.656 220.542 643.168 220.542Z" fill="black" fill-opacity="0.15"/>
<path d="M555.413 208.78H566.654L586.003 196.639H574.762L555.413 208.78Z" fill="white"/>
<path d="M565.891 210.412C565.285 210.412 564.799 211.498 564.799 212.837C564.799 214.175 565.291 215.261 565.891 215.261H566.983V210.412H565.891Z" fill="#6170B1"/>
<path d="M566.984 215.261C567.587 215.261 568.076 214.176 568.076 212.837C568.076 211.498 567.587 210.412 566.984 210.412C566.381 210.412 565.892 211.498 565.892 212.837C565.892 214.176 566.381 215.261 566.984 215.261Z" fill="#455890"/>
<path d="M583.818 199.008C583.212 199.008 582.726 200.094 582.726 201.432C582.726 202.771 583.218 203.857 583.818 203.857H584.91V199.008H583.818Z" fill="#6170B1"/>
<path d="M584.91 203.851C585.513 203.851 586.002 202.766 586.002 201.427C586.002 200.087 585.513 199.002 584.91 199.002C584.306 199.002 583.817 200.087 583.817 201.427C583.817 202.766 584.306 203.851 584.91 203.851Z" fill="#455890"/>
<path d="M556.505 210.412C555.899 210.412 555.413 211.498 555.413 212.837C555.413 214.175 555.905 215.261 556.505 215.261H557.598V210.412H556.505Z" fill="#6170B1"/>
<path d="M557.597 215.261C558.2 215.261 558.689 214.176 558.689 212.837C558.689 211.498 558.2 210.412 557.597 210.412C556.994 210.412 556.505 211.498 556.505 212.837C556.505 214.176 556.994 215.261 557.597 215.261Z" fill="#455890"/>
<path d="M561.175 153.51V206.498L573.238 198.93V153.522L561.175 153.51Z" fill="white"/>
<path d="M568.179 153.51H561.175V206.498H568.179V153.51Z" fill="#F4F9FD"/>
<path d="M566.654 208.779H555.413V211.066H566.654V208.779Z" fill="#F4F9FD"/>
<path d="M566.653 208.78L586.002 196.639V198.925L566.653 211.066V208.78Z" fill="#D2E1F6"/>
<path d="M568.184 153.51V206.498L580.247 198.93V153.522L568.184 153.51Z" fill="#B5C8D7"/>
<path d="M579.244 155.118L586.584 149.77V143.595C586.584 143.595 586.494 142.941 585.066 143.823C583.638 144.705 576.021 150.202 576.021 150.202L579.244 155.118Z" fill="#D2E1F6"/>
<path d="M579.245 112.056L586.254 107.795C586.254 107.795 589.063 142.19 586.584 143.6C584.13 144.999 576.022 150.208 576.022 150.208C576.022 150.208 567.439 121.539 579.245 112.062V112.056Z" fill="#D2E1F6"/>
<path d="M705.537 213.639C704.93 213.639 704.444 214.725 704.444 216.063C704.444 217.402 704.936 218.488 705.537 218.488H706.629V213.639H705.537Z" stroke="#606060" stroke-width="0.11477" stroke-miterlimit="10"/>
<path d="M707.721 216.057C707.721 217.396 707.229 218.482 706.628 218.482C706.028 218.482 705.536 217.396 705.536 216.057C705.536 214.719 706.028 213.633 706.628 213.633C707.229 213.633 707.721 214.719 707.721 216.057Z" stroke="#606060" stroke-width="0.11477" stroke-miterlimit="10"/>
<path d="M549.159 112.059H579.245C579.245 112.059 573.874 117.97 576.022 150.205H544.322C544.322 150.205 541.099 119.579 549.159 112.059Z" fill="white"/>
<path d="M556.174 116.529C555.34 117.31 554.896 118.888 554.674 120.64H564.522C564.835 117.31 565.543 116.529 565.543 116.529H556.174Z" fill="#6170B1"/>
<path d="M549.693 130.32L547.545 134.623H573.874L575.488 130.32H549.693Z" fill="#E7F5FE"/>
<path d="M557.082 130.32L556.277 131.935H566.15L566.756 130.32H557.082Z" fill="#6170B1"/>
<path d="M575.632 130.422C575.584 130.386 575.541 130.35 575.487 130.32L573.873 134.617L576.022 150.198C575.475 142.023 575.415 135.542 575.626 130.416L575.632 130.422Z" fill="#D4E1F4"/>
<path d="M573.874 134.621H547.545L550.234 150.201H576.022L573.874 134.621Z" fill="#F4F9FD"/>
<path d="M544.321 150.205L548.39 155.12H579.245L576.022 150.205H544.321Z" fill="#E7F5FE"/>
<path d="M549.159 112.058L559.092 107.791H586.255L579.245 112.058H549.159Z" fill="#E8F3FF"/>
<path d="M551.932 155.096L554.62 158.349H575.02L572.889 155.096H551.932Z" fill="#D2E1F6"/>
<path d="M579.443 155.119H572.901L575.02 158.348L579.443 155.119Z" fill="#F4F9FD"/>
<path d="M587.041 102.701C582.738 102.701 579.245 110.437 579.245 119.986C579.245 129.534 582.732 137.27 587.041 137.27H594.837V102.701H587.041Z" fill="#6170B1"/>
<path d="M594.831 137.27C599.137 137.27 602.627 129.532 602.627 119.986C602.627 110.44 599.137 102.701 594.831 102.701C590.526 102.701 587.035 110.44 587.035 119.986C587.035 129.532 590.526 137.27 594.831 137.27Z" fill="#455890"/>
<path d="M596.566 106.272C593.199 106.272 590.475 112.321 590.475 119.781C590.475 127.241 593.205 133.291 596.566 133.291H705.741V106.266H596.566V106.272Z" fill="#F4F9FD"/>
<path d="M694.091 121.635H593.799C592.959 121.635 592.274 120.951 592.274 120.11C592.274 119.27 592.959 118.586 593.799 118.586H694.091C694.932 118.586 695.616 119.27 695.616 120.11C695.616 120.951 694.932 121.635 694.091 121.635Z" fill="#E7F5FE"/>
<path d="M694.95 120.776H592.941C592.575 120.776 592.269 120.476 592.269 120.104C592.269 119.738 592.569 119.432 592.941 119.432H694.944C695.31 119.432 695.616 119.732 695.616 120.104C695.616 120.47 695.316 120.776 694.944 120.776H694.95Z" fill="#D2E1F6"/>
<path d="M697.74 102.701C693.437 102.701 689.944 110.437 689.944 119.986C689.944 129.534 693.431 137.27 697.74 137.27H705.536V102.701H697.74Z" fill="#6170B1"/>
<path d="M705.536 137.27C709.842 137.27 713.332 129.532 713.332 119.986C713.332 110.44 709.842 102.701 705.536 102.701C701.231 102.701 697.74 110.44 697.74 119.986C697.74 129.532 701.231 137.27 705.536 137.27Z" fill="#455890"/>
<path d="M583.146 137.832C580.991 137.832 579.251 141.703 579.251 146.474C579.251 151.246 580.997 155.117 583.146 155.117H587.041V137.832H583.146Z" fill="#6170B1"/>
<path d="M590.936 146.474C590.936 151.246 589.189 155.117 587.041 155.117C584.892 155.117 583.146 151.246 583.146 146.474C583.146 141.703 584.892 137.832 587.041 137.832C589.189 137.832 590.936 141.703 590.936 146.474Z" fill="#455890"/>
<path d="M588.218 139.719C586.537 139.719 585.169 142.744 585.169 146.477C585.169 150.21 586.531 153.234 588.218 153.234H704.973V139.725H588.218V139.719Z" fill="#F4F9FD"/>
<path d="M695.795 137.834C693.641 137.834 691.9 141.705 691.9 146.476C691.9 151.248 693.647 155.119 695.795 155.119H699.69V137.834H695.795Z" fill="#6170B1"/>
<path d="M699.691 155.119C701.842 155.119 703.586 151.249 703.586 146.476C703.586 141.703 701.842 137.834 699.691 137.834C697.54 137.834 695.796 141.703 695.796 146.476C695.796 151.249 697.54 155.119 699.691 155.119Z" fill="#455890"/>
<path d="M707.007 208.78H718.248L737.597 196.639H726.356L707.007 208.78Z" fill="white"/>
<path d="M717.48 210.412C716.874 210.412 716.388 211.498 716.388 212.837C716.388 214.175 716.88 215.261 717.48 215.261H718.572V210.412H717.48Z" fill="#6170B1"/>
<path d="M718.572 215.261C719.175 215.261 719.664 214.176 719.664 212.837C719.664 211.498 719.175 210.412 718.572 210.412C717.969 210.412 717.479 211.498 717.479 212.837C717.479 214.176 717.969 215.261 718.572 215.261Z" fill="#455890"/>
<path d="M735.413 199.008C734.806 199.008 734.32 200.094 734.32 201.432C734.32 202.771 734.812 203.857 735.413 203.857H736.505V199.008H735.413Z" fill="#6170B1"/>
<path d="M736.504 203.851C737.108 203.851 737.597 202.766 737.597 201.427C737.597 200.087 737.108 199.002 736.504 199.002C735.901 199.002 735.412 200.087 735.412 201.427C735.412 202.766 735.901 203.851 736.504 203.851Z" fill="#455890"/>
<path d="M708.099 210.412C707.493 210.412 707.007 211.498 707.007 212.837C707.007 214.175 707.499 215.261 708.099 215.261H709.191V210.412H708.099Z" fill="#6170B1"/>
<path d="M710.283 212.837C710.283 214.175 709.791 215.261 709.191 215.261C708.591 215.261 708.099 214.175 708.099 212.837C708.099 211.498 708.591 210.412 709.191 210.412C709.791 210.412 710.283 211.498 710.283 212.837Z" fill="#455890"/>
<path d="M712.769 153.512V206.5L724.832 198.932V153.524L712.769 153.512Z" fill="white"/>
<path d="M719.772 153.512H712.769V206.5H719.772V153.512Z" fill="#F4F9FD"/>
<path d="M718.248 208.779H707.007V211.066H718.248V208.779Z" fill="#F4F9FD"/>
<path d="M718.248 208.78L737.597 196.639V198.925L718.248 211.066V208.78Z" fill="#D2E1F6"/>
<path d="M719.772 153.512V206.5L731.836 198.932V153.524L719.772 153.512Z" fill="#B5C8D7"/>
<path d="M730.84 155.122L738.18 149.774V143.599C738.18 143.599 738.09 142.944 736.662 143.827C735.233 144.709 727.617 150.206 727.617 150.206L730.84 155.122Z" fill="#D2E1F6"/>
<path d="M730.84 112.058L737.85 107.797C737.85 107.797 740.658 142.192 738.18 143.602C735.725 145.001 727.617 150.21 727.617 150.21C727.617 150.21 719.029 121.541 730.84 112.064V112.058Z" fill="#D2E1F6"/>
<path d="M700.753 112.059H730.839C730.839 112.059 725.467 117.97 727.616 150.205H695.916C695.916 150.205 692.693 119.579 700.753 112.059Z" fill="white"/>
<path d="M707.77 116.531C706.936 117.311 706.492 118.89 706.27 120.642H716.118C716.43 117.311 717.138 116.531 717.138 116.531H707.77Z" fill="#6170B1"/>
<path d="M701.287 130.32L699.139 134.623H725.468L727.076 130.32H701.287Z" fill="#E7F5FE"/>
<path d="M708.675 130.32L707.871 131.935H717.744L718.35 130.32H708.675Z" fill="#6170B1"/>
<path d="M727.22 130.422C727.172 130.386 727.13 130.35 727.076 130.32L725.462 134.617L727.61 150.198C727.064 142.023 727.004 135.542 727.214 130.416L727.22 130.422Z" fill="#D4E1F4"/>
<path d="M725.468 134.625H699.139L701.827 150.205H727.616L725.468 134.625Z" fill="#F4F9FD"/>
<path d="M695.916 150.205L699.985 155.12H730.839L727.616 150.205H695.916Z" fill="#E7F5FE"/>
<path d="M700.753 112.058L710.686 107.791H737.849L730.839 112.058H700.753Z" fill="#E8F3FF"/>
<path d="M703.521 155.096L706.215 158.349H726.609L724.478 155.096H703.521Z" fill="#D2E1F6"/>
<path d="M731.038 155.117H724.496L726.609 158.346L731.038 155.117Z" fill="#F4F9FD"/>
<path d="M759.095 106.105L757.211 104.215L719.148 124.956L721.033 126.931L759.095 106.105Z" fill="#455890"/>
<path d="M756.227 126.943H721.033L724.628 106.117H759.095L756.227 126.943Z" fill="#455890"/>
<path d="M754.336 125.04H719.148L722.737 104.215H757.211L754.336 125.04Z" fill="#6170B1"/>
<path d="M721.062 123.429L724.099 105.826H755.362L752.931 123.429H721.062Z" fill="#455890"/>
<path d="M594.147 120.242C594.147 120.242 573.453 131.165 574.623 176.075C575.788 220.985 549.921 224.19 549.921 224.19H644.938C644.938 224.19 670.805 220.985 669.641 176.075C668.476 131.165 689.164 120.242 689.164 120.242H594.147Z" fill="white"/>
<path d="M594.147 120.242C594.147 120.242 573.453 131.165 574.623 176.075C575.788 220.985 549.921 224.19 549.921 224.19H644.938C644.938 224.19 670.805 220.985 669.641 176.075C668.476 131.165 689.164 120.242 689.164 120.242H594.147Z" fill="white"/>
<path d="M558.264 222.576C560.04 221.484 561.955 220.031 563.857 218.105C569.847 212.031 576.851 199.8 576.232 176.034C575.644 153.408 580.776 139.814 585.181 132.396C589.232 125.572 593.427 122.596 594.591 121.857H684.393C678.199 127.607 667.157 142.623 668.027 176.118C668.489 193.901 664.582 207.584 656.738 215.674C651.252 221.334 645.563 222.45 644.813 222.576H558.264Z" fill="#4965A4"/>
<path d="M753.531 108.418H732.171L732.441 106.93H753.801L753.531 108.418Z" fill="url(#paint1_linear_587_145384)"/>
<path d="M752.949 111.6H731.589L731.859 110.111H753.225L752.949 111.6Z" fill="url(#paint2_linear_587_145384)"/>
<path d="M752.414 114.528H731.055L731.325 113.033H752.684L752.414 114.528Z" fill="url(#paint3_linear_587_145384)"/>
<path d="M751.928 117.174H730.568L730.838 115.686H752.204L751.928 117.174Z" fill="url(#paint4_linear_587_145384)"/>
<path d="M625.403 185.702C611.312 185.629 597.214 185.551 583.122 185.479C584.556 164 582.912 145.317 597.046 127.834C610.981 127.804 624.917 127.774 638.847 127.744C623.957 142.874 626.832 166.544 625.403 185.708V185.702Z" fill="#15D2FC"/>
<path d="M668.368 141.295C661.635 141.499 654.895 141.704 648.161 141.908C650.802 135.846 653.491 130.108 658.604 125.697H678.211C673.452 130.018 671.033 135.582 668.362 141.295H668.368Z" fill="#FFDB0E"/>
<path d="M657.889 167.044C657.619 178.507 653.478 193.697 638.936 193.925C625.847 194.129 624.31 174.45 624.544 166.395C624.862 155.226 632.022 141.609 645.916 140.853C659.318 140.126 658.081 158.803 657.889 167.038V167.044Z" fill="#FF87D9"/>
<path d="M623.873 208.5C619.623 212.251 613.52 213.74 607.752 213.746C603.413 213.752 603.341 212.69 607.644 208.248C611.113 204.671 615.926 201.022 620.986 200.86C625.433 200.716 629.298 203.711 623.873 208.5Z" fill="#FF87D9"/>
<path d="M602.483 169.881C604.068 175.822 605.676 181.752 606.66 187.832C610.999 188.822 613.16 189.302 617.475 190.22C613.298 194.685 611.005 196.648 606.24 200.003C604.866 204.738 604.17 206.671 601.037 209.809C599.044 208.225 597.868 207.187 595.059 205.482C589.898 207.163 587.101 208.057 581.97 209.233C585.493 206.515 587.143 204.72 589.994 200.021C588.223 196.702 587.245 194.787 584.917 190.202C589.61 189.26 591.944 188.78 596.608 187.802C599.368 182.106 601.097 176.032 602.489 169.881H602.483Z" fill="#FFDB0E"/>
<g style="mix-blend-mode:multiply" opacity="0.24">
<path d="M574.515 184.285C572.511 221.303 549.921 224.106 549.921 224.106H644.938C644.938 224.106 667.528 221.297 669.533 184.285H574.515Z" fill="#6170B1"/>
</g>
<g style="mix-blend-mode:multiply" opacity="0.24">
<path d="M569.546 206.828C562.302 222.648 549.921 224.191 549.921 224.191H644.938C644.938 224.191 657.319 222.648 664.563 206.828H569.546Z" fill="#6170B1"/>
</g>
<path d="M712.432 234.594C738.097 234.594 758.903 231.01 758.903 226.588C758.903 222.166 738.097 218.582 712.432 218.582C686.767 218.582 665.962 222.166 665.962 226.588C665.962 231.01 686.767 234.594 712.432 234.594Z" fill="black" fill-opacity="0.15"/>
<path d="M689.974 200.273H678.691V230.93H689.974V200.273Z" fill="#6170B1"/>
<path d="M689.975 230.924L699.697 224.82V194.158L689.975 200.262V230.924Z" fill="#455890"/>
<path d="M678.691 200.274L689.974 200.262L699.697 194.158H688.906L678.691 200.274Z" fill="#6C7CC4"/>
<path d="M684.333 198.38C684.333 198.866 685.209 199.263 686.29 199.263C687.37 199.263 688.246 198.866 688.246 198.38V197.498H684.339V198.38H684.333Z" fill="#D2E1F6"/>
<path d="M686.29 198.388C687.37 198.388 688.246 197.993 688.246 197.505C688.246 197.018 687.37 196.623 686.29 196.623C685.209 196.623 684.333 197.018 684.333 197.505C684.333 197.993 685.209 198.388 686.29 198.388Z" fill="white"/>
<path d="M687.334 204.536H680.912C680.366 204.536 679.916 204.085 679.916 203.539C679.916 202.993 680.366 202.543 680.912 202.543H687.334C687.88 202.543 688.33 202.993 688.33 203.539C688.33 204.085 687.88 204.536 687.334 204.536Z" fill="#FFDB0E"/>
<path d="M704.906 200.273H693.623V230.93H704.906V200.273Z" fill="#6170B1"/>
<path d="M704.906 230.924L714.629 224.82V194.158L704.906 200.262V230.924Z" fill="#455890"/>
<path d="M693.623 200.274L704.906 200.262L714.629 194.158H703.838L693.623 200.274Z" fill="#6C7CC4"/>
<path d="M699.265 198.38C699.265 198.866 700.141 199.263 701.221 199.263C702.301 199.263 703.178 198.866 703.178 198.38V197.498H699.271V198.38H699.265Z" fill="#D2E1F6"/>
<path d="M701.215 198.388C702.296 198.388 703.172 197.993 703.172 197.505C703.172 197.018 702.296 196.623 701.215 196.623C700.135 196.623 699.259 197.018 699.259 197.505C699.259 197.993 700.135 198.388 701.215 198.388Z" fill="white"/>
<path d="M702.038 204.516H695.616C695.07 204.516 694.62 204.066 694.62 203.52C694.62 202.974 695.07 202.523 695.616 202.523H702.038C702.584 202.523 703.034 202.974 703.034 203.52C703.034 204.066 702.584 204.516 702.038 204.516Z" fill="#FD6AA7"/>
<path d="M719.946 200.273H708.663V230.93H719.946V200.273Z" fill="#6170B1"/>
<path d="M719.946 230.924L729.669 224.82V194.158L719.946 200.262V230.924Z" fill="#455890"/>
<path d="M708.663 200.274L719.946 200.262L729.669 194.158H718.878L708.663 200.274Z" fill="#6C7CC4"/>
<path d="M714.305 198.38C714.305 198.866 715.181 199.263 716.261 199.263C717.341 199.263 718.218 198.866 718.218 198.38V197.498H714.311V198.38H714.305Z" fill="#D2E1F6"/>
<path d="M716.261 198.388C717.342 198.388 718.218 197.993 718.218 197.505C718.218 197.018 717.342 196.623 716.261 196.623C715.181 196.623 714.305 197.018 714.305 197.505C714.305 197.993 715.181 198.388 716.261 198.388Z" fill="white"/>
<path d="M717.516 204.516H711.094C710.548 204.516 710.098 204.066 710.098 203.52C710.098 202.974 710.548 202.523 711.094 202.523H717.516C718.062 202.523 718.512 202.974 718.512 203.52C718.512 204.066 718.062 204.516 717.516 204.516Z" fill="#15D2FC"/>
<path d="M734.992 200.273H723.709V230.93H734.992V200.273Z" fill="#6170B1"/>
<path d="M734.986 230.924L744.709 224.82V194.158L734.986 200.262V230.924Z" fill="#455890"/>
<path d="M723.709 200.274L734.986 200.262L744.709 194.158H733.918L723.709 200.274Z" fill="#6C7CC4"/>
<path d="M729.345 198.38C729.345 198.866 730.221 199.263 731.301 199.263C732.382 199.263 733.258 198.866 733.258 198.38V197.498H729.351V198.38H729.345Z" fill="#D2E1F6"/>
<path d="M731.301 198.388C732.382 198.388 733.258 197.993 733.258 197.505C733.258 197.018 732.382 196.623 731.301 196.623C730.221 196.623 729.345 197.018 729.345 197.505C729.345 197.993 730.221 198.388 731.301 198.388Z" fill="white"/>
<path d="M732.363 204.356H725.942C725.395 204.356 724.945 203.906 724.945 203.36C724.945 202.813 725.395 202.363 725.942 202.363H732.363C732.909 202.363 733.36 202.813 733.36 203.36C733.36 203.906 732.909 204.356 732.363 204.356Z" fill="black"/>
<defs>
<linearGradient id="paint0_linear_587_145384" x1="145.017" y1="130.65" x2="110.67" y2="29.5875" gradientUnits="userSpaceOnUse">
<stop offset="0.01" stop-color="#FFCABD" stop-opacity="0"/>
<stop offset="1" stop-color="#FFCABD"/>
</linearGradient>
<linearGradient id="paint1_linear_587_145384" x1="750.548" y1="107.674" x2="771.907" y2="107.674" gradientUnits="userSpaceOnUse">
<stop stop-color="white"/>
<stop offset="1" stop-color="#77E7F5"/>
</linearGradient>
<linearGradient id="paint2_linear_587_145384" x1="750.548" y1="110.856" x2="771.908" y2="110.856" gradientUnits="userSpaceOnUse">
<stop stop-color="white"/>
<stop offset="1" stop-color="#F88BCB"/>
</linearGradient>
<linearGradient id="paint3_linear_587_145384" x1="750.548" y1="113.783" x2="771.908" y2="113.783" gradientUnits="userSpaceOnUse">
<stop stop-color="white"/>
<stop offset="1" stop-color="#646FC1"/>
</linearGradient>
<linearGradient id="paint4_linear_587_145384" x1="750.548" y1="116.43" x2="771.907" y2="116.43" gradientUnits="userSpaceOnUse">
<stop stop-color="white"/>
<stop offset="1" stop-color="#FFE815"/>
</linearGradient>
<clipPath id="clip0_587_145384">
<rect width="80.2938" height="80.2938" fill="white" transform="translate(380.505 97.5781)"/>
</clipPath>
</defs>
</svg>
