<svg width="177" height="40" viewBox="0 0 177 40" fill="none" xmlns="http://www.w3.org/2000/svg">
<path d="M90.1076 35.0196V16.3319H82.7378V11.989H102.807V16.3319H95.4375V35.0196H90.1076Z" fill="#52BDBD"/>
<path d="M58.7656 35.0196V11.989H63.1743L76.7624 28.571H74.6238V11.989H79.8879V35.0196H75.5121L61.8912 18.4376H64.0297V35.0196H58.7656Z" fill="#52BDBD"/>
<path d="M47.9695 35.0196V11.989H53.2994V35.0196H47.9695Z" fill="#52BDBD"/>
<path d="M23.7761 35.0196V11.989H33.7451C35.8068 11.989 37.5835 12.329 39.075 13.0089C40.5665 13.667 41.718 14.6211 42.5296 15.8713C43.3411 17.1215 43.7469 18.613 43.7469 20.3458C43.7469 22.0567 43.3411 23.5372 42.5296 24.7874C41.718 26.0157 40.5665 26.9589 39.075 27.6169C37.5835 28.2749 35.8068 28.6039 33.7451 28.6039H26.7372L29.1061 26.268V35.0196H23.7761ZM38.417 35.0196L32.6593 26.6628H38.3512L44.1746 35.0196H38.417ZM29.1061 26.8602L26.7372 24.3597H33.449C35.094 24.3597 36.3223 24.0088 37.1338 23.3069C37.9454 22.5831 38.3512 21.596 38.3512 20.3458C38.3512 19.0737 37.9454 18.0866 37.1338 17.3847C36.3223 16.6829 35.094 16.3319 33.449 16.3319H26.7372L29.1061 13.7986V26.8602Z" fill="#52BDBD"/>
<path d="M0 35.0196V11.989H9.96894C12.0307 11.989 13.8074 12.329 15.2989 13.0089C16.7904 13.667 17.9419 14.6211 18.7535 15.8713C19.565 17.1215 19.9708 18.613 19.9708 20.3458C19.9708 22.0567 19.565 23.5372 18.7535 24.7874C17.9419 26.0376 16.7904 27.0027 15.2989 27.6827C13.8074 28.3407 12.0307 28.6697 9.96894 28.6697H2.96107L5.32993 26.268V35.0196H0ZM5.32993 26.8602L2.96107 24.3268H9.67283C11.3179 24.3268 12.5462 23.9759 13.3577 23.274C14.1693 22.5721 14.575 21.596 14.575 20.3458C14.575 19.0737 14.1693 18.0866 13.3577 17.3847C12.5462 16.6829 11.3179 16.3319 9.67283 16.3319H2.96107L5.32993 13.7986V26.8602Z" fill="#52BDBD"/>
<path d="M150.638 34.9046C149.514 34.9046 148.416 34.7704 147.342 34.5021C146.269 34.2169 145.413 33.8647 144.776 33.4454L146.084 30.6275C146.688 31.0133 147.418 31.332 148.273 31.5836C149.129 31.8184 149.967 31.9358 150.789 31.9358C152.45 31.9358 153.28 31.5249 153.28 30.703C153.28 30.3172 153.053 30.0405 152.601 29.8727C152.148 29.705 151.452 29.5624 150.512 29.445C149.405 29.2773 148.491 29.0844 147.77 28.8664C147.049 28.6483 146.42 28.2625 145.883 27.709C145.363 27.1555 145.103 26.3672 145.103 25.344C145.103 24.4886 145.346 23.7338 145.833 23.0797C146.336 22.4088 147.057 21.8888 147.996 21.5198C148.952 21.1508 150.076 20.9663 151.368 20.9663C152.324 20.9663 153.271 21.0753 154.211 21.2934C155.167 21.4947 155.955 21.7798 156.576 22.1488L155.267 24.9415C154.077 24.2706 152.777 23.9351 151.368 23.9351C150.529 23.9351 149.9 24.0525 149.481 24.2874C149.061 24.5222 148.852 24.8241 148.852 25.1931C148.852 25.6124 149.078 25.9059 149.531 26.0737C149.984 26.2414 150.705 26.4007 151.695 26.5517C152.802 26.7362 153.708 26.9375 154.412 27.1555C155.117 27.3568 155.729 27.7342 156.249 28.2877C156.769 28.8412 157.029 29.6128 157.029 30.6024C157.029 31.441 156.777 32.1874 156.274 32.8416C155.771 33.4957 155.033 34.0073 154.06 34.3763C153.104 34.7285 151.963 34.9046 150.638 34.9046Z" fill="white"/>
<path d="M142.449 21.1675V34.7033H138.725V33.093C138.205 33.6801 137.585 34.133 136.863 34.4517C136.142 34.7536 135.362 34.9045 134.523 34.9045C132.746 34.9045 131.337 34.393 130.297 33.3698C129.257 32.3467 128.737 30.8287 128.737 28.8159V21.1675H132.662V28.2373C132.662 30.4178 133.576 31.508 135.404 31.508C136.343 31.508 137.098 31.2061 137.668 30.6023C138.239 29.9817 138.524 29.0675 138.524 27.8599V21.1675H142.449Z" fill="white"/>
<path d="M124.847 34.9045C123.321 34.9045 122.13 34.5019 121.274 33.6968C120.419 32.875 119.991 31.7176 119.991 30.2248V16.0349H123.916V29.9984C123.916 30.5687 124.059 31.0132 124.344 31.3318C124.646 31.6338 125.065 31.7847 125.602 31.7847C125.803 31.7847 126.004 31.7596 126.206 31.7092C126.424 31.6589 126.591 31.6002 126.709 31.5331L126.885 34.5774C126.231 34.7955 125.551 34.9045 124.847 34.9045Z" fill="white"/>
<path d="M110.621 20.9663C111.879 20.9663 113.02 21.2598 114.043 21.8469C115.083 22.4172 115.896 23.2307 116.483 24.2874C117.071 25.3273 117.364 26.5433 117.364 27.9355C117.364 29.3276 117.071 30.552 116.483 31.6087C115.896 32.6487 115.083 33.4622 114.043 34.0492C113.02 34.6195 111.879 34.9046 110.621 34.9046C108.894 34.9046 107.535 34.3595 106.545 33.2693V39.5843H102.621V21.1676H106.369V22.7275C107.342 21.5534 108.76 20.9663 110.621 20.9663ZM109.942 31.6842C110.948 31.6842 111.77 31.3488 112.408 30.6778C113.062 29.9902 113.389 29.076 113.389 27.9355C113.389 26.7949 113.062 25.8892 112.408 25.2183C111.77 24.5306 110.948 24.1867 109.942 24.1867C108.936 24.1867 108.105 24.5306 107.451 25.2183C106.814 25.8892 106.495 26.7949 106.495 27.9355C106.495 29.076 106.814 29.9902 107.451 30.6778C108.105 31.3488 108.936 31.6842 109.942 31.6842Z" fill="white"/>
<path d="M150.873 10.7085H155.623C158.684 10.7085 161.166 13.1898 161.166 16.2506H150.873V10.7085Z" fill="#52BDBD"/>
<path d="M166.707 10.7085H172.196C174.849 10.7085 177 12.8592 177 15.5123V16.2506H166.707V10.7085Z" fill="#D77BD9"/>
<path d="M161.165 10.7085L161.165 5.21978C161.165 2.56673 163.316 0.416002 165.969 0.416002L166.707 0.416002L166.707 10.7085L161.165 10.7085Z" fill="#F1CB44"/>
<path d="M161.165 26.543L161.165 21.7926C161.165 18.7318 163.647 16.2505 166.707 16.2505L166.707 26.543L161.165 26.543Z" fill="#776CF2"/>
</svg>
