<svg width="543" height="249" viewBox="0 0 543 249" fill="none" xmlns="http://www.w3.org/2000/svg">
<path opacity="0.5" d="M14.4744 12.3291H11.9944V235.714H14.4744V12.3291Z" fill="#2B2A34" fill-opacity="0.2"/>
<path opacity="0.2" d="M88.8731 12.3291H86.3931V235.714H88.8731V12.3291Z" fill="#2B2A34" fill-opacity="0.2"/>
<path opacity="0.2" d="M162.448 12.3291H159.968V235.714H162.448V12.3291Z" fill="#2B2A34" fill-opacity="0.2"/>
<path opacity="0.2" d="M236.023 12.3291H233.543V235.714H236.023V12.3291Z" fill="#2B2A34" fill-opacity="0.2"/>
<path opacity="0.2" d="M309.598 12.3291H307.118V235.714H309.598V12.3291Z" fill="#2B2A34" fill-opacity="0.2"/>
<path opacity="0.2" d="M457.571 12.3291H455.091V235.714H457.571V12.3291Z" fill="#2B2A34" fill-opacity="0.2"/>
<path opacity="0.2" d="M388.129 12.3291H385.649V235.714H388.129V12.3291Z" fill="#2B2A34" fill-opacity="0.2"/>
<path opacity="0.5" d="M531.146 13.9775H528.666V237.362H531.146V13.9775Z" fill="#2B2A34" fill-opacity="0.2"/>
<path opacity="0.5" d="M531.147 12.3291H11.9944V14.802H531.147V12.3291Z" fill="#2B2A34" fill-opacity="0.2"/>
<path opacity="0.2" d="M531.147 86.5159H11.9944V88.9888H531.147V86.5159Z" fill="#2B2A34" fill-opacity="0.2"/>
<path opacity="0.2" d="M531.147 159.878H11.9944V162.351H531.147V159.878Z" fill="#2B2A34" fill-opacity="0.2"/>
<path opacity="0.5" d="M531.147 234.889H11.9944V237.362H531.147V234.889Z" fill="#2B2A34" fill-opacity="0.2"/>
<path d="M14.4744 0.78894H11.9944V26.3422H14.4744V0.78894Z" fill="#2B2A34" fill-opacity="0.2"/>
<path d="M26.0464 12.3291H0.419434V14.802H26.0464V12.3291Z" fill="#2B2A34" fill-opacity="0.2"/>
<path d="M14.4744 223.349H11.9944V248.902H14.4744V223.349Z" fill="#2B2A34" fill-opacity="0.2"/>
<path d="M26.0464 234.889H0.419434V237.362H26.0464V234.889Z" fill="#2B2A34" fill-opacity="0.2"/>
<path d="M531.146 0.78894H528.666V26.3422H531.146V0.78894Z" fill="#2B2A34" fill-opacity="0.2"/>
<path d="M542.718 12.3291H517.091V14.802H542.718V12.3291Z" fill="#2B2A34" fill-opacity="0.2"/>
<path d="M531.146 223.349H528.666V248.902H531.146V223.349Z" fill="#2B2A34" fill-opacity="0.2"/>
<path d="M542.718 234.889H517.091V237.362H542.718V234.889Z" fill="#2B2A34" fill-opacity="0.2"/>
</svg>
