<svg width="1600" height="580" viewBox="0 0 1600 580" fill="none" xmlns="http://www.w3.org/2000/svg">
<mask id="mask0_522_72664" style="mask-type:alpha" maskUnits="userSpaceOnUse" x="0" y="0" width="1600" height="580">
<rect width="1600" height="580" fill="#D9D9D9"/>
</mask>
<g mask="url(#mask0_522_72664)">
<rect width="1600" height="580" fill="#27262D"/>
<mask id="mask1_522_72664" style="mask-type:alpha" maskUnits="userSpaceOnUse" x="1" y="0" width="1599" height="580">
<rect x="1.66479" width="1598.34" height="580" fill="#2B2A34"/>
</mask>
<g mask="url(#mask1_522_72664)">
<g opacity="0.2">
<path opacity="0.2" d="M10.1241 -306.027H9.03027V98.0822H10.1241V-306.027Z" fill="white"/>
<path opacity="0.2" d="M31.5094 16.7566H-407.125V17.7643H31.5094V16.7566Z" fill="white"/>
<path opacity="0.2" d="M31.5094 36.9619H-407.125V37.9697H31.5094V36.9619Z" fill="white"/>
<path opacity="0.2" d="M31.5094 57.168H-407.125V58.1757H31.5094V57.168Z" fill="white"/>
<path opacity="0.2" d="M31.5094 77.373H-407.125V78.3808H31.5094V77.373Z" fill="white"/>
<path opacity="0.5" d="M32.5006 -305.524H31.4067V97.5782H32.5006V-305.524Z" fill="white"/>
<path opacity="0.2" d="M53.8846 -306.028H52.7908V98.082H53.8846V-306.028Z" fill="white"/>
<path opacity="0.2" d="M75.8177 -306.028H74.7239V98.082H75.8177V-306.028Z" fill="white"/>
<path opacity="0.2" d="M97.7481 -306.028H96.6543V98.082H97.7481V-306.028Z" fill="white"/>
<path opacity="0.2" d="M119.682 -306.028H118.588V98.082H119.682V-306.028Z" fill="white"/>
<path opacity="0.5" d="M141.612 -306.028H140.518V98.082H141.612V-306.028Z" fill="white"/>
<path opacity="0.2" d="M163.542 -306.028H162.448V98.082H163.542V-306.028Z" fill="white"/>
<path opacity="0.2" d="M185.476 -306.028H184.382V98.082H185.476V-306.028Z" fill="white"/>
<path opacity="0.2" d="M207.409 -306.028H206.315V98.082H207.409V-306.028Z" fill="white"/>
<path opacity="0.2" d="M229.339 -306.028H228.246V98.082H229.339V-306.028Z" fill="white"/>
<path opacity="0.5" d="M251.27 -306.028H250.176V98.082H251.27V-306.028Z" fill="white"/>
<path opacity="0.2" d="M273.203 -306.028H272.11V98.082H273.203V-306.028Z" fill="white"/>
<path opacity="0.2" d="M295.134 -306.028H294.04V98.082H295.134V-306.028Z" fill="white"/>
<path opacity="0.2" d="M317.067 -306.028H315.974V98.082H317.067V-306.028Z" fill="white"/>
<path opacity="0.2" d="M338.998 -306.028H337.904V98.082H338.998V-306.028Z" fill="white"/>
<path opacity="0.5" d="M360.931 -306.028H359.837V98.082H360.931V-306.028Z" fill="white"/>
<path opacity="0.2" d="M382.861 -306.028H381.767V98.082H382.861V-306.028Z" fill="white"/>
<path opacity="0.2" d="M404.795 -306.028H403.701V98.082H404.795V-306.028Z" fill="white"/>
<path opacity="0.2" d="M426.725 -306.028H425.631V98.082H426.725V-306.028Z" fill="white"/>
<path opacity="0.2" d="M448.655 -306.028H447.562V98.082H448.655V-306.028Z" fill="white"/>
<path opacity="0.2" d="M470.041 16.7566H31.4067V17.7643H470.041V16.7566Z" fill="white"/>
<path opacity="0.2" d="M470.041 36.9619H31.4067V37.9697H470.041V36.9619Z" fill="white"/>
<path opacity="0.2" d="M470.041 57.1675H31.4067V58.1752H470.041V57.1675Z" fill="white"/>
<path opacity="0.2" d="M470.041 77.3726H31.4067V78.3803H470.041V77.3726Z" fill="white"/>
<path d="M32.5006 -6.72412H31.4067V0.330162H32.5006V-6.72412Z" fill="white"/>
<path d="M141.885 -6.72412H140.791V0.330162H141.885V-6.72412Z" fill="white"/>
<path d="M251.27 -6.72412H250.176V0.330162H251.27V-6.72412Z" fill="white"/>
<path d="M360.655 -6.72412H359.561V0.330162H360.655V-6.72412Z" fill="white"/>
<path d="M87.1927 46.687H86.0989V47.6948H87.1927V46.687Z" fill="white"/>
<path d="M196.578 46.687H195.484V47.6948H196.578V46.687Z" fill="white"/>
<path d="M305.966 46.687H304.872V47.6948H305.966V46.687Z" fill="white"/>
<path d="M415.35 46.687H414.256V47.6948H415.35V46.687Z" fill="white"/>
<path opacity="0.5" d="M471.034 -305.524H469.94V97.5782H471.034V-305.524Z" fill="white"/>
<path opacity="0.2" d="M492.418 -306.028H491.324V98.082H492.418V-306.028Z" fill="white"/>
<path opacity="0.2" d="M514.351 -306.028H513.258V98.082H514.351V-306.028Z" fill="white"/>
<path opacity="0.2" d="M536.282 -306.028H535.188V98.082H536.282V-306.028Z" fill="white"/>
<path opacity="0.2" d="M558.215 -306.028H557.122V98.082H558.215V-306.028Z" fill="white"/>
<path opacity="0.5" d="M580.146 -306.028H579.052V98.082H580.146V-306.028Z" fill="white"/>
<path opacity="0.2" d="M602.076 -306.028H600.982V98.082H602.076V-306.028Z" fill="white"/>
<path opacity="0.2" d="M624.01 -306.028H622.916V98.082H624.01V-306.028Z" fill="white"/>
<path opacity="0.2" d="M645.943 -306.028H644.849V98.082H645.943V-306.028Z" fill="white"/>
<path opacity="0.2" d="M667.873 -306.028H666.779V98.082H667.873V-306.028Z" fill="white"/>
<path opacity="0.5" d="M689.803 -306.028H688.71V98.082H689.803V-306.028Z" fill="white"/>
<path opacity="0.2" d="M711.737 -306.028H710.643V98.082H711.737V-306.028Z" fill="white"/>
<path opacity="0.2" d="M733.667 -306.028H732.574V98.082H733.667V-306.028Z" fill="white"/>
<path opacity="0.2" d="M755.601 -306.028H754.507V98.082H755.601V-306.028Z" fill="white"/>
<path opacity="0.2" d="M777.531 -306.028H776.438V98.082H777.531V-306.028Z" fill="white"/>
<path opacity="0.5" d="M799.465 -306.028H798.371V98.082H799.465V-306.028Z" fill="white"/>
<path opacity="0.2" d="M821.395 -306.028H820.301V98.082H821.395V-306.028Z" fill="white"/>
<path opacity="0.2" d="M843.329 -306.028H842.235V98.082H843.329V-306.028Z" fill="white"/>
<path opacity="0.2" d="M865.259 -306.028H864.165V98.082H865.259V-306.028Z" fill="white"/>
<path opacity="0.2" d="M887.189 -306.028H886.095V98.082H887.189V-306.028Z" fill="white"/>
<path opacity="0.2" d="M908.574 16.7566H469.94V17.7643H908.574V16.7566Z" fill="white"/>
<path opacity="0.2" d="M908.574 36.9619H469.94V37.9697H908.574V36.9619Z" fill="white"/>
<path opacity="0.2" d="M908.574 57.1675H469.94V58.1752H908.574V57.1675Z" fill="white"/>
<path opacity="0.2" d="M908.574 77.3726H469.94V78.3803H908.574V77.3726Z" fill="white"/>
<path d="M471.034 -6.72412H469.94V0.330162H471.034V-6.72412Z" fill="white"/>
<path d="M580.419 -6.72412H579.325V0.330162H580.419V-6.72412Z" fill="white"/>
<path d="M689.803 -6.72412H688.71V0.330162H689.803V-6.72412Z" fill="white"/>
<path d="M799.189 -6.72412H798.095V0.330162H799.189V-6.72412Z" fill="white"/>
<path d="M525.726 46.687H524.632V47.6948H525.726V46.687Z" fill="white"/>
<path d="M635.114 46.687H634.021V47.6948H635.114V46.687Z" fill="white"/>
<path d="M744.499 46.687H743.406V47.6948H744.499V46.687Z" fill="white"/>
<path d="M853.884 46.687H852.79V47.6948H853.884V46.687Z" fill="white"/>
<path opacity="0.5" d="M909.569 -305.524H908.475V97.5782H909.569V-305.524Z" fill="white"/>
<path opacity="0.2" d="M930.953 -306.028H929.859V98.082H930.953V-306.028Z" fill="white"/>
<path opacity="0.2" d="M952.886 -306.028H951.792V98.082H952.886V-306.028Z" fill="white"/>
<path opacity="0.2" d="M974.816 -306.028H973.722V98.082H974.816V-306.028Z" fill="white"/>
<path opacity="0.2" d="M996.75 -306.028H995.656V98.082H996.75V-306.028Z" fill="white"/>
<path opacity="0.5" d="M1018.68 -306.028H1017.59V98.082H1018.68V-306.028Z" fill="white"/>
<path opacity="0.2" d="M1040.61 -306.028H1039.52V98.082H1040.61V-306.028Z" fill="white"/>
<path opacity="0.2" d="M1062.54 -306.028H1061.45V98.082H1062.54V-306.028Z" fill="white"/>
<path opacity="0.2" d="M1084.48 -306.028H1083.38V98.082H1084.48V-306.028Z" fill="white"/>
<path opacity="0.2" d="M1106.41 -306.028H1105.31V98.082H1106.41V-306.028Z" fill="white"/>
<path opacity="0.5" d="M1128.34 -306.028H1127.24V98.082H1128.34V-306.028Z" fill="white"/>
<path opacity="0.2" d="M1150.27 -306.028H1149.18V98.082H1150.27V-306.028Z" fill="white"/>
<path opacity="0.2" d="M1172.2 -306.028H1171.11V98.082H1172.2V-306.028Z" fill="white"/>
<path opacity="0.2" d="M1194.14 -306.028H1193.04V98.082H1194.14V-306.028Z" fill="white"/>
<path opacity="0.2" d="M1216.07 -306.028H1214.97V98.082H1216.07V-306.028Z" fill="white"/>
<path opacity="0.5" d="M1238 -306.028H1236.91V98.082H1238V-306.028Z" fill="white"/>
<path opacity="0.2" d="M1259.93 -306.028H1258.84V98.082H1259.93V-306.028Z" fill="white"/>
<path opacity="0.2" d="M1281.86 -306.028H1280.77V98.082H1281.86V-306.028Z" fill="white"/>
<path opacity="0.2" d="M1303.79 -306.028H1302.7V98.082H1303.79V-306.028Z" fill="white"/>
<path opacity="0.2" d="M1325.72 -306.028H1324.63V98.082H1325.72V-306.028Z" fill="white"/>
<path opacity="0.2" d="M1347.11 16.7566H908.475V17.7643H1347.11V16.7566Z" fill="white"/>
<path opacity="0.2" d="M1347.11 36.9619H908.475V37.9697H1347.11V36.9619Z" fill="white"/>
<path opacity="0.2" d="M1347.11 57.1675H908.475V58.1752H1347.11V57.1675Z" fill="white"/>
<path opacity="0.2" d="M1347.11 77.3726H908.475V78.3803H1347.11V77.3726Z" fill="white"/>
<path d="M909.569 -6.72412H908.475V0.330162H909.569V-6.72412Z" fill="white"/>
<path d="M1018.95 -6.72412H1017.86V0.330162H1018.95V-6.72412Z" fill="white"/>
<path d="M1128.34 -6.72412H1127.24V0.330162H1128.34V-6.72412Z" fill="white"/>
<path d="M1237.72 -6.72412H1236.63V0.330162H1237.72V-6.72412Z" fill="white"/>
<path d="M964.261 46.687H963.167V47.6948H964.261V46.687Z" fill="white"/>
<path d="M1073.65 46.687H1072.55V47.6948H1073.65V46.687Z" fill="white"/>
<path d="M1183.03 46.687H1181.94V47.6948H1183.03V46.687Z" fill="white"/>
<path d="M1292.42 46.687H1291.32V47.6948H1292.42V46.687Z" fill="white"/>
<path opacity="0.5" d="M1348.1 -305.524H1347.01V97.5782H1348.1V-305.524Z" fill="white"/>
<path opacity="0.2" d="M1369.48 -306.028H1368.39V98.082H1369.48V-306.028Z" fill="white"/>
<path opacity="0.2" d="M1391.42 -306.028H1390.32V98.082H1391.42V-306.028Z" fill="white"/>
<path opacity="0.2" d="M1413.35 -306.028H1412.25V98.082H1413.35V-306.028Z" fill="white"/>
<path opacity="0.2" d="M1435.28 -306.028H1434.19V98.082H1435.28V-306.028Z" fill="white"/>
<path opacity="0.5" d="M1457.21 -306.028H1456.12V98.082H1457.21V-306.028Z" fill="white"/>
<path opacity="0.2" d="M1479.14 -306.028H1478.05V98.082H1479.14V-306.028Z" fill="white"/>
<path opacity="0.2" d="M1501.08 -306.028H1499.98V98.082H1501.08V-306.028Z" fill="white"/>
<path opacity="0.2" d="M1523.01 -306.028H1521.91V98.082H1523.01V-306.028Z" fill="white"/>
<path opacity="0.2" d="M1544.94 -306.028H1543.84V98.082H1544.94V-306.028Z" fill="white"/>
<path opacity="0.5" d="M1566.87 -306.028H1565.78V98.082H1566.87V-306.028Z" fill="white"/>
<path opacity="0.2" d="M1588.8 -306.028H1587.71V98.082H1588.8V-306.028Z" fill="white"/>
<path opacity="0.2" d="M1785.64 16.7566H1347.01V17.7643H1785.64V16.7566Z" fill="white"/>
<path opacity="0.2" d="M1785.64 36.9619H1347.01V37.9697H1785.64V36.9619Z" fill="white"/>
<path opacity="0.2" d="M1785.64 57.1675H1347.01V58.1752H1785.64V57.1675Z" fill="white"/>
<path opacity="0.2" d="M1785.64 77.3726H1347.01V78.3803H1785.64V77.3726Z" fill="white"/>
<path d="M1348.1 -6.72412H1347.01V0.330162H1348.1V-6.72412Z" fill="white"/>
<path d="M1457.48 -6.72412H1456.39V0.330162H1457.48V-6.72412Z" fill="white"/>
<path d="M1566.87 -6.72412H1565.78V0.330162H1566.87V-6.72412Z" fill="white"/>
<path d="M1402.79 46.687H1401.7V47.6948H1402.79V46.687Z" fill="white"/>
<path d="M1512.18 46.687H1511.08V47.6948H1512.18V46.687Z" fill="white"/>
<path opacity="0.2" d="M10.1241 97.9893H9.03027V502.099H10.1241V97.9893Z" fill="white"/>
<path opacity="0.5" d="M30.965 97.9893H-406.575V98.997H30.965V97.9893Z" fill="white"/>
<path opacity="0.2" d="M31.5094 117.69H-407.125V118.698H31.5094V117.69Z" fill="white"/>
<path opacity="0.2" d="M31.5094 137.896H-407.125V138.904H31.5094V137.896Z" fill="white"/>
<path opacity="0.2" d="M31.5094 158.102H-407.125V159.109H31.5094V158.102Z" fill="white"/>
<path opacity="0.2" d="M31.5094 178.308H-407.125V179.315H31.5094V178.308Z" fill="white"/>
<path opacity="0.5" d="M31.5094 198.513H-407.125V199.52H31.5094V198.513Z" fill="white"/>
<path opacity="0.2" d="M31.5094 218.717H-407.125V219.725H31.5094V218.717Z" fill="white"/>
<path opacity="0.2" d="M31.5094 238.924H-407.125V239.932H31.5094V238.924Z" fill="white"/>
<path opacity="0.2" d="M31.5094 259.128H-407.125V260.136H31.5094V259.128Z" fill="white"/>
<path opacity="0.2" d="M31.5094 279.334H-407.125V280.342H31.5094V279.334Z" fill="white"/>
<path opacity="0.5" d="M31.5094 299.54H-407.125V300.547H31.5094V299.54Z" fill="white"/>
<path opacity="0.2" d="M31.5094 319.746H-407.125V320.753H31.5094V319.746Z" fill="white"/>
<path opacity="0.2" d="M31.5094 339.951H-407.125V340.958H31.5094V339.951Z" fill="white"/>
<path opacity="0.2" d="M31.5094 360.157H-407.125V361.165H31.5094V360.157Z" fill="white"/>
<path opacity="0.2" d="M31.5094 380.361H-407.125V381.369H31.5094V380.361Z" fill="white"/>
<path opacity="0.5" d="M31.5094 400.567H-407.125V401.575H31.5094V400.567Z" fill="white"/>
<path opacity="0.2" d="M31.5094 420.773H-407.125V421.781H31.5094V420.773Z" fill="white"/>
<path opacity="0.2" d="M31.5094 440.979H-407.125V441.986H31.5094V440.979Z" fill="white"/>
<path opacity="0.2" d="M31.5094 461.184H-407.125V462.191H31.5094V461.184Z" fill="white"/>
<path opacity="0.2" d="M31.5094 481.389H-407.125V482.397H31.5094V481.389Z" fill="white"/>
<path opacity="0.5" d="M32.5006 98.4927H31.4067V501.595H32.5006V98.4927Z" fill="white"/>
<path opacity="0.2" d="M53.8846 97.9893H52.7908V502.099H53.8846V97.9893Z" fill="white"/>
<path opacity="0.2" d="M75.8177 97.9893H74.7239V502.099H75.8177V97.9893Z" fill="white"/>
<path opacity="0.2" d="M97.7481 97.9893H96.6543V502.099H97.7481V97.9893Z" fill="white"/>
<path opacity="0.2" d="M119.682 97.9893H118.588V502.099H119.682V97.9893Z" fill="white"/>
<path opacity="0.5" d="M141.612 97.9893H140.518V502.099H141.612V97.9893Z" fill="white"/>
<path opacity="0.2" d="M163.542 97.9893H162.448V502.099H163.542V97.9893Z" fill="white"/>
<path opacity="0.2" d="M185.476 97.9893H184.382V502.099H185.476V97.9893Z" fill="white"/>
<path opacity="0.2" d="M207.409 97.9893H206.315V502.099H207.409V97.9893Z" fill="white"/>
<path opacity="0.2" d="M229.339 97.9893H228.246V502.099H229.339V97.9893Z" fill="white"/>
<path opacity="0.5" d="M251.27 97.9893H250.176V502.099H251.27V97.9893Z" fill="white"/>
<path opacity="0.2" d="M273.203 97.9893H272.11V502.099H273.203V97.9893Z" fill="white"/>
<path opacity="0.2" d="M295.134 97.9893H294.04V502.099H295.134V97.9893Z" fill="white"/>
<path opacity="0.2" d="M317.067 97.9893H315.974V502.099H317.067V97.9893Z" fill="white"/>
<path opacity="0.2" d="M338.998 97.9893H337.904V502.099H338.998V97.9893Z" fill="white"/>
<path opacity="0.5" d="M360.931 97.9893H359.837V502.099H360.931V97.9893Z" fill="white"/>
<path opacity="0.2" d="M382.861 97.9893H381.767V502.099H382.861V97.9893Z" fill="white"/>
<path opacity="0.2" d="M404.795 97.9893H403.701V502.099H404.795V97.9893Z" fill="white"/>
<path opacity="0.2" d="M426.725 97.9893H425.631V502.099H426.725V97.9893Z" fill="white"/>
<path opacity="0.2" d="M448.655 97.9893H447.562V502.099H448.655V97.9893Z" fill="white"/>
<path opacity="0.5" d="M469.493 97.9893H31.9531V98.997H469.493V97.9893Z" fill="white"/>
<path opacity="0.2" d="M470.041 117.69H31.4067V118.698H470.041V117.69Z" fill="white"/>
<path opacity="0.2" d="M470.041 137.896H31.4067V138.904H470.041V137.896Z" fill="white"/>
<path opacity="0.2" d="M470.041 158.101H31.4067V159.109H470.041V158.101Z" fill="white"/>
<path opacity="0.2" d="M470.041 178.307H31.4067V179.314H470.041V178.307Z" fill="white"/>
<path opacity="0.5" d="M470.041 198.512H31.4067V199.52H470.041V198.512Z" fill="white"/>
<path opacity="0.2" d="M470.041 218.717H31.4067V219.725H470.041V218.717Z" fill="white"/>
<path opacity="0.2" d="M470.041 238.924H31.4067V239.932H470.041V238.924Z" fill="white"/>
<path opacity="0.2" d="M470.041 259.128H31.4067V260.136H470.041V259.128Z" fill="white"/>
<path opacity="0.2" d="M470.041 279.334H31.4067V280.342H470.041V279.334Z" fill="white"/>
<path opacity="0.5" d="M470.041 299.54H31.4067V300.547H470.041V299.54Z" fill="white"/>
<path opacity="0.2" d="M470.041 319.745H31.4067V320.753H470.041V319.745Z" fill="white"/>
<path opacity="0.2" d="M470.041 339.95H31.4067V340.958H470.041V339.95Z" fill="white"/>
<path opacity="0.2" d="M470.041 360.157H31.4067V361.164H470.041V360.157Z" fill="white"/>
<path opacity="0.2" d="M470.041 380.361H31.4067V381.369H470.041V380.361Z" fill="white"/>
<path opacity="0.5" d="M470.041 400.567H31.4067V401.575H470.041V400.567Z" fill="white"/>
<path opacity="0.2" d="M470.041 420.773H31.4067V421.781H470.041V420.773Z" fill="white"/>
<path opacity="0.2" d="M470.041 440.979H31.4067V441.986H470.041V440.979Z" fill="white"/>
<path opacity="0.2" d="M470.041 461.184H31.4067V462.191H470.041V461.184Z" fill="white"/>
<path opacity="0.2" d="M470.041 481.389H31.4067V482.397H470.041V481.389Z" fill="white"/>
<path d="M32.5006 94.9658H31.4067V102.02H32.5006V94.9658Z" fill="white"/>
<path d="M35.7824 97.989H28.1255V98.9968H35.7824V97.989Z" fill="white"/>
<path d="M32.5006 195.741H31.4067V202.795H32.5006V195.741Z" fill="white"/>
<path d="M35.7824 198.764H28.1255V199.772H35.7824V198.764Z" fill="white"/>
<path d="M32.5006 296.516H31.4067V303.57H32.5006V296.516Z" fill="white"/>
<path d="M35.7824 299.54H28.1255V300.547H35.7824V299.54Z" fill="white"/>
<path d="M32.5006 397.292H31.4067V404.346H32.5006V397.292Z" fill="white"/>
<path d="M35.7824 400.315H28.1255V401.323H35.7824V400.315Z" fill="white"/>
<path d="M141.885 94.9653H140.791V102.02H141.885V94.9653Z" fill="white"/>
<path d="M145.167 97.9893H137.51V98.997H145.167V97.9893Z" fill="white"/>
<path d="M141.885 195.741H140.791V202.795H141.885V195.741Z" fill="white"/>
<path d="M145.167 198.764H137.51V199.772H145.167V198.764Z" fill="white"/>
<path d="M141.885 296.516H140.791V303.57H141.885V296.516Z" fill="white"/>
<path d="M145.167 299.54H137.51V300.547H145.167V299.54Z" fill="white"/>
<path d="M141.885 397.292H140.791V404.346H141.885V397.292Z" fill="white"/>
<path d="M145.167 400.315H137.51V401.323H145.167V400.315Z" fill="white"/>
<path d="M251.27 94.9653H250.176V102.02H251.27V94.9653Z" fill="white"/>
<path d="M254.552 97.9893H246.895V98.997H254.552V97.9893Z" fill="white"/>
<path d="M251.27 195.741H250.176V202.795H251.27V195.741Z" fill="white"/>
<path d="M254.552 198.764H246.895V199.772H254.552V198.764Z" fill="white"/>
<path d="M251.27 296.516H250.176V303.57H251.27V296.516Z" fill="white"/>
<path d="M254.552 299.54H246.895V300.547H254.552V299.54Z" fill="white"/>
<path d="M251.27 397.292H250.176V404.346H251.27V397.292Z" fill="white"/>
<path d="M254.552 400.315H246.895V401.323H254.552V400.315Z" fill="white"/>
<path d="M360.655 94.9653H359.561V102.02H360.655V94.9653Z" fill="white"/>
<path d="M363.937 97.9893H356.28V98.997H363.937V97.9893Z" fill="white"/>
<path d="M360.655 195.741H359.561V202.795H360.655V195.741Z" fill="white"/>
<path d="M363.937 198.764H356.28V199.772H363.937V198.764Z" fill="white"/>
<path d="M360.655 296.516H359.561V303.57H360.655V296.516Z" fill="white"/>
<path d="M363.937 299.54H356.28V300.547H363.937V299.54Z" fill="white"/>
<path d="M360.655 397.292H359.561V404.346H360.655V397.292Z" fill="white"/>
<path d="M363.937 400.315H356.28V401.323H363.937V400.315Z" fill="white"/>
<path d="M87.1927 148.377H86.0989V149.385H87.1927V148.377Z" fill="white"/>
<path d="M196.578 148.377H195.484V149.385H196.578V148.377Z" fill="white"/>
<path d="M305.966 148.377H304.872V149.385H305.966V148.377Z" fill="white"/>
<path d="M415.35 148.377H414.256V149.385H415.35V148.377Z" fill="white"/>
<path d="M87.1927 249.151H86.0989V250.159H87.1927V249.151Z" fill="white"/>
<path d="M196.578 249.151H195.484V250.159H196.578V249.151Z" fill="white"/>
<path d="M305.966 249.151H304.872V250.159H305.966V249.151Z" fill="white"/>
<path d="M415.35 249.151H414.256V250.159H415.35V249.151Z" fill="white"/>
<path d="M87.1927 349.927H86.0989V350.935H87.1927V349.927Z" fill="white"/>
<path d="M196.578 349.927H195.484V350.935H196.578V349.927Z" fill="white"/>
<path d="M305.966 349.927H304.872V350.935H305.966V349.927Z" fill="white"/>
<path d="M415.35 349.927H414.256V350.935H415.35V349.927Z" fill="white"/>
<path d="M87.1927 450.703H86.0989V451.711H87.1927V450.703Z" fill="white"/>
<path d="M196.578 450.703H195.484V451.711H196.578V450.703Z" fill="white"/>
<path d="M305.966 450.703H304.872V451.711H305.966V450.703Z" fill="white"/>
<path d="M415.35 450.703H414.256V451.711H415.35V450.703Z" fill="white"/>
<path opacity="0.5" d="M471.034 98.4932H469.94V501.595H471.034V98.4932Z" fill="white"/>
<path opacity="0.2" d="M492.418 97.9897H491.324V502.099H492.418V97.9897Z" fill="white"/>
<path opacity="0.2" d="M514.351 97.9897H513.258V502.099H514.351V97.9897Z" fill="white"/>
<path opacity="0.2" d="M536.282 97.9897H535.188V502.099H536.282V97.9897Z" fill="white"/>
<path opacity="0.2" d="M558.215 97.9897H557.122V502.099H558.215V97.9897Z" fill="white"/>
<path opacity="0.5" d="M580.146 97.9897H579.052V502.099H580.146V97.9897Z" fill="white"/>
<path opacity="0.2" d="M602.076 97.9897H600.982V502.099H602.076V97.9897Z" fill="white"/>
<path opacity="0.2" d="M624.01 97.9897H622.916V502.099H624.01V97.9897Z" fill="white"/>
<path opacity="0.2" d="M645.943 97.9897H644.849V502.099H645.943V97.9897Z" fill="white"/>
<path opacity="0.2" d="M667.873 97.9897H666.779V502.099H667.873V97.9897Z" fill="white"/>
<path opacity="0.5" d="M689.803 97.9897H688.71V502.099H689.803V97.9897Z" fill="white"/>
<path opacity="0.2" d="M711.737 97.9897H710.643V502.099H711.737V97.9897Z" fill="white"/>
<path opacity="0.2" d="M733.667 97.9897H732.574V502.099H733.667V97.9897Z" fill="white"/>
<path opacity="0.2" d="M755.601 97.9897H754.507V502.099H755.601V97.9897Z" fill="white"/>
<path opacity="0.2" d="M777.531 97.9897H776.438V502.099H777.531V97.9897Z" fill="white"/>
<path opacity="0.5" d="M799.465 97.9897H798.371V502.099H799.465V97.9897Z" fill="white"/>
<path opacity="0.2" d="M821.395 97.9897H820.301V502.099H821.395V97.9897Z" fill="white"/>
<path opacity="0.2" d="M843.329 97.9897H842.235V502.099H843.329V97.9897Z" fill="white"/>
<path opacity="0.2" d="M865.259 97.9897H864.165V502.099H865.259V97.9897Z" fill="white"/>
<path opacity="0.2" d="M887.189 97.9897H886.095V502.099H887.189V97.9897Z" fill="white"/>
<path opacity="0.5" d="M908.027 97.9897H470.487V98.9975H908.027V97.9897Z" fill="white"/>
<path opacity="0.2" d="M908.574 117.69H469.94V118.698H908.574V117.69Z" fill="white"/>
<path opacity="0.2" d="M908.574 137.896H469.94V138.904H908.574V137.896Z" fill="white"/>
<path opacity="0.2" d="M908.574 158.102H469.94V159.109H908.574V158.102Z" fill="white"/>
<path opacity="0.2" d="M908.574 178.307H469.94V179.315H908.574V178.307Z" fill="white"/>
<path opacity="0.5" d="M908.574 198.513H469.94V199.52H908.574V198.513Z" fill="white"/>
<path opacity="0.2" d="M908.574 218.717H469.94V219.725H908.574V218.717Z" fill="white"/>
<path opacity="0.2" d="M908.574 238.924H469.94V239.932H908.574V238.924Z" fill="white"/>
<path opacity="0.2" d="M908.574 259.128H469.94V260.136H908.574V259.128Z" fill="white"/>
<path opacity="0.2" d="M908.574 279.334H469.94V280.342H908.574V279.334Z" fill="white"/>
<path opacity="0.5" d="M908.574 299.54H469.94V300.548H908.574V299.54Z" fill="white"/>
<path opacity="0.2" d="M908.574 319.745H469.94V320.753H908.574V319.745Z" fill="white"/>
<path opacity="0.2" d="M908.574 339.95H469.94V340.958H908.574V339.95Z" fill="white"/>
<path opacity="0.2" d="M908.574 360.157H469.94V361.165H908.574V360.157Z" fill="white"/>
<path opacity="0.2" d="M908.574 380.362H469.94V381.37H908.574V380.362Z" fill="white"/>
<path opacity="0.5" d="M908.574 400.567H469.94V401.575H908.574V400.567Z" fill="white"/>
<path opacity="0.2" d="M908.574 420.773H469.94V421.781H908.574V420.773Z" fill="white"/>
<path opacity="0.2" d="M908.574 440.979H469.94V441.986H908.574V440.979Z" fill="white"/>
<path opacity="0.2" d="M908.574 461.183H469.94V462.191H908.574V461.183Z" fill="white"/>
<path opacity="0.2" d="M908.574 481.389H469.94V482.397H908.574V481.389Z" fill="white"/>
<path d="M471.034 94.9658H469.94V102.02H471.034V94.9658Z" fill="white"/>
<path d="M474.316 97.9897H466.659V98.9975H474.316V97.9897Z" fill="white"/>
<path d="M471.034 195.741H469.94V202.795H471.034V195.741Z" fill="white"/>
<path d="M474.316 198.765H466.659V199.772H474.316V198.765Z" fill="white"/>
<path d="M471.034 296.517H469.94V303.571H471.034V296.517Z" fill="white"/>
<path d="M474.316 299.54H466.659V300.548H474.316V299.54Z" fill="white"/>
<path d="M471.034 397.292H469.94V404.346H471.034V397.292Z" fill="white"/>
<path d="M474.316 400.315H466.659V401.323H474.316V400.315Z" fill="white"/>
<path d="M580.419 94.9658H579.325V102.02H580.419V94.9658Z" fill="white"/>
<path d="M583.701 97.9897H576.044V98.9975H583.701V97.9897Z" fill="white"/>
<path d="M580.419 195.741H579.325V202.795H580.419V195.741Z" fill="white"/>
<path d="M583.701 198.765H576.044V199.772H583.701V198.765Z" fill="white"/>
<path d="M580.419 296.517H579.325V303.571H580.419V296.517Z" fill="white"/>
<path d="M583.701 299.54H576.044V300.548H583.701V299.54Z" fill="white"/>
<path d="M580.419 397.292H579.325V404.346H580.419V397.292Z" fill="white"/>
<path d="M583.701 400.315H576.044V401.323H583.701V400.315Z" fill="white"/>
<path d="M689.803 94.9658H688.71V102.02H689.803V94.9658Z" fill="white"/>
<path d="M693.086 97.9897H685.429V98.9975H693.086V97.9897Z" fill="white"/>
<path d="M689.803 195.741H688.71V202.795H689.803V195.741Z" fill="white"/>
<path d="M693.086 198.765H685.429V199.772H693.086V198.765Z" fill="white"/>
<path d="M689.803 296.517H688.71V303.571H689.803V296.517Z" fill="white"/>
<path d="M693.086 299.54H685.429V300.548H693.086V299.54Z" fill="white"/>
<path d="M689.803 397.292H688.71V404.346H689.803V397.292Z" fill="white"/>
<path d="M693.086 400.315H685.429V401.323H693.086V400.315Z" fill="white"/>
<path d="M799.189 94.9658H798.095V102.02H799.189V94.9658Z" fill="white"/>
<path d="M802.47 97.9897H794.813V98.9975H802.47V97.9897Z" fill="white"/>
<path d="M799.189 195.741H798.095V202.795H799.189V195.741Z" fill="white"/>
<path d="M802.47 198.765H794.813V199.772H802.47V198.765Z" fill="white"/>
<path d="M799.189 296.517H798.095V303.571H799.189V296.517Z" fill="white"/>
<path d="M802.47 299.54H794.813V300.548H802.47V299.54Z" fill="white"/>
<path d="M799.189 397.292H798.095V404.346H799.189V397.292Z" fill="white"/>
<path d="M802.47 400.315H794.813V401.323H802.47V400.315Z" fill="white"/>
<path d="M525.726 148.377H524.632V149.385H525.726V148.377Z" fill="white"/>
<path d="M635.114 148.377H634.021V149.385H635.114V148.377Z" fill="white"/>
<path d="M744.499 148.377H743.406V149.385H744.499V148.377Z" fill="white"/>
<path d="M853.884 148.377H852.79V149.385H853.884V148.377Z" fill="white"/>
<path d="M525.726 249.151H524.632V250.159H525.726V249.151Z" fill="white"/>
<path d="M635.114 249.151H634.021V250.159H635.114V249.151Z" fill="white"/>
<path d="M744.499 249.151H743.406V250.159H744.499V249.151Z" fill="white"/>
<path d="M853.884 249.151H852.79V250.159H853.884V249.151Z" fill="white"/>
<path d="M525.726 349.928H524.632V350.935H525.726V349.928Z" fill="white"/>
<path d="M635.114 349.928H634.021V350.935H635.114V349.928Z" fill="white"/>
<path d="M744.499 349.928H743.406V350.935H744.499V349.928Z" fill="white"/>
<path d="M853.884 349.928H852.79V350.935H853.884V349.928Z" fill="white"/>
<path d="M525.726 450.703H524.632V451.711H525.726V450.703Z" fill="white"/>
<path d="M635.114 450.703H634.021V451.711H635.114V450.703Z" fill="white"/>
<path d="M744.499 450.703H743.406V451.711H744.499V450.703Z" fill="white"/>
<path d="M853.884 450.703H852.79V451.711H853.884V450.703Z" fill="white"/>
<path opacity="0.5" d="M909.566 98.4927H908.472V501.595H909.566V98.4927Z" fill="white"/>
<path opacity="0.2" d="M930.953 97.9893H929.859V502.099H930.953V97.9893Z" fill="white"/>
<path opacity="0.2" d="M952.883 97.9893H951.789V502.099H952.883V97.9893Z" fill="white"/>
<path opacity="0.2" d="M974.813 97.9893H973.719V502.099H974.813V97.9893Z" fill="white"/>
<path opacity="0.2" d="M996.747 97.9893H995.653V502.099H996.747V97.9893Z" fill="white"/>
<path opacity="0.5" d="M1018.68 97.9893H1017.58V502.099H1018.68V97.9893Z" fill="white"/>
<path opacity="0.2" d="M1040.61 97.9893H1039.52V502.099H1040.61V97.9893Z" fill="white"/>
<path opacity="0.2" d="M1062.54 97.9893H1061.45V502.099H1062.54V97.9893Z" fill="white"/>
<path opacity="0.2" d="M1084.47 97.9893H1083.38V502.099H1084.47V97.9893Z" fill="white"/>
<path opacity="0.2" d="M1106.4 97.9893H1105.31V502.099H1106.4V97.9893Z" fill="white"/>
<path opacity="0.5" d="M1128.34 97.9893H1127.24V502.099H1128.34V97.9893Z" fill="white"/>
<path opacity="0.2" d="M1150.27 97.9893H1149.17V502.099H1150.27V97.9893Z" fill="white"/>
<path opacity="0.2" d="M1172.2 97.9893H1171.11V502.099H1172.2V97.9893Z" fill="white"/>
<path opacity="0.2" d="M1194.13 97.9893H1193.04V502.099H1194.13V97.9893Z" fill="white"/>
<path opacity="0.2" d="M1216.06 97.9893H1214.97V502.099H1216.06V97.9893Z" fill="white"/>
<path opacity="0.5" d="M1238 97.9893H1236.9V502.099H1238V97.9893Z" fill="white"/>
<path opacity="0.2" d="M1259.93 97.9893H1258.83V502.099H1259.93V97.9893Z" fill="white"/>
<path opacity="0.2" d="M1281.86 97.9893H1280.76V502.099H1281.86V97.9893Z" fill="white"/>
<path opacity="0.2" d="M1303.79 97.9893H1302.7V502.099H1303.79V97.9893Z" fill="white"/>
<path opacity="0.2" d="M1325.72 97.9893H1324.63V502.099H1325.72V97.9893Z" fill="white"/>
<path opacity="0.5" d="M1346.56 97.9893H909.021V98.997H1346.56V97.9893Z" fill="white"/>
<path opacity="0.2" d="M1347.11 117.69H908.472V118.698H1347.11V117.69Z" fill="white"/>
<path opacity="0.2" d="M1347.11 137.896H908.472V138.904H1347.11V137.896Z" fill="white"/>
<path opacity="0.2" d="M1347.11 158.102H908.472V159.109H1347.11V158.102Z" fill="white"/>
<path opacity="0.2" d="M1347.11 178.308H908.472V179.315H1347.11V178.308Z" fill="white"/>
<path opacity="0.5" d="M1347.11 198.513H908.472V199.52H1347.11V198.513Z" fill="white"/>
<path opacity="0.2" d="M1347.11 218.717H908.472V219.725H1347.11V218.717Z" fill="white"/>
<path opacity="0.2" d="M1347.11 238.924H908.472V239.932H1347.11V238.924Z" fill="white"/>
<path opacity="0.2" d="M1347.11 259.128H908.472V260.136H1347.11V259.128Z" fill="white"/>
<path opacity="0.2" d="M1347.11 279.334H908.472V280.342H1347.11V279.334Z" fill="white"/>
<path opacity="0.5" d="M1347.11 299.54H908.472V300.547H1347.11V299.54Z" fill="white"/>
<path opacity="0.2" d="M1347.11 319.746H908.472V320.753H1347.11V319.746Z" fill="white"/>
<path opacity="0.2" d="M1347.11 339.951H908.472V340.958H1347.11V339.951Z" fill="white"/>
<path opacity="0.2" d="M1347.11 360.157H908.472V361.165H1347.11V360.157Z" fill="white"/>
<path opacity="0.2" d="M1347.11 380.361H908.472V381.369H1347.11V380.361Z" fill="white"/>
<path opacity="0.5" d="M1347.11 400.567H908.472V401.575H1347.11V400.567Z" fill="white"/>
<path opacity="0.2" d="M1347.11 420.773H908.472V421.781H1347.11V420.773Z" fill="white"/>
<path opacity="0.2" d="M1347.11 440.979H908.472V441.986H1347.11V440.979Z" fill="white"/>
<path opacity="0.2" d="M1347.11 461.184H908.472V462.191H1347.11V461.184Z" fill="white"/>
<path opacity="0.2" d="M1347.11 481.389H908.472V482.397H1347.11V481.389Z" fill="white"/>
<path d="M909.566 94.9658H908.472V102.02H909.566V94.9658Z" fill="white"/>
<path d="M912.848 97.989H905.191V98.9968H912.848V97.989Z" fill="white"/>
<path d="M909.566 195.741H908.472V202.795H909.566V195.741Z" fill="white"/>
<path d="M912.848 198.765H905.191V199.773H912.848V198.765Z" fill="white"/>
<path d="M909.566 296.517H908.472V303.571H909.566V296.517Z" fill="white"/>
<path d="M912.848 299.54H905.191V300.547H912.848V299.54Z" fill="white"/>
<path d="M909.566 397.292H908.472V404.346H909.566V397.292Z" fill="white"/>
<path d="M912.848 400.315H905.191V401.323H912.848V400.315Z" fill="white"/>
<path d="M1018.95 94.9653H1017.86V102.02H1018.95V94.9653Z" fill="white"/>
<path d="M1022.23 97.9893H1014.58V98.997H1022.23V97.9893Z" fill="white"/>
<path d="M1018.95 195.741H1017.86V202.795H1018.95V195.741Z" fill="white"/>
<path d="M1022.23 198.765H1014.58V199.773H1022.23V198.765Z" fill="white"/>
<path d="M1018.95 296.517H1017.86V303.571H1018.95V296.517Z" fill="white"/>
<path d="M1022.23 299.54H1014.58V300.547H1022.23V299.54Z" fill="white"/>
<path d="M1018.95 397.292H1017.86V404.346H1018.95V397.292Z" fill="white"/>
<path d="M1022.23 400.315H1014.58V401.323H1022.23V400.315Z" fill="white"/>
<path d="M1128.34 94.9653H1127.24V102.02H1128.34V94.9653Z" fill="white"/>
<path d="M1131.62 97.9893H1123.96V98.997H1131.62V97.9893Z" fill="white"/>
<path d="M1128.34 195.741H1127.24V202.795H1128.34V195.741Z" fill="white"/>
<path d="M1131.62 198.765H1123.96V199.773H1131.62V198.765Z" fill="white"/>
<path d="M1128.34 296.517H1127.24V303.571H1128.34V296.517Z" fill="white"/>
<path d="M1131.62 299.54H1123.96V300.547H1131.62V299.54Z" fill="white"/>
<path d="M1128.34 397.292H1127.24V404.346H1128.34V397.292Z" fill="white"/>
<path d="M1131.62 400.315H1123.96V401.323H1131.62V400.315Z" fill="white"/>
<path d="M1237.72 94.9653H1236.63V102.02H1237.72V94.9653Z" fill="white"/>
<path d="M1241 97.9893H1233.34V98.997H1241V97.9893Z" fill="white"/>
<path d="M1237.72 195.741H1236.63V202.795H1237.72V195.741Z" fill="white"/>
<path d="M1241 198.765H1233.34V199.773H1241V198.765Z" fill="white"/>
<path d="M1237.72 296.517H1236.63V303.571H1237.72V296.517Z" fill="white"/>
<path d="M1241 299.54H1233.34V300.547H1241V299.54Z" fill="white"/>
<path d="M1237.72 397.292H1236.63V404.346H1237.72V397.292Z" fill="white"/>
<path d="M1241 400.315H1233.34V401.323H1241V400.315Z" fill="white"/>
<path d="M964.258 148.377H963.164V149.385H964.258V148.377Z" fill="white"/>
<path d="M1073.64 148.377H1072.55V149.385H1073.64V148.377Z" fill="white"/>
<path d="M1183.03 148.377H1181.93V149.385H1183.03V148.377Z" fill="white"/>
<path d="M1292.41 148.377H1291.32V149.385H1292.41V148.377Z" fill="white"/>
<path d="M964.258 249.152H963.164V250.16H964.258V249.152Z" fill="white"/>
<path d="M1073.64 249.152H1072.55V250.16H1073.64V249.152Z" fill="white"/>
<path d="M1183.03 249.152H1181.93V250.16H1183.03V249.152Z" fill="white"/>
<path d="M1292.41 249.152H1291.32V250.16H1292.41V249.152Z" fill="white"/>
<path d="M964.258 349.928H963.164V350.936H964.258V349.928Z" fill="white"/>
<path d="M1073.64 349.928H1072.55V350.936H1073.64V349.928Z" fill="white"/>
<path d="M1183.03 349.928H1181.93V350.936H1183.03V349.928Z" fill="white"/>
<path d="M1292.41 349.928H1291.32V350.936H1292.41V349.928Z" fill="white"/>
<path d="M964.258 450.703H963.164V451.711H964.258V450.703Z" fill="white"/>
<path d="M1073.64 450.703H1072.55V451.711H1073.64V450.703Z" fill="white"/>
<path d="M1183.03 450.703H1181.93V451.711H1183.03V450.703Z" fill="white"/>
<path d="M1292.41 450.703H1291.32V451.711H1292.41V450.703Z" fill="white"/>
<path opacity="0.5" d="M1348.1 98.4927H1347.01V501.595H1348.1V98.4927Z" fill="white"/>
<path opacity="0.2" d="M1369.48 97.9893H1368.39V502.099H1369.48V97.9893Z" fill="white"/>
<path opacity="0.2" d="M1391.42 97.9893H1390.32V502.099H1391.42V97.9893Z" fill="white"/>
<path opacity="0.2" d="M1413.35 97.9893H1412.25V502.099H1413.35V97.9893Z" fill="white"/>
<path opacity="0.2" d="M1435.28 97.9893H1434.19V502.099H1435.28V97.9893Z" fill="white"/>
<path opacity="0.5" d="M1457.21 97.9893H1456.12V502.099H1457.21V97.9893Z" fill="white"/>
<path opacity="0.2" d="M1479.14 97.9893H1478.05V502.099H1479.14V97.9893Z" fill="white"/>
<path opacity="0.2" d="M1501.07 97.9893H1499.98V502.099H1501.07V97.9893Z" fill="white"/>
<path opacity="0.2" d="M1523.01 97.9893H1521.91V502.099H1523.01V97.9893Z" fill="white"/>
<path opacity="0.2" d="M1544.94 97.9893H1543.84V502.099H1544.94V97.9893Z" fill="white"/>
<path opacity="0.5" d="M1566.87 97.9893H1565.78V502.099H1566.87V97.9893Z" fill="white"/>
<path opacity="0.2" d="M1588.8 97.9893H1587.71V502.099H1588.8V97.9893Z" fill="white"/>
<path opacity="0.5" d="M1785.09 97.9893H1347.55V98.997H1785.09V97.9893Z" fill="white"/>
<path opacity="0.2" d="M1785.64 117.69H1347.01V118.698H1785.64V117.69Z" fill="white"/>
<path opacity="0.2" d="M1785.64 137.896H1347.01V138.904H1785.64V137.896Z" fill="white"/>
<path opacity="0.2" d="M1785.64 158.102H1347.01V159.109H1785.64V158.102Z" fill="white"/>
<path opacity="0.2" d="M1785.64 178.308H1347.01V179.315H1785.64V178.308Z" fill="white"/>
<path opacity="0.5" d="M1785.64 198.513H1347.01V199.52H1785.64V198.513Z" fill="white"/>
<path opacity="0.2" d="M1785.64 218.717H1347.01V219.725H1785.64V218.717Z" fill="white"/>
<path opacity="0.2" d="M1785.64 238.924H1347.01V239.932H1785.64V238.924Z" fill="white"/>
<path opacity="0.2" d="M1785.64 259.128H1347.01V260.136H1785.64V259.128Z" fill="white"/>
<path opacity="0.2" d="M1785.64 279.334H1347.01V280.342H1785.64V279.334Z" fill="white"/>
<path opacity="0.5" d="M1785.64 299.54H1347.01V300.547H1785.64V299.54Z" fill="white"/>
<path opacity="0.2" d="M1785.64 319.746H1347.01V320.753H1785.64V319.746Z" fill="white"/>
<path opacity="0.2" d="M1785.64 339.951H1347.01V340.958H1785.64V339.951Z" fill="white"/>
<path opacity="0.2" d="M1785.64 360.157H1347.01V361.165H1785.64V360.157Z" fill="white"/>
<path opacity="0.2" d="M1785.64 380.361H1347.01V381.369H1785.64V380.361Z" fill="white"/>
<path opacity="0.5" d="M1785.64 400.567H1347.01V401.575H1785.64V400.567Z" fill="white"/>
<path opacity="0.2" d="M1785.64 420.773H1347.01V421.781H1785.64V420.773Z" fill="white"/>
<path opacity="0.2" d="M1785.64 440.979H1347.01V441.986H1785.64V440.979Z" fill="white"/>
<path opacity="0.2" d="M1785.64 461.184H1347.01V462.191H1785.64V461.184Z" fill="white"/>
<path opacity="0.2" d="M1785.64 481.389H1347.01V482.397H1785.64V481.389Z" fill="white"/>
<path d="M1348.1 94.9658H1347.01V102.02H1348.1V94.9658Z" fill="white"/>
<path d="M1351.38 97.989H1343.72V98.9968H1351.38V97.989Z" fill="white"/>
<path d="M1348.1 195.741H1347.01V202.795H1348.1V195.741Z" fill="white"/>
<path d="M1351.38 198.765H1343.72V199.773H1351.38V198.765Z" fill="white"/>
<path d="M1348.1 296.517H1347.01V303.571H1348.1V296.517Z" fill="white"/>
<path d="M1351.38 299.54H1343.72V300.547H1351.38V299.54Z" fill="white"/>
<path d="M1348.1 397.292H1347.01V404.346H1348.1V397.292Z" fill="white"/>
<path d="M1351.38 400.315H1343.72V401.323H1351.38V400.315Z" fill="white"/>
<path d="M1457.48 94.9653H1456.39V102.02H1457.48V94.9653Z" fill="white"/>
<path d="M1460.77 97.9893H1453.11V98.997H1460.77V97.9893Z" fill="white"/>
<path d="M1457.48 195.741H1456.39V202.795H1457.48V195.741Z" fill="white"/>
<path d="M1460.77 198.765H1453.11V199.773H1460.77V198.765Z" fill="white"/>
<path d="M1457.48 296.517H1456.39V303.571H1457.48V296.517Z" fill="white"/>
<path d="M1460.77 299.54H1453.11V300.547H1460.77V299.54Z" fill="white"/>
<path d="M1457.48 397.292H1456.39V404.346H1457.48V397.292Z" fill="white"/>
<path d="M1460.77 400.315H1453.11V401.323H1460.77V400.315Z" fill="white"/>
<path d="M1566.87 94.9653H1565.78V102.02H1566.87V94.9653Z" fill="white"/>
<path d="M1570.15 97.9893H1562.49V98.997H1570.15V97.9893Z" fill="white"/>
<path d="M1566.87 195.741H1565.78V202.795H1566.87V195.741Z" fill="white"/>
<path d="M1570.15 198.765H1562.49V199.773H1570.15V198.765Z" fill="white"/>
<path d="M1566.87 296.517H1565.78V303.571H1566.87V296.517Z" fill="white"/>
<path d="M1570.15 299.54H1562.49V300.547H1570.15V299.54Z" fill="white"/>
<path d="M1566.87 397.292H1565.78V404.346H1566.87V397.292Z" fill="white"/>
<path d="M1570.15 400.315H1562.49V401.323H1570.15V400.315Z" fill="white"/>
<path d="M1402.79 148.377H1401.7V149.385H1402.79V148.377Z" fill="white"/>
<path d="M1512.18 148.377H1511.08V149.385H1512.18V148.377Z" fill="white"/>
<path d="M1402.79 249.152H1401.7V250.16H1402.79V249.152Z" fill="white"/>
<path d="M1512.18 249.152H1511.08V250.16H1512.18V249.152Z" fill="white"/>
<path d="M1402.79 349.928H1401.7V350.936H1402.79V349.928Z" fill="white"/>
<path d="M1512.18 349.928H1511.08V350.936H1512.18V349.928Z" fill="white"/>
<path d="M1402.79 450.703H1401.7V451.711H1402.79V450.703Z" fill="white"/>
<path d="M1512.18 450.703H1511.08V451.711H1512.18V450.703Z" fill="white"/>
<path opacity="0.2" d="M10.1271 502.619H9.0332V906.729H10.1271V502.619Z" fill="white"/>
<path opacity="0.5" d="M30.965 502.619H-406.575V503.627H30.965V502.619Z" fill="white"/>
<path opacity="0.2" d="M31.5094 522.321H-407.125V523.329H31.5094V522.321Z" fill="white"/>
<path opacity="0.2" d="M31.5094 542.526H-407.125V543.534H31.5094V542.526Z" fill="white"/>
<path opacity="0.2" d="M31.5094 562.732H-407.125V563.74H31.5094V562.732Z" fill="white"/>
<path opacity="0.5" d="M32.5006 503.124H31.4067V906.225H32.5006V503.124Z" fill="white"/>
<path opacity="0.2" d="M53.8846 502.619H52.7908V906.729H53.8846V502.619Z" fill="white"/>
<path opacity="0.2" d="M75.8177 502.619H74.7239V906.729H75.8177V502.619Z" fill="white"/>
<path opacity="0.2" d="M97.7481 502.619H96.6543V906.729H97.7481V502.619Z" fill="white"/>
<path opacity="0.2" d="M119.682 502.619H118.588V906.729H119.682V502.619Z" fill="white"/>
<path opacity="0.5" d="M141.612 502.619H140.518V906.729H141.612V502.619Z" fill="white"/>
<path opacity="0.2" d="M163.542 502.619H162.448V906.729H163.542V502.619Z" fill="white"/>
<path opacity="0.2" d="M185.476 502.619H184.382V906.729H185.476V502.619Z" fill="white"/>
<path opacity="0.2" d="M207.409 502.619H206.315V906.729H207.409V502.619Z" fill="white"/>
<path opacity="0.2" d="M229.339 502.619H228.246V906.729H229.339V502.619Z" fill="white"/>
<path opacity="0.5" d="M251.27 502.619H250.176V906.729H251.27V502.619Z" fill="white"/>
<path opacity="0.2" d="M273.203 502.619H272.11V906.729H273.203V502.619Z" fill="white"/>
<path opacity="0.2" d="M295.134 502.619H294.04V906.729H295.134V502.619Z" fill="white"/>
<path opacity="0.2" d="M317.067 502.619H315.974V906.729H317.067V502.619Z" fill="white"/>
<path opacity="0.2" d="M338.998 502.619H337.904V906.729H338.998V502.619Z" fill="white"/>
<path opacity="0.5" d="M360.931 502.619H359.837V906.729H360.931V502.619Z" fill="white"/>
<path opacity="0.2" d="M382.861 502.619H381.767V906.729H382.861V502.619Z" fill="white"/>
<path opacity="0.2" d="M404.795 502.619H403.701V906.729H404.795V502.619Z" fill="white"/>
<path opacity="0.2" d="M426.725 502.619H425.631V906.729H426.725V502.619Z" fill="white"/>
<path opacity="0.2" d="M448.655 502.619H447.562V906.729H448.655V502.619Z" fill="white"/>
<path opacity="0.5" d="M469.493 502.619H31.9531V503.627H469.493V502.619Z" fill="white"/>
<path opacity="0.2" d="M470.041 522.321H31.4067V523.329H470.041V522.321Z" fill="white"/>
<path opacity="0.2" d="M470.041 542.526H31.4067V543.534H470.041V542.526Z" fill="white"/>
<path opacity="0.2" d="M470.041 562.732H31.4067V563.74H470.041V562.732Z" fill="white"/>
<path d="M32.5006 499.596H31.4067V506.65H32.5006V499.596Z" fill="white"/>
<path d="M35.7824 502.619H28.1255V503.627H35.7824V502.619Z" fill="white"/>
<path d="M141.885 499.596H140.791V506.65H141.885V499.596Z" fill="white"/>
<path d="M145.167 502.619H137.51V503.627H145.167V502.619Z" fill="white"/>
<path d="M251.27 499.596H250.176V506.65H251.27V499.596Z" fill="white"/>
<path d="M254.552 502.619H246.895V503.627H254.552V502.619Z" fill="white"/>
<path d="M360.655 499.596H359.561V506.65H360.655V499.596Z" fill="white"/>
<path d="M363.937 502.619H356.28V503.627H363.937V502.619Z" fill="white"/>
<path d="M87.1927 553.007H86.0989V554.015H87.1927V553.007Z" fill="white"/>
<path d="M196.578 553.007H195.484V554.015H196.578V553.007Z" fill="white"/>
<path d="M305.966 553.007H304.872V554.015H305.966V553.007Z" fill="white"/>
<path d="M415.35 553.007H414.256V554.015H415.35V553.007Z" fill="white"/>
<path opacity="0.5" d="M471.034 503.124H469.94V906.225H471.034V503.124Z" fill="white"/>
<path opacity="0.2" d="M492.418 502.619H491.324V906.729H492.418V502.619Z" fill="white"/>
<path opacity="0.2" d="M514.351 502.619H513.258V906.729H514.351V502.619Z" fill="white"/>
<path opacity="0.2" d="M536.282 502.619H535.188V906.729H536.282V502.619Z" fill="white"/>
<path opacity="0.2" d="M558.215 502.619H557.122V906.729H558.215V502.619Z" fill="white"/>
<path opacity="0.5" d="M580.146 502.619H579.052V906.729H580.146V502.619Z" fill="white"/>
<path opacity="0.2" d="M602.076 502.619H600.982V906.729H602.076V502.619Z" fill="white"/>
<path opacity="0.2" d="M624.01 502.619H622.916V906.729H624.01V502.619Z" fill="white"/>
<path opacity="0.2" d="M645.943 502.619H644.849V906.729H645.943V502.619Z" fill="white"/>
<path opacity="0.2" d="M667.873 502.619H666.779V906.729H667.873V502.619Z" fill="white"/>
<path opacity="0.5" d="M689.803 502.619H688.71V906.729H689.803V502.619Z" fill="white"/>
<path opacity="0.2" d="M711.737 502.619H710.643V906.729H711.737V502.619Z" fill="white"/>
<path opacity="0.2" d="M733.667 502.619H732.574V906.729H733.667V502.619Z" fill="white"/>
<path opacity="0.2" d="M755.601 502.619H754.507V906.729H755.601V502.619Z" fill="white"/>
<path opacity="0.2" d="M777.531 502.619H776.438V906.729H777.531V502.619Z" fill="white"/>
<path opacity="0.5" d="M799.465 502.619H798.371V906.729H799.465V502.619Z" fill="white"/>
<path opacity="0.2" d="M821.395 502.619H820.301V906.729H821.395V502.619Z" fill="white"/>
<path opacity="0.2" d="M843.329 502.619H842.235V906.729H843.329V502.619Z" fill="white"/>
<path opacity="0.2" d="M865.259 502.619H864.165V906.729H865.259V502.619Z" fill="white"/>
<path opacity="0.2" d="M887.189 502.619H886.095V906.729H887.189V502.619Z" fill="white"/>
<path opacity="0.5" d="M908.027 502.619H470.487V503.627H908.027V502.619Z" fill="white"/>
<path opacity="0.2" d="M908.574 522.321H469.94V523.329H908.574V522.321Z" fill="white"/>
<path opacity="0.2" d="M908.574 542.526H469.94V543.534H908.574V542.526Z" fill="white"/>
<path opacity="0.2" d="M908.574 562.732H469.94V563.74H908.574V562.732Z" fill="white"/>
<path d="M471.034 499.596H469.94V506.65H471.034V499.596Z" fill="white"/>
<path d="M474.316 502.619H466.659V503.627H474.316V502.619Z" fill="white"/>
<path d="M580.419 499.596H579.325V506.65H580.419V499.596Z" fill="white"/>
<path d="M583.701 502.619H576.044V503.627H583.701V502.619Z" fill="white"/>
<path d="M689.803 499.596H688.71V506.65H689.803V499.596Z" fill="white"/>
<path d="M693.086 502.619H685.429V503.627H693.086V502.619Z" fill="white"/>
<path d="M799.189 499.596H798.095V506.65H799.189V499.596Z" fill="white"/>
<path d="M802.47 502.619H794.813V503.627H802.47V502.619Z" fill="white"/>
<path d="M525.726 553.007H524.632V554.015H525.726V553.007Z" fill="white"/>
<path d="M635.114 553.007H634.021V554.015H635.114V553.007Z" fill="white"/>
<path d="M744.499 553.007H743.406V554.015H744.499V553.007Z" fill="white"/>
<path d="M853.884 553.007H852.79V554.015H853.884V553.007Z" fill="white"/>
<path opacity="0.5" d="M909.566 503.124H908.472V906.225H909.566V503.124Z" fill="white"/>
<path opacity="0.2" d="M930.953 502.619H929.859V906.729H930.953V502.619Z" fill="white"/>
<path opacity="0.2" d="M952.883 502.619H951.789V906.729H952.883V502.619Z" fill="white"/>
<path opacity="0.2" d="M974.813 502.619H973.719V906.729H974.813V502.619Z" fill="white"/>
<path opacity="0.2" d="M996.747 502.619H995.653V906.729H996.747V502.619Z" fill="white"/>
<path opacity="0.5" d="M1018.68 502.619H1017.58V906.729H1018.68V502.619Z" fill="white"/>
<path opacity="0.2" d="M1040.61 502.619H1039.52V906.729H1040.61V502.619Z" fill="white"/>
<path opacity="0.2" d="M1062.54 502.619H1061.45V906.729H1062.54V502.619Z" fill="white"/>
<path opacity="0.2" d="M1084.47 502.619H1083.38V906.729H1084.47V502.619Z" fill="white"/>
<path opacity="0.2" d="M1106.4 502.619H1105.31V906.729H1106.4V502.619Z" fill="white"/>
<path opacity="0.5" d="M1128.34 502.619H1127.24V906.729H1128.34V502.619Z" fill="white"/>
<path opacity="0.2" d="M1150.27 502.619H1149.17V906.729H1150.27V502.619Z" fill="white"/>
<path opacity="0.2" d="M1172.2 502.619H1171.11V906.729H1172.2V502.619Z" fill="white"/>
<path opacity="0.2" d="M1194.13 502.619H1193.04V906.729H1194.13V502.619Z" fill="white"/>
<path opacity="0.2" d="M1216.06 502.619H1214.97V906.729H1216.06V502.619Z" fill="white"/>
<path opacity="0.5" d="M1238 502.619H1236.9V906.729H1238V502.619Z" fill="white"/>
<path opacity="0.2" d="M1259.93 502.619H1258.83V906.729H1259.93V502.619Z" fill="white"/>
<path opacity="0.2" d="M1281.86 502.619H1280.76V906.729H1281.86V502.619Z" fill="white"/>
<path opacity="0.2" d="M1303.79 502.619H1302.7V906.729H1303.79V502.619Z" fill="white"/>
<path opacity="0.2" d="M1325.72 502.619H1324.63V906.729H1325.72V502.619Z" fill="white"/>
<path opacity="0.5" d="M1346.56 502.619H909.021V503.627H1346.56V502.619Z" fill="white"/>
<path opacity="0.2" d="M1347.11 522.321H908.472V523.329H1347.11V522.321Z" fill="white"/>
<path opacity="0.2" d="M1347.11 542.526H908.472V543.534H1347.11V542.526Z" fill="white"/>
<path opacity="0.2" d="M1347.11 562.732H908.472V563.74H1347.11V562.732Z" fill="white"/>
<path d="M909.566 499.596H908.472V506.65H909.566V499.596Z" fill="white"/>
<path d="M912.848 502.619H905.191V503.627H912.848V502.619Z" fill="white"/>
<path d="M1018.95 499.596H1017.86V506.65H1018.95V499.596Z" fill="white"/>
<path d="M1022.23 502.619H1014.58V503.627H1022.23V502.619Z" fill="white"/>
<path d="M1128.34 499.596H1127.24V506.65H1128.34V499.596Z" fill="white"/>
<path d="M1131.62 502.619H1123.96V503.627H1131.62V502.619Z" fill="white"/>
<path d="M1237.72 499.596H1236.63V506.65H1237.72V499.596Z" fill="white"/>
<path d="M1241 502.619H1233.34V503.627H1241V502.619Z" fill="white"/>
<path d="M964.258 553.007H963.164V554.015H964.258V553.007Z" fill="white"/>
<path d="M1073.64 553.007H1072.55V554.015H1073.64V553.007Z" fill="white"/>
<path d="M1183.03 553.007H1181.93V554.015H1183.03V553.007Z" fill="white"/>
<path d="M1292.41 553.007H1291.32V554.015H1292.41V553.007Z" fill="white"/>
<path opacity="0.5" d="M1348.1 503.124H1347.01V906.225H1348.1V503.124Z" fill="white"/>
<path opacity="0.2" d="M1369.48 502.619H1368.39V906.729H1369.48V502.619Z" fill="white"/>
<path opacity="0.2" d="M1391.42 502.619H1390.32V906.729H1391.42V502.619Z" fill="white"/>
<path opacity="0.2" d="M1413.35 502.619H1412.25V906.729H1413.35V502.619Z" fill="white"/>
<path opacity="0.2" d="M1435.28 502.619H1434.19V906.729H1435.28V502.619Z" fill="white"/>
<path opacity="0.5" d="M1457.21 502.619H1456.12V906.729H1457.21V502.619Z" fill="white"/>
<path opacity="0.2" d="M1479.14 502.619H1478.05V906.729H1479.14V502.619Z" fill="white"/>
<path opacity="0.2" d="M1501.07 502.619H1499.98V906.729H1501.07V502.619Z" fill="white"/>
<path opacity="0.2" d="M1523.01 502.619H1521.91V906.729H1523.01V502.619Z" fill="white"/>
<path opacity="0.2" d="M1544.94 502.619H1543.84V906.729H1544.94V502.619Z" fill="white"/>
<path opacity="0.5" d="M1566.87 502.619H1565.78V906.729H1566.87V502.619Z" fill="white"/>
<path opacity="0.2" d="M1588.8 502.619H1587.71V906.729H1588.8V502.619Z" fill="white"/>
<path opacity="0.5" d="M1785.09 502.619H1347.55V503.627H1785.09V502.619Z" fill="white"/>
<path opacity="0.2" d="M1785.64 522.321H1347.01V523.329H1785.64V522.321Z" fill="white"/>
<path opacity="0.2" d="M1785.64 542.526H1347.01V543.534H1785.64V542.526Z" fill="white"/>
<path opacity="0.2" d="M1785.64 562.732H1347.01V563.74H1785.64V562.732Z" fill="white"/>
<path d="M1348.1 499.596H1347.01V506.65H1348.1V499.596Z" fill="white"/>
<path d="M1351.38 502.619H1343.72V503.627H1351.38V502.619Z" fill="white"/>
<path d="M1457.48 499.596H1456.39V506.65H1457.48V499.596Z" fill="white"/>
<path d="M1460.77 502.619H1453.11V503.627H1460.77V502.619Z" fill="white"/>
<path d="M1566.87 499.596H1565.78V506.65H1566.87V499.596Z" fill="white"/>
<path d="M1570.15 502.619H1562.49V503.627H1570.15V502.619Z" fill="white"/>
<path d="M1402.79 553.007H1401.7V554.015H1402.79V553.007Z" fill="white"/>
<path d="M1512.18 553.007H1511.08V554.015H1512.18V553.007Z" fill="white"/>
</g>
</g>
</g>
</svg>
