<svg width="254" height="157" viewBox="0 0 254 157" fill="none" xmlns="http://www.w3.org/2000/svg">
<path opacity="0.5" d="M8.89254 7.30225H7.32324V148.655H8.89254V7.30225Z" fill="black" fill-opacity="0.2"/>
<path opacity="0.5" d="M245.562 6.91724H243.833V147.856H245.562V6.91724Z" fill="black" fill-opacity="0.2"/>
<path opacity="0.2" d="M55.9716 7.30225H54.4023V148.655H55.9716V7.30225Z" fill="black" fill-opacity="0.2"/>
<path opacity="0.2" d="M102.527 7.30225H100.958V148.655H102.527V7.30225Z" fill="black" fill-opacity="0.2"/>
<path opacity="0.2" d="M149.083 7.30225H147.514V148.655H149.083V7.30225Z" fill="black" fill-opacity="0.2"/>
<path opacity="0.2" d="M195.641 7.30225H194.072V148.655H195.641V7.30225Z" fill="black" fill-opacity="0.2"/>
<path opacity="0.5" d="M245.563 6.91724H6.91748V8.64655H245.563V6.91724Z" fill="black" fill-opacity="0.2"/>
<path opacity="0.2" d="M245.563 54.4734H6.91748V56.2027H245.563V54.4734Z" fill="black" fill-opacity="0.2"/>
<path opacity="0.2" d="M245.563 100.3H6.91748V102.03H245.563V100.3Z" fill="black" fill-opacity="0.2"/>
<path opacity="0.5" d="M245.563 147.856H6.91748V149.586H245.563V147.856Z" fill="black" fill-opacity="0.2"/>
<path d="M8.8925 0H7.32324V16.169H8.8925V0Z" fill="black" fill-opacity="0.2"/>
<path d="M16.2157 7.30225H0V8.86699H16.2157V7.30225Z" fill="black" fill-opacity="0.2"/>
<path d="M8.8925 140.831H7.32324V157H8.8925V140.831Z" fill="black" fill-opacity="0.2"/>
<path d="M16.2157 148.133H0V149.698H16.2157V148.133Z" fill="black" fill-opacity="0.2"/>
<path d="M245.809 0H244.24V16.169H245.809V0Z" fill="black" fill-opacity="0.2"/>
<path d="M253.132 7.30225H236.916V8.86699H253.132V7.30225Z" fill="black" fill-opacity="0.2"/>
<path d="M245.809 140.831H244.24V157H245.809V140.831Z" fill="black" fill-opacity="0.2"/>
<path d="M253.132 148.133H236.916V149.698H253.132V148.133Z" fill="black" fill-opacity="0.2"/>
</svg>
