<svg width="24" height="25" viewBox="0 0 24 25" fill="none" xmlns="http://www.w3.org/2000/svg">
<path d="M3 6.92676H5H21" stroke="#2B2A34" stroke-width="2" stroke-linecap="round" stroke-linejoin="round"/>
<path d="M19 6.92676V20.9268C19 21.4572 18.7893 21.9659 18.4142 22.341C18.0391 22.716 17.5304 22.9268 17 22.9268H7C6.46957 22.9268 5.96086 22.716 5.58579 22.341C5.21071 21.9659 5 21.4572 5 20.9268V6.92676M8 6.92676V4.92676C8 4.39632 8.21071 3.88762 8.58579 3.51254C8.96086 3.13747 9.46957 2.92676 10 2.92676H14C14.5304 2.92676 15.0391 3.13747 15.4142 3.51254C15.7893 3.88762 16 4.39632 16 4.92676V6.92676" stroke="#2B2A34" stroke-width="2" stroke-linecap="round" stroke-linejoin="round"/>
</svg>
